# Blender 4.4.3
# www.blender.org
mtllib MANOR_GROUND_1_004.mtl
o MANOR_GROUND_1_004
v 0.485000 -1.000000 -0.485000
v 0.485000 -0.985000 -0.500000
v 0.500000 -0.985000 -0.485000
v 0.485000 -0.995607 -0.495607
v 0.493660 -0.993660 -0.493660
v 0.495607 -0.985000 -0.495607
v 0.495607 -0.995607 -0.485000
v 0.485000 -0.015000 -0.500000
v 0.485000 0.000000 -0.485000
v 0.500000 -0.015000 -0.485000
v 0.485000 -0.004393 -0.495607
v 0.493660 -0.006340 -0.493660
v 0.495607 -0.004393 -0.485000
v 0.495607 -0.015000 -0.495607
v 0.485000 -1.000000 0.485000
v 0.500000 -0.985000 0.485000
v 0.485000 -0.985000 0.500000
v 0.495607 -0.995607 0.485000
v 0.493660 -0.993660 0.493660
v 0.495607 -0.985000 0.495607
v 0.485000 -0.995607 0.495607
v 0.485000 0.000000 0.485000
v 0.485000 -0.015000 0.500000
v 0.500000 -0.015000 0.485000
v 0.485000 -0.004393 0.495607
v 0.493660 -0.006340 0.493660
v 0.495607 -0.015000 0.495607
v 0.495607 -0.004393 0.485000
v -0.485000 -1.000000 -0.485000
v -0.500000 -0.985000 -0.485000
v -0.485000 -0.985000 -0.500000
v -0.495607 -0.995607 -0.485000
v -0.493660 -0.993660 -0.493660
v -0.495607 -0.985000 -0.495607
v -0.485000 -0.995607 -0.495607
v -0.485000 0.000000 -0.485000
v -0.485000 -0.015000 -0.500000
v -0.500000 -0.015000 -0.485000
v -0.485000 -0.004393 -0.495607
v -0.493660 -0.006340 -0.493660
v -0.495607 -0.015000 -0.495607
v -0.495607 -0.004393 -0.485000
v -0.485000 -1.000000 0.485000
v -0.485000 -0.985000 0.500000
v -0.500000 -0.985000 0.485000
v -0.485000 -0.995607 0.495607
v -0.493660 -0.993660 0.493660
v -0.495607 -0.985000 0.495607
v -0.495607 -0.995607 0.485000
v -0.485000 0.000000 0.485000
v -0.500000 -0.015000 0.485000
v -0.485000 -0.015000 0.500000
v -0.495607 -0.004393 0.485000
v -0.493660 -0.006340 0.493660
v -0.495607 -0.015000 0.495607
v -0.485000 -0.004393 0.495607
vn -0.1794 -0.1794 -0.9673
vn -0.1794 0.1794 -0.9673
vn 0.1794 0.1794 -0.9673
vn 0.1794 -0.1794 -0.9673
vn -0.9673 -0.1794 0.1794
vn -0.9673 0.1794 0.1794
vn -0.9673 0.1794 -0.1794
vn -0.9673 -0.1794 -0.1794
vn -0.1794 0.9673 0.1794
vn 0.1794 0.9673 0.1794
vn 0.1794 0.9673 -0.1794
vn -0.1794 0.9673 -0.1794
vn 0.9673 -0.1794 -0.1794
vn 0.9673 0.1794 -0.1794
vn 0.9673 0.1794 0.1794
vn 0.9673 -0.1794 0.1794
vn 0.1794 -0.1794 0.9673
vn 0.1794 0.1794 0.9673
vn -0.1794 0.1794 0.9673
vn -0.1794 -0.1794 0.9673
vn 0.1794 -0.9673 -0.1794
vn 0.1585 -0.9194 -0.3600
vn 0.3251 -0.8881 -0.3251
vn 0.3600 -0.9194 -0.1585
vn 0.3600 -0.1585 -0.9194
vn 0.3251 -0.3251 -0.8881
vn 0.1585 -0.3600 -0.9194
vn 0.9194 -0.3600 -0.1585
vn 0.8881 -0.3251 -0.3251
vn 0.9194 -0.1585 -0.3600
vn 0.1585 0.3600 -0.9194
vn 0.3251 0.3251 -0.8881
vn 0.3600 0.1585 -0.9194
vn 0.3600 0.9194 -0.1585
vn 0.3251 0.8881 -0.3251
vn 0.1585 0.9194 -0.3600
vn 0.9194 0.1585 -0.3600
vn 0.8881 0.3251 -0.3251
vn 0.9194 0.3600 -0.1585
vn 0.1794 -0.9673 0.1794
vn 0.3600 -0.9194 0.1585
vn 0.3251 -0.8881 0.3251
vn 0.1585 -0.9194 0.3600
vn 0.9194 -0.1585 0.3600
vn 0.8881 -0.3251 0.3251
vn 0.9194 -0.3600 0.1585
vn 0.1585 -0.3600 0.9194
vn 0.3251 -0.3251 0.8881
vn 0.3600 -0.1585 0.9194
vn 0.1585 0.9194 0.3600
vn 0.3251 0.8881 0.3251
vn 0.3600 0.9194 0.1585
vn 0.3600 0.1585 0.9194
vn 0.3251 0.3251 0.8881
vn 0.1585 0.3600 0.9194
vn 0.9194 0.3600 0.1585
vn 0.8881 0.3251 0.3251
vn 0.9194 0.1585 0.3600
vn -0.1794 -0.9673 -0.1794
vn -0.3600 -0.9194 -0.1585
vn -0.3251 -0.8881 -0.3251
vn -0.1585 -0.9194 -0.3600
vn -0.9194 -0.1585 -0.3600
vn -0.8881 -0.3251 -0.3251
vn -0.9194 -0.3600 -0.1585
vn -0.1585 -0.3600 -0.9194
vn -0.3251 -0.3251 -0.8881
vn -0.3600 -0.1585 -0.9194
vn -0.1585 0.9194 -0.3600
vn -0.3251 0.8881 -0.3251
vn -0.3600 0.9194 -0.1585
vn -0.3600 0.1585 -0.9194
vn -0.3251 0.3251 -0.8881
vn -0.1585 0.3600 -0.9194
vn -0.9194 0.3600 -0.1585
vn -0.8881 0.3251 -0.3251
vn -0.9194 0.1585 -0.3600
vn -0.1794 -0.9673 0.1794
vn -0.1585 -0.9194 0.3600
vn -0.3251 -0.8881 0.3251
vn -0.3600 -0.9194 0.1585
vn -0.3600 -0.1585 0.9194
vn -0.3251 -0.3251 0.8881
vn -0.1585 -0.3600 0.9194
vn -0.9194 -0.3600 0.1585
vn -0.8881 -0.3251 0.3251
vn -0.9194 -0.1585 0.3600
vn -0.3600 0.9194 0.1585
vn -0.3251 0.8881 0.3251
vn -0.1585 0.9194 0.3600
vn -0.9194 0.1585 0.3600
vn -0.8881 0.3251 0.3251
vn -0.9194 0.3600 0.1585
vn -0.1585 0.3600 0.9194
vn -0.3251 0.3251 0.8881
vn -0.3600 0.1585 0.9194
vt 0.378750 0.753750
vt 0.621250 0.753750
vt 0.621250 0.996250
vt 0.378750 0.996250
vt 0.378750 0.503750
vt 0.621250 0.503750
vt 0.621250 0.746250
vt 0.378750 0.746250
vt 0.331566 0.728982
vt 0.030590 0.728982
vt 0.030590 0.428006
vt 0.331566 0.428006
vt 0.378750 0.003750
vt 0.621250 0.003750
vt 0.621250 0.246250
vt 0.378750 0.246250
vt 0.378750 0.253750
vt 0.621250 0.253750
vt 0.621250 0.496250
vt 0.378750 0.496250
vt 0.128750 0.746250
vt 0.128750 0.750000
vt 0.126585 0.750000
vt 0.125000 0.746250
vt 0.378750 1.000000
vt 0.376585 1.000000
vt 0.375000 0.996250
vt 0.375000 0.003750
vt 0.375000 0.001585
vt 0.378750 0.000000
vt 0.625000 0.996250
vt 0.625000 0.998415
vt 0.621250 1.000000
vt 0.025936 0.428006
vt 0.025936 0.425319
vt 0.030590 0.423352
vt 0.621250 0.000000
vt 0.623415 0.000000
vt 0.625000 0.003750
vt 0.128750 0.503750
vt 0.125000 0.503750
vt 0.125000 0.501585
vt 0.128750 0.500000
vt 0.378750 0.250000
vt 0.376585 0.250000
vt 0.375000 0.246250
vt 0.375000 0.253750
vt 0.375000 0.251585
vt 0.030590 0.733636
vt 0.027903 0.733636
vt 0.025936 0.728982
vt 0.621250 0.250000
vt 0.623415 0.250000
vt 0.625000 0.253750
vt 0.625000 0.246250
vt 0.625000 0.248415
vt 0.371250 0.746250
vt 0.375000 0.746250
vt 0.375528 0.750000
vt 0.371250 0.750000
vt 0.378750 0.750000
vt 0.375000 0.753750
vt 0.331566 0.423352
vt 0.334253 0.423352
vt 0.336220 0.428006
vt 0.621250 0.750000
vt 0.623415 0.750000
vt 0.625000 0.753750
vt 0.625000 0.746250
vt 0.625000 0.748415
vt 0.371250 0.503750
vt 0.371250 0.500000
vt 0.375000 0.500528
vt 0.375000 0.503750
vt 0.378750 0.500000
vt 0.375000 0.496250
vt 0.336220 0.728982
vt 0.336220 0.731669
vt 0.331566 0.733636
vt 0.621250 0.500000
vt 0.623415 0.500000
vt 0.625000 0.503750
vt 0.625000 0.496250
vt 0.625000 0.498415
s 1
usemtl MANOR_SHEET
f 31/1/1 37/2/2 8/3/3 2/4/4
s 2
f 45/5/5 51/6/6 38/7/7 30/8/8
s 3
f 50/9/9 22/10/10 9/11/11 36/12/12
s 4
f 3/13/13 10/14/14 24/15/15 16/16/16
s 5
f 17/17/17 23/18/18 52/19/19 44/20/20
s 6
f 1/21/21 4/22/22 5/23/23 7/24/24
s 1
f 2/4/4 6/25/25 5/26/26 4/27/27
s 4
f 3/13/13 7/28/28 5/29/29 6/30/30
s 1
f 8/3/3 11/31/31 12/32/32 14/33/33
s 3
f 9/11/11 13/34/34 12/35/35 11/36/36
s 4
f 10/14/14 14/37/37 12/38/38 13/39/39
s 6
f 15/40/40 18/41/41 19/42/42 21/43/43
s 4
f 16/16/16 20/44/44 19/45/45 18/46/46
s 5
f 17/17/17 21/47/47 19/48/48 20/44/49
s 3
f 22/10/10 25/49/50 26/50/51 28/51/52
s 5
f 23/18/18 27/52/53 26/53/54 25/54/55
s 4
f 24/15/15 28/55/56 26/56/57 27/52/58
s 6
f 29/57/59 32/58/60 33/59/61 35/60/62
s 2
f 30/8/8 34/61/63 33/59/64 32/58/65
s 1
f 31/1/1 35/62/66 33/59/67 34/61/68
s 3
f 36/12/12 39/63/69 40/64/70 42/65/71
s 1
f 37/2/2 41/66/72 40/67/73 39/68/74
s 2
f 38/7/7 42/69/75 40/70/76 41/66/77
s 6
f 43/71/78 46/72/79 47/73/80 49/74/81
s 5
f 44/20/20 48/75/82 47/73/83 46/76/84
s 2
f 45/5/5 49/74/85 47/73/86 48/75/87
s 3
f 50/9/9 53/77/88 54/78/89 56/79/90
s 2
f 51/6/6 55/80/91 54/81/92 53/82/93
s 5
f 52/19/19 56/83/94 54/84/95 55/80/96
s 6
f 15/40/40 1/21/21 7/24/24 18/41/41
s 4
f 18/46/46 7/28/28 3/13/13 16/16/16
s 1
f 2/4/4 8/3/3 14/33/33 6/25/25
s 4
f 6/30/30 14/37/37 10/14/14 3/13/13
s 3
f 9/11/11 22/10/10 28/51/52 13/34/34
s 4
f 13/39/39 28/55/56 24/15/15 10/14/14
s 5
f 23/18/18 17/17/17 20/44/49 27/52/53
s 4
f 27/52/58 20/44/44 16/16/16 24/15/15
s 6
f 43/71/78 15/40/40 21/43/43 46/72/79
s 5
f 46/76/84 21/47/47 17/17/17 44/20/20
s 3
f 22/10/10 50/9/9 56/79/90 25/49/50
s 5
f 25/54/55 56/83/94 52/19/19 23/18/18
s 2
f 51/6/6 45/5/5 48/75/87 55/80/91
s 5
f 55/80/96 48/75/82 44/20/20 52/19/19
s 6
f 29/57/59 43/71/78 49/74/81 32/58/60
s 2
f 32/58/65 49/74/85 45/5/5 30/8/8
s 3
f 50/9/9 36/12/12 42/65/71 53/77/88
s 2
f 53/82/93 42/69/75 38/7/7 51/6/6
s 1
f 37/2/2 31/1/1 34/61/68 41/66/72
s 2
f 41/66/77 34/61/63 30/8/8 38/7/7
s 6
f 1/21/21 29/57/59 35/60/62 4/22/22
s 1
f 4/27/27 35/62/66 31/1/1 2/4/4
s 3
f 36/12/12 9/11/11 11/36/36 39/63/69
s 1
f 39/68/74 11/31/31 8/3/3 37/2/2
s 6
f 15/40/40 43/71/78 29/57/59 1/21/21
