# Blender 4.4.3
# www.blender.org
mtllib TEMPLE_GROUND_002.mtl
o TEMPLE_GROUND_002
v -0.500000 -0.985000 -0.485000
v -0.485000 -0.985000 -0.500000
v -0.485000 -1.000000 -0.485000
v -0.495607 -0.985000 -0.495607
v -0.493660 -0.993660 -0.493660
v -0.485000 -0.995607 -0.495607
v -0.495607 -0.995607 -0.485000
v -0.485000 0.000000 -0.485000
v -0.485000 -0.015000 -0.500000
v -0.500000 -0.015000 -0.485000
v -0.485000 -0.004393 -0.495607
v -0.493660 -0.006340 -0.493660
v -0.495607 -0.015000 -0.495607
v -0.495607 -0.004393 -0.485000
v -0.015000 -0.985000 -0.500000
v 0.000000 -0.985000 -0.485000
v -0.015000 -1.000000 -0.485000
v -0.004393 -0.985000 -0.495607
v -0.006340 -0.993660 -0.493660
v -0.004393 -0.995607 -0.485000
v -0.015000 -0.995607 -0.495607
v -0.015000 -0.015000 -0.500000
v -0.015000 0.000000 -0.485000
v 0.000000 -0.015000 -0.485000
v -0.015000 -0.004393 -0.495607
v -0.006340 -0.006340 -0.493660
v -0.004393 -0.004393 -0.485000
v -0.004393 -0.015000 -0.495607
v -0.500000 -0.985000 -0.015000
v -0.485000 -1.000000 -0.015000
v -0.485000 -0.985000 0.000000
v -0.495607 -0.995607 -0.015000
v -0.493660 -0.993660 -0.006340
v -0.485000 -0.995607 -0.004393
v -0.495607 -0.985000 -0.004393
v -0.500000 -0.015000 -0.015000
v -0.485000 -0.015000 0.000000
v -0.485000 0.000000 -0.015000
v -0.495607 -0.015000 -0.004393
v -0.493660 -0.006340 -0.006340
v -0.485000 -0.004393 -0.004393
v -0.495607 -0.004393 -0.015000
v 0.000000 -0.015000 -0.015000
v -0.015000 0.000000 -0.015000
v -0.015000 -0.015000 0.000000
v -0.004393 -0.004393 -0.015000
v -0.006340 -0.006340 -0.006340
v -0.015000 -0.004393 -0.004393
v -0.004393 -0.015000 -0.004393
v 0.000000 -0.985000 -0.015000
v -0.015000 -0.985000 0.000000
v -0.015000 -1.000000 -0.015000
v -0.004393 -0.985000 -0.004393
v -0.006340 -0.993660 -0.006340
v -0.015000 -0.995607 -0.004393
v -0.004393 -0.995607 -0.015000
v -0.485000 -0.985000 0.500000
v -0.500000 -0.985000 0.485000
v -0.485000 -1.000000 0.485000
v -0.495607 -0.985000 0.495607
v -0.493660 -0.993660 0.493660
v -0.495607 -0.995607 0.485000
v -0.485000 -0.995607 0.495607
v -0.485000 0.000000 0.485000
v -0.500000 -0.015000 0.485000
v -0.485000 -0.015000 0.500000
v -0.495607 -0.004393 0.485000
v -0.493660 -0.006340 0.493660
v -0.495607 -0.015000 0.495607
v -0.485000 -0.004393 0.495607
v -0.015000 -1.000000 0.485000
v 0.000000 -0.985000 0.485000
v -0.015000 -0.985000 0.500000
v -0.004393 -0.995607 0.485000
v -0.006340 -0.993660 0.493660
v -0.004393 -0.985000 0.495607
v -0.015000 -0.995607 0.495607
v -0.015000 0.000000 0.485000
v -0.015000 -0.015000 0.500000
v 0.000000 -0.015000 0.485000
v -0.015000 -0.004393 0.495607
v -0.006340 -0.006340 0.493660
v -0.004393 -0.015000 0.495607
v -0.004393 -0.004393 0.485000
v -0.500000 -0.985000 0.015000
v -0.485000 -0.985000 0.000000
v -0.485000 -1.000000 0.015000
v -0.495607 -0.985000 0.004393
v -0.493660 -0.993660 0.006340
v -0.485000 -0.995607 0.004393
v -0.495607 -0.995607 0.015000
v -0.500000 -0.015000 0.015000
v -0.485000 0.000000 0.015000
v -0.485000 -0.015000 0.000000
v -0.495607 -0.004393 0.015000
v -0.493660 -0.006340 0.006340
v -0.485000 -0.004393 0.004393
v -0.495607 -0.015000 0.004393
v 0.000000 -0.015000 0.015000
v -0.015000 -0.015000 0.000000
v -0.015000 0.000000 0.015000
v -0.004393 -0.015000 0.004393
v -0.006340 -0.006340 0.006340
v -0.015000 -0.004393 0.004393
v -0.004393 -0.004393 0.015000
v 0.000000 -0.985000 0.015000
v -0.015000 -1.000000 0.015000
v -0.015000 -0.985000 0.000000
v -0.004393 -0.995607 0.015000
v -0.006340 -0.993660 0.006340
v -0.015000 -0.995607 0.004393
v -0.004393 -0.985000 0.004393
v 0.485000 -1.000000 -0.485000
v 0.485000 -0.985000 -0.500000
v 0.500000 -0.985000 -0.485000
v 0.485000 -0.995607 -0.495607
v 0.493660 -0.993660 -0.493660
v 0.495607 -0.985000 -0.495607
v 0.495607 -0.995607 -0.485000
v 0.500000 -0.015000 -0.485000
v 0.485000 -0.015000 -0.500000
v 0.485000 0.000000 -0.485000
v 0.495607 -0.015000 -0.495607
v 0.493660 -0.006340 -0.493660
v 0.485000 -0.004393 -0.495607
v 0.495607 -0.004393 -0.485000
v 0.500000 -0.985000 0.485000
v 0.485000 -0.985000 0.500000
v 0.485000 -1.000000 0.485000
v 0.495607 -0.985000 0.495607
v 0.493660 -0.993660 0.493660
v 0.485000 -0.995607 0.495607
v 0.495607 -0.995607 0.485000
v 0.485000 0.000000 0.485000
v 0.485000 -0.015000 0.500000
v 0.500000 -0.015000 0.485000
v 0.485000 -0.004393 0.495607
v 0.493660 -0.006340 0.493660
v 0.495607 -0.015000 0.495607
v 0.495607 -0.004393 0.485000
v 0.015000 -1.000000 0.485000
v 0.015000 -0.985000 0.500000
v 0.000000 -0.985000 0.485000
v 0.015000 -0.995607 0.495607
v 0.006340 -0.993660 0.493660
v 0.004393 -0.985000 0.495607
v 0.004393 -0.995607 0.485000
v 0.015000 0.000000 0.485000
v 0.000000 -0.015000 0.485000
v 0.015000 -0.015000 0.500000
v 0.004393 -0.004393 0.485000
v 0.006340 -0.006340 0.493660
v 0.004393 -0.015000 0.495607
v 0.015000 -0.004393 0.495607
v 0.015000 -0.985000 -0.500000
v 0.015000 -1.000000 -0.485000
v 0.000000 -0.985000 -0.485000
v 0.015000 -0.995607 -0.495607
v 0.006340 -0.993660 -0.493660
v 0.004393 -0.995607 -0.485000
v 0.004393 -0.985000 -0.495607
v 0.015000 -0.015000 -0.500000
v 0.000000 -0.015000 -0.485000
v 0.015000 0.000000 -0.485000
v 0.004393 -0.015000 -0.495607
v 0.006340 -0.006340 -0.493660
v 0.004393 -0.004393 -0.485000
v 0.015000 -0.004393 -0.495607
v 0.500000 -0.985000 0.000000
v 0.485000 -1.000000 0.000000
v 0.495607 -0.995607 0.000000
v 0.500000 -0.015000 0.000000
v 0.485000 0.000000 0.000000
v 0.495607 -0.004393 0.000000
v 0.000000 -0.015000 0.000000
v 0.015000 0.000000 0.000000
v 0.004393 -0.004393 0.000000
v 0.015000 -1.000000 0.000000
v 0.000000 -0.985000 0.000000
v 0.004393 -0.995607 0.000000
vn -0.1794 0.9673 0.1794
vn 0.1794 0.9673 0.1794
vn 0.1794 0.9673 -0.1794
vn -0.1794 0.9673 -0.1794
vn -0.9673 -0.1794 0.1794
vn -0.9673 0.1794 0.1794
vn -0.9673 0.1794 -0.1794
vn -0.9673 -0.1794 -0.1794
vn 0.9673 -0.1794 0.1794
vn 0.9673 -0.1794 -0.1794
vn 0.9673 0.1794 -0.1794
vn 0.9673 0.1794 0.1794
vn 0.1794 -0.9673 0.1794
vn -0.1794 -0.9673 0.1794
vn -0.1794 -0.9673 -0.1794
vn 0.1794 -0.9673 -0.1794
vn -0.1794 -0.1794 0.9673
vn 0.1794 -0.1794 0.9673
vn 0.1794 0.1794 0.9673
vn -0.1794 0.1794 0.9673
vn 0.9808 0.1951 -0.0000
vn 0.9808 -0.1951 -0.0000
vn 0.1794 -0.1794 -0.9673
vn -0.1794 -0.1794 -0.9673
vn -0.1794 0.1794 -0.9673
vn 0.1794 0.1794 -0.9673
vn 0.1951 0.9808 -0.0000
vn -0.1951 0.9808 -0.0000
vn 0.1951 -0.9808 -0.0000
vn -0.1951 -0.9808 -0.0000
vn -0.9808 0.1951 -0.0000
vn -0.9808 -0.1951 -0.0000
vn -0.9194 -0.1585 -0.3600
vn -0.8881 -0.3251 -0.3251
vn -0.9194 -0.3600 -0.1585
vn -0.1585 -0.3600 -0.9194
vn -0.3251 -0.3251 -0.8881
vn -0.3600 -0.1585 -0.9194
vn -0.3600 -0.9194 -0.1585
vn -0.3251 -0.8881 -0.3251
vn -0.1585 -0.9194 -0.3600
vn -0.1585 0.9194 -0.3600
vn -0.3251 0.8881 -0.3251
vn -0.3600 0.9194 -0.1585
vn -0.3600 0.1585 -0.9194
vn -0.3251 0.3251 -0.8881
vn -0.1585 0.3600 -0.9194
vn -0.9194 0.3600 -0.1585
vn -0.8881 0.3251 -0.3251
vn -0.9194 0.1585 -0.3600
vn 0.3600 -0.1585 -0.9194
vn 0.3251 -0.3251 -0.8881
vn 0.1585 -0.3600 -0.9194
vn 0.9194 -0.3600 -0.1585
vn 0.8881 -0.3251 -0.3251
vn 0.9194 -0.1585 -0.3600
vn 0.1585 -0.9194 -0.3600
vn 0.3251 -0.8881 -0.3251
vn 0.3600 -0.9194 -0.1585
vn 0.1585 0.3600 -0.9194
vn 0.3251 0.3251 -0.8881
vn 0.3600 0.1585 -0.9194
vn 0.3600 0.9194 -0.1585
vn 0.3251 0.8881 -0.3251
vn 0.1585 0.9194 -0.3600
vn 0.9194 0.1585 -0.3600
vn 0.8881 0.3251 -0.3251
vn 0.9194 0.3600 -0.1585
vn -0.9194 -0.3600 0.1585
vn -0.8881 -0.3251 0.3251
vn -0.9194 -0.1585 0.3600
vn -0.1585 -0.9194 0.3600
vn -0.3251 -0.8881 0.3251
vn -0.3600 -0.9194 0.1585
vn -0.3600 -0.1585 0.9194
vn -0.3251 -0.3251 0.8881
vn -0.1585 -0.3600 0.9194
vn -0.9194 0.1585 0.3600
vn -0.8881 0.3251 0.3251
vn -0.9194 0.3600 0.1585
vn -0.1585 0.3600 0.9194
vn -0.3251 0.3251 0.8881
vn -0.3600 0.1585 0.9194
vn -0.3600 0.9194 0.1585
vn -0.3251 0.8881 0.3251
vn -0.1585 0.9194 0.3600
vn 0.9194 0.3600 0.1585
vn 0.8881 0.3251 0.3251
vn 0.9194 0.1585 0.3600
vn 0.1585 0.9194 0.3600
vn 0.3251 0.8881 0.3251
vn 0.3600 0.9194 0.1585
vn 0.3600 0.1585 0.9194
vn 0.3251 0.3251 0.8881
vn 0.1585 0.3600 0.9194
vn 0.9194 -0.1585 0.3600
vn 0.8881 -0.3251 0.3251
vn 0.9194 -0.3600 0.1585
vn 0.1585 -0.3600 0.9194
vn 0.3251 -0.3251 0.8881
vn 0.3600 -0.1585 0.9194
vn 0.3600 -0.9194 0.1585
vn 0.3251 -0.8881 0.3251
vn 0.1585 -0.9194 0.3600
vn 0.3827 -0.9239 -0.0000
vn 0.9239 -0.3827 -0.0000
vn 0.3827 0.9239 -0.0000
vn 0.9239 0.3827 -0.0000
vn -0.3827 0.9239 -0.0000
vn -0.9239 0.3827 -0.0000
vn -0.9239 -0.3827 -0.0000
vn -0.3827 -0.9239 -0.0000
vt 0.628750 0.628750
vt 0.746250 0.628750
vt 0.746250 0.746250
vt 0.628750 0.746250
vt 0.378750 0.628750
vt 0.621250 0.628750
vt 0.621250 0.746250
vt 0.378750 0.746250
vt 0.000000 0.000000
vt 0.253750 0.628750
vt 0.371250 0.628750
vt 0.371250 0.746250
vt 0.253750 0.746250
vt 0.378750 0.503750
vt 0.621250 0.503750
vt 0.621250 0.621250
vt 0.378750 0.621250
vt 0.628750 0.503750
vt 0.746250 0.503750
vt 0.746250 0.621250
vt 0.628750 0.621250
vt 0.378750 0.378750
vt 0.621250 0.378750
vt 0.621250 0.496250
vt 0.378750 0.496250
vt 0.253750 0.503750
vt 0.371250 0.503750
vt 0.371250 0.621250
vt 0.253750 0.621250
vt 0.378750 0.003750
vt 0.621250 0.003750
vt 0.621250 0.125000
vt 0.378750 0.125000
vt 0.753750 0.503750
vt 0.871250 0.503750
vt 0.871250 0.625000
vt 0.753750 0.625000
vt 0.128750 0.625000
vt 0.246250 0.625000
vt 0.246250 0.746250
vt 0.128750 0.746250
vt 0.378750 0.253750
vt 0.621250 0.253750
vt 0.621250 0.371250
vt 0.378750 0.371250
vt 0.871250 0.746250
vt 0.753750 0.746250
vt 0.128750 0.503750
vt 0.246250 0.503750
vt 0.621250 0.246250
vt 0.378750 0.246250
vt 0.378750 0.878750
vt 0.621250 0.878750
vt 0.621250 0.996250
vt 0.378750 0.996250
vt 0.378750 0.750000
vt 0.375528 0.750000
vt 0.375000 0.746250
vt 0.378750 0.753750
vt 0.375000 0.753750
vt 0.371250 0.750000
vt 0.628750 0.750000
vt 0.625000 0.749472
vt 0.625000 0.746250
vt 0.621250 0.753750
vt 0.621250 0.750000
vt 0.625000 0.753750
vt 0.378750 0.871250
vt 0.378750 0.875000
vt 0.376585 0.875000
vt 0.375000 0.871250
vt 0.253750 0.750000
vt 0.251585 0.750000
vt 0.250000 0.746250
vt 0.621250 0.871250
vt 0.625000 0.871250
vt 0.625000 0.873415
vt 0.621250 0.875000
vt 0.750000 0.746250
vt 0.750000 0.748415
vt 0.746250 0.750000
vt 0.375000 0.628750
vt 0.375000 0.626585
vt 0.378750 0.625000
vt 0.371250 0.625000
vt 0.373415 0.625000
vt 0.621250 0.625000
vt 0.623415 0.625000
vt 0.625000 0.628750
vt 0.625000 0.626585
vt 0.628750 0.625000
vt 0.746250 0.625000
vt 0.748415 0.625000
vt 0.750000 0.628750
vt 0.250000 0.628750
vt 0.250000 0.626585
vt 0.253750 0.625000
vt 0.378750 0.500000
vt 0.375000 0.500528
vt 0.375000 0.496250
vt 0.375000 0.503750
vt 0.371250 0.500000
vt 0.625000 0.503750
vt 0.624472 0.500000
vt 0.628750 0.500000
vt 0.621250 0.500000
vt 0.625000 0.496250
vt 0.250000 0.503750
vt 0.250000 0.501585
vt 0.253750 0.500000
vt 0.375000 0.378750
vt 0.375000 0.376585
vt 0.378750 0.375000
vt 0.746250 0.500000
vt 0.748415 0.500000
vt 0.750000 0.503750
vt 0.621250 0.375000
vt 0.623415 0.375000
vt 0.625000 0.378750
vt 0.376585 0.625000
vt 0.375000 0.621250
vt 0.375000 0.623415
vt 0.625000 0.621250
vt 0.625000 0.623415
vt 0.626585 0.625000
vt 0.750000 0.621250
vt 0.750000 0.623415
vt 0.746250 0.625000
vt 0.251585 0.625000
vt 0.250000 0.621250
vt 0.128750 0.750000
vt 0.126585 0.750000
vt 0.125000 0.746250
vt 0.378750 1.000000
vt 0.376585 1.000000
vt 0.375000 0.996250
vt 0.375000 0.003750
vt 0.375000 0.001585
vt 0.378750 0.000000
vt 0.621250 0.000000
vt 0.623415 0.000000
vt 0.625000 0.003750
vt 0.625000 0.996250
vt 0.625000 0.998415
vt 0.621250 1.000000
vt 0.875000 0.746250
vt 0.875000 0.748415
vt 0.871250 0.750000
vt 0.378750 0.250000
vt 0.376585 0.250000
vt 0.375000 0.246250
vt 0.375000 0.253750
vt 0.375000 0.251585
vt 0.125000 0.503750
vt 0.125000 0.501585
vt 0.128750 0.500000
vt 0.871250 0.500000
vt 0.873415 0.500000
vt 0.875000 0.503750
vt 0.621250 0.250000
vt 0.623415 0.250000
vt 0.625000 0.253750
vt 0.625000 0.246250
vt 0.625000 0.248415
vt 0.246250 0.500000
vt 0.248415 0.500000
vt 0.376585 0.375000
vt 0.375000 0.371250
vt 0.750000 0.501585
vt 0.753750 0.500000
vt 0.625000 0.371250
vt 0.625000 0.373415
vt 0.375000 0.878750
vt 0.375000 0.876585
vt 0.250000 0.748415
vt 0.246250 0.750000
vt 0.623415 0.875000
vt 0.625000 0.878750
vt 0.753750 0.750000
vt 0.751585 0.750000
vt 0.125000 0.625000
vt 0.375000 0.125000
vt 0.875000 0.625000
vt 0.625000 0.125000
vt 0.750000 0.625000
vt 0.250000 0.625000
s 1
usemtl TEMPLE_BASE
f 38/1/1 44/2/2 23/3/3 8/4/4
s 2
f 29/5/5 36/6/6 10/7/7 1/8/8
s 3
f 50/9/9 16/9/10 24/9/11 43/9/12
s 4
f 52/10/13 30/11/14 3/12/15 17/13/16
s 5
f 31/9/17 51/9/18 45/9/19 37/9/20
s 11
f 115/30/10 120/31/11 172/32/21 169/33/22
s 13
f 148/34/1 134/35/2 173/36/27 176/37/28
s 14
f 170/38/29 178/39/30 156/40/15 113/41/16
s 15
f 128/42/18 135/43/19 150/44/20 142/45/17
s 13
f 176/37/28 173/36/27 122/46/3 164/47/4
s 14
f 129/48/13 141/49/14 178/39/30 170/38/29
s 11
f 169/33/22 172/32/21 136/50/12 127/51/9
s 16
f 149/9/6 175/9/31 179/9/32 143/9/5
s 17
f 155/52/24 162/53/25 121/54/26 114/55/23
s 16
f 175/9/31 163/9/7 157/9/8 179/9/32
s 2
f 1/8/8 4/56/33 5/57/34 7/58/35
s 18
f 2/59/24 6/60/36 5/57/37 4/56/38
s 4
f 3/12/15 7/58/39 5/57/40 6/61/41
s 1
f 8/4/4 11/62/42 12/63/43 14/64/44
s 18
f 9/65/25 13/66/45 12/63/46 11/67/47
s 2
f 10/7/7 14/64/48 12/63/49 13/66/50
s 18
f 15/68/23 18/69/51 19/70/52 21/71/53
s 3
f 16/9/10 20/9/54 19/9/55 18/9/56
s 4
f 17/13/16 21/72/57 19/73/58 20/74/59
s 18
f 22/75/26 25/76/60 26/77/61 28/78/62
s 1
f 23/3/3 27/79/63 26/80/64 25/81/65
s 3
f 24/9/11 28/9/66 26/9/67 27/9/68
s 2
f 29/5/5 32/82/69 33/83/70 35/84/71
s 4
f 30/11/14 34/85/72 33/86/73 32/82/74
s 5
f 31/9/17 35/9/75 33/9/76 34/9/77
s 2
f 36/6/6 39/87/78 40/88/79 42/89/80
s 5
f 37/9/20 41/9/81 40/9/82 39/9/83
s 1
f 38/1/1 42/89/84 40/90/85 41/91/86
s 3
f 43/9/12 46/9/87 47/9/88 49/9/89
s 1
f 44/2/2 48/92/90 47/93/91 46/94/92
s 5
f 45/9/19 49/9/93 47/9/94 48/9/95
s 3
f 50/9/9 53/9/96 54/9/97 56/9/98
s 5
f 51/9/18 55/9/99 54/9/100 53/9/101
s 4
f 52/10/13 56/95/102 54/96/103 55/97/104
s 14
f 113/41/16 116/131/57 117/132/58 119/133/59
s 17
f 114/55/23 118/134/51 117/135/52 116/136/53
s 11
f 115/30/10 119/137/54 117/138/55 118/139/56
f 120/31/11 123/140/66 124/141/67 126/142/68
s 17
f 121/54/26 125/143/60 124/144/61 123/145/62
s 13
f 122/46/3 126/146/63 124/147/64 125/148/65
s 11
f 127/51/9 130/149/96 131/150/97 133/151/98
s 15
f 128/42/18 132/152/99 131/153/100 130/149/101
s 14
f 129/48/13 133/154/102 131/155/103 132/156/104
s 13
f 134/35/2 137/157/90 138/158/91 140/159/92
s 15
f 135/43/19 139/160/93 138/161/94 137/162/95
s 11
f 136/50/12 140/163/87 138/164/88 139/160/89
s 14
f 141/49/14 144/165/72 145/166/73 147/108/74
s 15
f 142/45/17 146/113/75 145/167/76 144/168/77
s 16
f 143/9/5 147/9/69 145/9/70 146/9/71
s 13
f 148/34/1 151/116/84 152/169/85 154/170/86
s 16
f 149/9/6 153/9/78 152/9/79 151/9/80
s 15
f 150/44/20 154/171/81 152/172/82 153/117/83
s 17
f 155/52/24 158/173/36 159/174/37 161/69/38
s 14
f 156/40/15 160/74/39 159/175/40 158/176/41
s 16
f 157/9/8 161/9/33 159/9/34 160/9/35
s 17
f 162/53/25 165/78/45 166/177/46 168/178/47
s 16
f 163/9/7 167/9/48 166/9/49 165/9/50
s 13
f 164/47/4 168/179/42 166/180/43 167/79/44
s 1
f 38/1/1 8/4/4 14/64/44 42/89/84
s 2
f 42/89/80 14/64/48 10/7/7 36/6/6
s 18
f 9/65/25 2/59/24 4/56/38 13/66/45
s 2
f 13/66/50 4/56/33 1/8/8 10/7/7
s 4
f 17/13/16 3/12/15 6/61/41 21/72/57
s 18
f 21/71/53 6/60/36 2/59/24 15/68/23
s 1
f 8/4/4 23/3/3 25/81/65 11/62/42
s 18
f 11/67/47 25/76/60 22/75/26 9/65/25
s 3
f 43/9/12 24/9/11 27/9/68 46/9/87
s 1
f 46/94/92 27/79/63 23/3/3 44/2/2
s 4
f 52/10/13 17/13/16 20/74/59 56/95/102
s 3
f 56/9/98 20/9/54 16/9/10 50/9/9
f 24/9/11 16/9/10 18/9/56 28/9/66
s 18
f 28/78/62 18/69/51 15/68/23 22/75/26
s 4
f 3/12/15 30/11/14 32/82/74 7/58/39
s 2
f 7/58/35 32/82/69 29/5/5 1/8/8
s 1
f 44/2/2 38/1/1 41/91/86 48/92/90
s 5
f 48/9/95 41/9/81 37/9/20 45/9/19
s 4
f 30/11/14 52/10/13 55/97/104 34/85/72
s 5
f 34/9/77 55/9/99 51/9/18 31/9/17
s 2
f 36/6/6 29/5/5 35/84/71 39/87/78
s 5
f 39/9/83 35/9/75 31/9/17 37/9/20
f 45/9/19 51/9/18 53/9/101 49/9/93
s 3
f 49/9/89 53/9/96 50/9/9 43/9/12
s 14
f 170/38/29 113/41/16 119/133/59 171/181/105
s 11
f 171/182/106 119/137/54 115/30/10 169/33/22
s 17
f 114/55/23 121/54/26 123/145/62 118/134/51
s 11
f 118/139/56 123/140/66 120/31/11 115/30/10
s 13
f 173/36/27 134/35/2 140/159/92 174/183/107
s 11
f 174/184/108 140/163/87 136/50/12 172/32/21
s 15
f 135/43/19 128/42/18 130/149/101 139/160/93
s 11
f 139/160/89 130/149/96 127/51/9 136/50/12
s 14
f 141/49/14 129/48/13 132/156/104 144/165/72
s 15
f 144/168/77 132/152/99 128/42/18 142/45/17
s 13
f 164/47/4 122/46/3 125/148/65 168/179/42
s 17
f 168/178/47 125/143/60 121/54/26 162/53/25
s 13
f 134/35/2 148/34/1 154/170/86 137/157/90
s 15
f 137/162/95 154/171/81 150/44/20 135/43/19
s 14
f 113/41/16 156/40/15 158/176/41 116/131/57
s 17
f 116/136/53 158/173/36 155/52/24 114/55/23
s 13
f 176/37/28 164/47/4 167/79/44 177/185/109
s 16
f 177/9/110 167/9/48 163/9/7 175/9/31
f 179/9/32 157/9/8 160/9/35 180/9/111
s 14
f 180/186/112 160/74/39 156/40/15 178/39/30
s 17
f 162/53/25 155/52/24 161/69/38 165/78/45
s 16
f 165/9/50 161/9/33 157/9/8 163/9/7
f 149/9/6 143/9/5 146/9/71 153/9/78
s 15
f 153/117/83 146/113/75 142/45/17 150/44/20
s 14
f 129/48/13 170/38/29 171/181/105 133/154/102
s 11
f 133/151/98 171/182/106 169/33/22 127/51/9
s 13
f 122/46/3 173/36/27 174/183/107 126/146/63
s 11
f 126/142/68 174/184/108 172/32/21 120/31/11
s 13
f 148/34/1 176/37/28 177/185/109 151/116/84
s 16
f 151/9/80 177/9/110 175/9/31 149/9/6
f 143/9/5 179/9/32 180/9/111 147/9/69
s 14
f 147/108/74 180/186/112 178/39/30 141/49/14
s 18
f 2/59/24 9/65/25 22/75/26 15/68/23
s 6
usemtl TEMPLE_DARK
f 58/14/5 65/15/6 92/16/7 85/17/8
s 7
f 64/18/1 78/19/2 101/20/3 93/21/4
s 8
f 72/9/9 106/9/10 99/9/11 80/9/12
s 9
f 73/22/18 79/23/19 66/24/20 57/25/17
s 10
f 71/26/13 59/27/14 87/28/15 107/29/16
s 12
f 108/9/23 86/9/24 94/9/25 100/9/26
s 9
f 57/25/17 60/98/75 61/99/76 63/100/77
s 6
f 58/14/5 62/101/69 61/99/70 60/98/71
s 10
f 59/27/14 63/102/72 61/99/73 62/101/74
s 7
f 64/18/1 67/103/84 68/104/85 70/105/86
s 6
f 65/15/6 69/106/78 68/104/79 67/103/80
s 9
f 66/24/20 70/107/81 68/104/82 69/106/83
s 10
f 71/26/13 74/108/102 75/109/103 77/110/104
s 8
f 72/9/9 76/9/96 75/9/97 74/9/98
s 9
f 73/22/18 77/111/99 75/112/100 76/113/101
s 7
f 78/19/2 81/114/90 82/115/91 84/116/92
s 9
f 79/23/19 83/117/93 82/118/94 81/119/95
s 8
f 80/9/12 84/9/87 82/9/88 83/9/89
s 6
f 85/17/8 88/84/33 89/120/34 91/121/35
s 12
f 86/9/24 90/9/36 89/9/37 88/9/38
s 10
f 87/28/15 91/121/39 89/122/40 90/85/41
s 6
f 92/16/7 95/123/48 96/124/49 98/87/50
s 7
f 93/21/4 97/91/42 96/125/43 95/123/44
s 12
f 94/9/25 98/9/45 96/9/46 97/9/47
s 8
f 99/9/11 102/9/66 103/9/67 105/9/68
s 12
f 100/9/26 104/9/60 103/9/61 102/9/62
s 7
f 101/20/3 105/126/63 103/127/64 104/128/65
s 8
f 106/9/10 109/9/54 110/9/55 112/9/56
s 10
f 107/29/16 111/97/57 110/129/58 109/130/59
s 12
f 108/9/23 112/9/51 110/9/52 111/9/53
s 7
f 78/19/2 64/18/1 70/105/86 81/114/90
s 9
f 81/119/95 70/107/81 66/24/20 79/23/19
s 6
f 65/15/6 58/14/5 60/98/71 69/106/78
s 9
f 69/106/83 60/98/75 57/25/17 66/24/20
s 10
f 87/28/15 59/27/14 62/101/74 91/121/39
s 6
f 91/121/35 62/101/69 58/14/5 85/17/8
s 10
f 59/27/14 71/26/13 77/110/104 63/102/72
s 9
f 63/100/77 77/111/99 73/22/18 57/25/17
f 79/23/19 73/22/18 76/113/101 83/117/93
s 8
f 83/9/89 76/9/96 72/9/9 80/9/12
s 7
f 64/18/1 93/21/4 95/123/44 67/103/84
s 6
f 67/103/80 95/123/48 92/16/7 65/15/6
s 8
f 80/9/12 99/9/11 105/9/68 84/9/87
s 7
f 84/116/92 105/126/63 101/20/3 78/19/2
s 10
f 71/26/13 107/29/16 109/130/59 74/108/102
s 8
f 74/9/98 109/9/54 106/9/10 72/9/9
s 12
f 100/9/26 94/9/25 97/9/47 104/9/60
s 7
f 104/128/65 97/91/42 93/21/4 101/20/3
s 12
f 86/9/24 108/9/23 111/9/53 90/9/36
s 10
f 90/85/41 111/97/57 107/29/16 87/28/15
s 12
f 94/9/25 86/9/24 88/9/38 98/9/45
s 6
f 98/87/50 88/84/33 85/17/8 92/16/7
s 8
f 99/9/11 106/9/10 112/9/56 102/9/66
s 12
f 102/9/62 112/9/51 108/9/23 100/9/26
