# Blender 4.4.3
# www.blender.org
mtllib TEMPLE_GROUND_003.mtl
o TEMPLE_GROUND_003
v -0.485000 -0.985000 0.500000
v -0.500000 -0.985000 0.485000
v -0.485000 -1.000000 0.485000
v -0.495607 -0.985000 0.495607
v -0.493660 -0.993660 0.493660
v -0.495607 -0.995607 0.485000
v -0.485000 -0.995607 0.495607
v -0.485000 0.000000 0.485000
v -0.500000 -0.015000 0.485000
v -0.485000 -0.015000 0.500000
v -0.495607 -0.004393 0.485000
v -0.493660 -0.006340 0.493660
v -0.495607 -0.015000 0.495607
v -0.485000 -0.004393 0.495607
v -0.015000 -1.000000 0.485000
v 0.000000 -0.985000 0.485000
v -0.015000 -0.985000 0.500000
v -0.004393 -0.995607 0.485000
v -0.006340 -0.993660 0.493660
v -0.004393 -0.985000 0.495607
v -0.015000 -0.995607 0.495607
v -0.015000 0.000000 0.485000
v -0.015000 -0.015000 0.500000
v 0.000000 -0.015000 0.485000
v -0.015000 -0.004393 0.495607
v -0.006340 -0.006340 0.493660
v -0.004393 -0.015000 0.495607
v -0.004393 -0.004393 0.485000
v -0.500000 -0.985000 0.015000
v -0.485000 -0.985000 0.000000
v -0.485000 -1.000000 0.015000
v -0.495607 -0.985000 0.004393
v -0.493660 -0.993660 0.006340
v -0.485000 -0.995607 0.004393
v -0.495607 -0.995607 0.015000
v -0.500000 -0.015000 0.015000
v -0.485000 0.000000 0.015000
v -0.485000 -0.015000 0.000000
v -0.495607 -0.004393 0.015000
v -0.493660 -0.006340 0.006340
v -0.485000 -0.004393 0.004393
v -0.495607 -0.015000 0.004393
v 0.000000 -0.015000 0.015000
v -0.015000 -0.015000 0.000000
v -0.015000 0.000000 0.015000
v -0.004393 -0.015000 0.004393
v -0.006340 -0.006340 0.006340
v -0.015000 -0.004393 0.004393
v -0.004393 -0.004393 0.015000
v 0.000000 -0.985000 0.015000
v -0.015000 -1.000000 0.015000
v -0.015000 -0.985000 0.000000
v -0.004393 -0.995607 0.015000
v -0.006340 -0.993660 0.006340
v -0.015000 -0.995607 0.004393
v -0.004393 -0.985000 0.004393
v 0.015000 -0.985000 0.500000
v 0.000000 -0.985000 0.485000
v 0.015000 -1.000000 0.485000
v 0.004393 -0.985000 0.495607
v 0.006340 -0.993660 0.493660
v 0.004393 -0.995607 0.485000
v 0.015000 -0.995607 0.495607
v 0.015000 0.000000 0.485000
v 0.000000 -0.015000 0.485000
v 0.015000 -0.015000 0.500000
v 0.004393 -0.004393 0.485000
v 0.006340 -0.006340 0.493660
v 0.004393 -0.015000 0.495607
v 0.015000 -0.004393 0.495607
v 0.485000 -1.000000 0.485000
v 0.500000 -0.985000 0.485000
v 0.485000 -0.985000 0.500000
v 0.495607 -0.995607 0.485000
v 0.493660 -0.993660 0.493660
v 0.495607 -0.985000 0.495607
v 0.485000 -0.995607 0.495607
v 0.485000 0.000000 0.485000
v 0.485000 -0.015000 0.500000
v 0.500000 -0.015000 0.485000
v 0.485000 -0.004393 0.495607
v 0.493660 -0.006340 0.493660
v 0.495607 -0.015000 0.495607
v 0.495607 -0.004393 0.485000
v 0.000000 -0.985000 0.015000
v 0.015000 -0.985000 0.000000
v 0.015000 -1.000000 0.015000
v 0.004393 -0.985000 0.004393
v 0.006340 -0.993660 0.006340
v 0.015000 -0.995607 0.004393
v 0.004393 -0.995607 0.015000
v 0.000000 -0.015000 0.015000
v 0.015000 0.000000 0.015000
v 0.015000 -0.015000 0.000000
v 0.004393 -0.004393 0.015000
v 0.006340 -0.006340 0.006340
v 0.015000 -0.004393 0.004393
v 0.004393 -0.015000 0.004393
v 0.500000 -0.015000 0.015000
v 0.485000 -0.015000 0.000000
v 0.485000 0.000000 0.015000
v 0.495607 -0.015000 0.004393
v 0.493660 -0.006340 0.006340
v 0.485000 -0.004393 0.004393
v 0.495607 -0.004393 0.015000
v 0.500000 -0.985000 0.015000
v 0.485000 -1.000000 0.015000
v 0.485000 -0.985000 0.000000
v 0.495607 -0.995607 0.015000
v 0.493660 -0.993660 0.006340
v 0.485000 -0.995607 0.004393
v 0.495607 -0.985000 0.004393
v 0.000000 -0.985000 -0.485000
v 0.015000 -0.985000 -0.500000
v 0.015000 -1.000000 -0.485000
v 0.004393 -0.985000 -0.495607
v 0.006340 -0.993660 -0.493660
v 0.015000 -0.995607 -0.495607
v 0.004393 -0.995607 -0.485000
v 0.015000 0.000000 -0.485000
v 0.015000 -0.015000 -0.500000
v 0.000000 -0.015000 -0.485000
v 0.015000 -0.004393 -0.495607
v 0.006340 -0.006340 -0.493660
v 0.004393 -0.015000 -0.495607
v 0.004393 -0.004393 -0.485000
v 0.485000 -0.985000 -0.500000
v 0.500000 -0.985000 -0.485000
v 0.485000 -1.000000 -0.485000
v 0.495607 -0.985000 -0.495607
v 0.493660 -0.993660 -0.493660
v 0.495607 -0.995607 -0.485000
v 0.485000 -0.995607 -0.495607
v 0.485000 -0.015000 -0.500000
v 0.485000 0.000000 -0.485000
v 0.500000 -0.015000 -0.485000
v 0.485000 -0.004393 -0.495607
v 0.493660 -0.006340 -0.493660
v 0.495607 -0.004393 -0.485000
v 0.495607 -0.015000 -0.495607
v 0.000000 -0.985000 -0.015000
v 0.015000 -1.000000 -0.015000
v 0.015000 -0.985000 0.000000
v 0.004393 -0.995607 -0.015000
v 0.006340 -0.993660 -0.006340
v 0.015000 -0.995607 -0.004393
v 0.004393 -0.985000 -0.004393
v 0.000000 -0.015000 -0.015000
v 0.015000 -0.015000 0.000000
v 0.015000 0.000000 -0.015000
v 0.004393 -0.015000 -0.004393
v 0.006340 -0.006340 -0.006340
v 0.015000 -0.004393 -0.004393
v 0.004393 -0.004393 -0.015000
v 0.500000 -0.015000 -0.015000
v 0.485000 0.000000 -0.015000
v 0.485000 -0.015000 0.000000
v 0.495607 -0.004393 -0.015000
v 0.493660 -0.006340 -0.006340
v 0.485000 -0.004393 -0.004393
v 0.495607 -0.015000 -0.004393
v 0.500000 -0.985000 -0.015000
v 0.485000 -0.985000 0.000000
v 0.485000 -1.000000 -0.015000
v 0.495607 -0.985000 -0.004393
v 0.493660 -0.993660 -0.006340
v 0.485000 -0.995607 -0.004393
v 0.495607 -0.995607 -0.015000
v -0.500000 -0.985000 -0.485000
v -0.485000 -0.985000 -0.500000
v -0.485000 -1.000000 -0.485000
v -0.495607 -0.985000 -0.495607
v -0.493660 -0.993660 -0.493660
v -0.485000 -0.995607 -0.495607
v -0.495607 -0.995607 -0.485000
v -0.485000 0.000000 -0.485000
v -0.485000 -0.015000 -0.500000
v -0.500000 -0.015000 -0.485000
v -0.485000 -0.004393 -0.495607
v -0.493660 -0.006340 -0.493660
v -0.495607 -0.015000 -0.495607
v -0.495607 -0.004393 -0.485000
v -0.015000 -0.985000 -0.500000
v 0.000000 -0.985000 -0.485000
v -0.015000 -1.000000 -0.485000
v -0.004393 -0.985000 -0.495607
v -0.006340 -0.993660 -0.493660
v -0.004393 -0.995607 -0.485000
v -0.015000 -0.995607 -0.495607
v -0.015000 -0.015000 -0.500000
v -0.015000 0.000000 -0.485000
v 0.000000 -0.015000 -0.485000
v -0.015000 -0.004393 -0.495607
v -0.006340 -0.006340 -0.493660
v -0.004393 -0.004393 -0.485000
v -0.004393 -0.015000 -0.495607
v -0.500000 -0.985000 -0.015000
v -0.485000 -1.000000 -0.015000
v -0.485000 -0.985000 0.000000
v -0.495607 -0.995607 -0.015000
v -0.493660 -0.993660 -0.006340
v -0.485000 -0.995607 -0.004393
v -0.495607 -0.985000 -0.004393
v -0.500000 -0.015000 -0.015000
v -0.485000 -0.015000 0.000000
v -0.485000 0.000000 -0.015000
v -0.495607 -0.015000 -0.004393
v -0.493660 -0.006340 -0.006340
v -0.485000 -0.004393 -0.004393
v -0.495607 -0.004393 -0.015000
v 0.000000 -0.015000 -0.015000
v -0.015000 0.000000 -0.015000
v -0.015000 -0.015000 0.000000
v -0.004393 -0.004393 -0.015000
v -0.006340 -0.006340 -0.006340
v -0.015000 -0.004393 -0.004393
v -0.004393 -0.015000 -0.004393
v 0.000000 -0.985000 -0.015000
v -0.015000 -0.985000 0.000000
v -0.015000 -1.000000 -0.015000
v -0.004393 -0.985000 -0.004393
v -0.006340 -0.993660 -0.006340
v -0.015000 -0.995607 -0.004393
v -0.004393 -0.995607 -0.015000
vn -0.1794 0.9673 0.1794
vn 0.1794 0.9673 0.1794
vn 0.1794 0.9673 -0.1794
vn -0.1794 0.9673 -0.1794
vn 0.9673 -0.1794 0.1794
vn 0.9673 -0.1794 -0.1794
vn 0.9673 0.1794 -0.1794
vn 0.9673 0.1794 0.1794
vn 0.1794 -0.1794 0.9673
vn 0.1794 0.1794 0.9673
vn -0.1794 0.1794 0.9673
vn -0.1794 -0.1794 0.9673
vn 0.1794 -0.9673 0.1794
vn -0.1794 -0.9673 0.1794
vn -0.1794 -0.9673 -0.1794
vn 0.1794 -0.9673 -0.1794
vn -0.9673 -0.1794 0.1794
vn -0.9673 0.1794 0.1794
vn -0.9673 0.1794 -0.1794
vn -0.9673 -0.1794 -0.1794
vn 0.1794 -0.1794 -0.9673
vn -0.1794 -0.1794 -0.9673
vn -0.1794 0.1794 -0.9673
vn 0.1794 0.1794 -0.9673
vn -0.3600 -0.1585 0.9194
vn -0.3251 -0.3251 0.8881
vn -0.1585 -0.3600 0.9194
vn -0.9194 -0.3600 0.1585
vn -0.8881 -0.3251 0.3251
vn -0.9194 -0.1585 0.3600
vn -0.1585 -0.9194 0.3600
vn -0.3251 -0.8881 0.3251
vn -0.3600 -0.9194 0.1585
vn -0.3600 0.9194 0.1585
vn -0.3251 0.8881 0.3251
vn -0.1585 0.9194 0.3600
vn -0.9194 0.1585 0.3600
vn -0.8881 0.3251 0.3251
vn -0.9194 0.3600 0.1585
vn -0.1585 0.3600 0.9194
vn -0.3251 0.3251 0.8881
vn -0.3600 0.1585 0.9194
vn 0.3600 -0.9194 0.1585
vn 0.3251 -0.8881 0.3251
vn 0.1585 -0.9194 0.3600
vn 0.9194 -0.1585 0.3600
vn 0.8881 -0.3251 0.3251
vn 0.9194 -0.3600 0.1585
vn 0.1585 -0.3600 0.9194
vn 0.3251 -0.3251 0.8881
vn 0.3600 -0.1585 0.9194
vn 0.1585 0.9194 0.3600
vn 0.3251 0.8881 0.3251
vn 0.3600 0.9194 0.1585
vn 0.3600 0.1585 0.9194
vn 0.3251 0.3251 0.8881
vn 0.1585 0.3600 0.9194
vn 0.9194 0.3600 0.1585
vn 0.8881 0.3251 0.3251
vn 0.9194 0.1585 0.3600
vn -0.9194 -0.1585 -0.3600
vn -0.8881 -0.3251 -0.3251
vn -0.9194 -0.3600 -0.1585
vn -0.1585 -0.3600 -0.9194
vn -0.3251 -0.3251 -0.8881
vn -0.3600 -0.1585 -0.9194
vn -0.3600 -0.9194 -0.1585
vn -0.3251 -0.8881 -0.3251
vn -0.1585 -0.9194 -0.3600
vn -0.9194 0.3600 -0.1585
vn -0.8881 0.3251 -0.3251
vn -0.9194 0.1585 -0.3600
vn -0.1585 0.9194 -0.3600
vn -0.3251 0.8881 -0.3251
vn -0.3600 0.9194 -0.1585
vn -0.3600 0.1585 -0.9194
vn -0.3251 0.3251 -0.8881
vn -0.1585 0.3600 -0.9194
vn 0.9194 0.1585 -0.3600
vn 0.8881 0.3251 -0.3251
vn 0.9194 0.3600 -0.1585
vn 0.1585 0.3600 -0.9194
vn 0.3251 0.3251 -0.8881
vn 0.3600 0.1585 -0.9194
vn 0.3600 0.9194 -0.1585
vn 0.3251 0.8881 -0.3251
vn 0.1585 0.9194 -0.3600
vn 0.9194 -0.3600 -0.1585
vn 0.8881 -0.3251 -0.3251
vn 0.9194 -0.1585 -0.3600
vn 0.1585 -0.9194 -0.3600
vn 0.3251 -0.8881 -0.3251
vn 0.3600 -0.9194 -0.1585
vn 0.3600 -0.1585 -0.9194
vn 0.3251 -0.3251 -0.8881
vn 0.1585 -0.3600 -0.9194
vt 0.628750 0.503750
vt 0.746250 0.503750
vt 0.746250 0.621250
vt 0.628750 0.621250
vt 0.000000 0.000000
vt 0.378750 0.378750
vt 0.621250 0.378750
vt 0.621250 0.496250
vt 0.378750 0.496250
vt 0.253750 0.503750
vt 0.371250 0.503750
vt 0.371250 0.621250
vt 0.253750 0.621250
vt 0.378750 0.503750
vt 0.621250 0.503750
vt 0.621250 0.621250
vt 0.378750 0.621250
vt 0.746250 0.503750
vt 0.628750 0.621250
vt 0.378750 0.378750
vt 0.621250 0.378750
vt 0.621250 0.496250
vt 0.371250 0.503750
vt 0.371250 0.621250
vt 0.253750 0.621250
vt 0.378750 0.753750
vt 0.621250 0.753750
vt 0.621250 0.871250
vt 0.378750 0.871250
vt 0.628750 0.628750
vt 0.746250 0.628750
vt 0.746250 0.746250
vt 0.628750 0.746250
vt 0.378750 0.628750
vt 0.621250 0.628750
vt 0.621250 0.746250
vt 0.378750 0.746250
vt 0.253750 0.628750
vt 0.371250 0.628750
vt 0.371250 0.746250
vt 0.253750 0.746250
vt 0.378750 0.753750
vt 0.621250 0.753750
vt 0.621250 0.871250
vt 0.378750 0.871250
vt 0.746250 0.746250
vt 0.371250 0.628750
vt 0.371250 0.746250
vt 0.378750 0.500000
vt 0.375000 0.500528
vt 0.375000 0.496250
vt 0.375000 0.503750
vt 0.371250 0.500000
vt 0.625000 0.503750
vt 0.624472 0.500000
vt 0.628750 0.500000
vt 0.621250 0.500000
vt 0.625000 0.496250
vt 0.250000 0.503750
vt 0.250000 0.501585
vt 0.253750 0.500000
vt 0.375000 0.378750
vt 0.375000 0.376585
vt 0.378750 0.375000
vt 0.746250 0.500000
vt 0.748415 0.500000
vt 0.750000 0.503750
vt 0.621250 0.375000
vt 0.623415 0.375000
vt 0.625000 0.378750
vt 0.378750 0.625000
vt 0.376585 0.625000
vt 0.375000 0.621250
vt 0.375000 0.623415
vt 0.371250 0.625000
vt 0.625000 0.621250
vt 0.625000 0.623415
vt 0.621250 0.625000
vt 0.628750 0.625000
vt 0.626585 0.625000
vt 0.750000 0.621250
vt 0.750000 0.623415
vt 0.746250 0.625000
vt 0.253750 0.625000
vt 0.251585 0.625000
vt 0.250000 0.621250
vt 0.748415 0.500000
vt 0.625000 0.378750
vt 0.371250 0.625000
vt 0.626585 0.625000
vt 0.746250 0.625000
vt 0.378750 0.750000
vt 0.375528 0.750000
vt 0.375000 0.746250
vt 0.375000 0.753750
vt 0.371250 0.750000
vt 0.628750 0.750000
vt 0.625000 0.749472
vt 0.625000 0.746250
vt 0.621250 0.750000
vt 0.625000 0.753750
vt 0.378750 0.875000
vt 0.376585 0.875000
vt 0.375000 0.871250
vt 0.253750 0.750000
vt 0.251585 0.750000
vt 0.250000 0.746250
vt 0.625000 0.871250
vt 0.625000 0.873415
vt 0.621250 0.875000
vt 0.750000 0.746250
vt 0.750000 0.748415
vt 0.746250 0.750000
vt 0.375000 0.628750
vt 0.375000 0.626585
vt 0.373415 0.625000
vt 0.623415 0.625000
vt 0.625000 0.628750
vt 0.625000 0.626585
vt 0.748415 0.625000
vt 0.750000 0.628750
vt 0.250000 0.628750
vt 0.250000 0.626585
vt 0.625000 0.753750
vt 0.625000 0.873415
vt 0.373415 0.625000
vt 0.748415 0.625000
s 5
usemtl TEMPLE_BASE
f 58/14/17 65/15/18 92/16/19 85/17/20
s 7
f 64/1/1 78/18/2 101/3/3 93/19/4
s 8
f 72/5/5 106/5/6 99/5/7 80/5/8
s 9
f 73/20/9 79/21/10 66/22/11 57/9/12
s 10
f 71/10/13 59/23/14 87/24/15 107/25/16
s 12
f 108/5/21 86/5/22 94/5/23 100/5/24
s 18
f 170/42/22 177/43/23 190/44/24 183/45/21
s 19
f 206/30/1 212/31/2 191/46/3 176/33/4
s 20
f 197/34/17 204/35/18 178/36/19 169/37/20
s 21
f 218/5/5 184/5/6 192/5/7 211/5/8
s 22
f 220/38/13 198/47/14 171/48/15 185/41/16
s 23
f 199/5/12 219/5/9 213/5/10 205/5/11
s 9
f 57/9/12 60/49/25 61/50/26 63/51/27
s 5
f 58/14/17 62/52/28 61/50/29 60/49/30
s 10
f 59/23/14 63/53/31 61/50/32 62/52/33
s 7
f 64/1/1 67/54/34 68/55/35 70/56/36
s 5
f 65/15/18 69/57/37 68/55/38 67/54/39
s 9
f 66/22/11 70/58/40 68/55/41 69/57/42
s 10
f 71/10/13 74/59/43 75/60/44 77/61/45
s 8
f 72/5/5 76/5/46 75/5/47 74/5/48
s 9
f 73/20/9 77/62/49 75/63/50 76/64/51
s 7
f 78/18/2 81/65/52 82/87/53 84/67/54
s 9
f 79/21/10 83/68/55 82/69/56 81/88/57
s 8
f 80/5/8 84/5/58 82/5/59 83/5/60
s 5
f 85/17/20 88/71/61 89/72/62 91/73/63
s 12
f 86/5/22 90/5/64 89/5/65 88/5/66
s 10
f 87/24/15 91/73/67 89/74/68 90/89/69
s 5
f 92/16/19 95/76/70 96/77/71 98/78/72
s 7
f 93/19/4 97/79/73 96/90/74 95/76/75
s 12
f 94/5/23 98/5/76 96/5/77 97/5/78
s 8
f 99/5/7 102/5/79 103/5/80 105/5/81
s 12
f 100/5/24 104/5/82 103/5/83 102/5/84
s 7
f 101/3/3 105/81/85 103/82/86 104/91/87
s 8
f 106/5/6 109/5/88 110/5/89 112/5/90
s 10
f 107/25/16 111/84/91 110/85/92 109/86/93
s 12
f 108/5/21 112/5/94 110/5/95 111/5/96
s 20
f 169/37/20 172/92/61 173/93/62 175/94/63
s 18
f 170/42/22 174/95/64 173/93/65 172/92/66
s 22
f 171/48/15 175/94/67 173/93/68 174/96/69
s 19
f 176/33/4 179/97/73 180/98/74 182/99/75
s 18
f 177/43/23 181/100/76 180/98/77 179/124/78
s 20
f 178/36/19 182/99/70 180/98/71 181/100/72
s 18
f 183/45/21 186/102/94 187/103/95 189/104/96
s 21
f 184/5/6 188/5/88 187/5/89 186/5/90
s 22
f 185/41/16 189/105/91 187/106/92 188/107/93
s 18
f 190/44/24 193/108/82 194/125/83 196/110/84
s 19
f 191/46/3 195/111/85 194/112/86 193/113/87
s 21
f 192/5/7 196/5/79 194/5/80 195/5/81
s 20
f 197/34/17 200/114/28 201/115/29 203/71/30
s 22
f 198/47/14 202/75/31 201/126/32 200/114/33
s 23
f 199/5/12 203/5/25 201/5/26 202/5/27
s 20
f 204/35/18 207/78/37 208/117/38 210/118/39
s 23
f 205/5/11 209/5/40 208/5/41 207/5/42
s 19
f 206/30/1 210/118/34 208/119/35 209/79/36
s 21
f 211/5/8 214/5/58 215/5/59 217/5/60
s 19
f 212/31/2 216/91/52 215/127/53 214/121/54
s 23
f 213/5/10 217/5/55 215/5/56 216/5/57
s 21
f 218/5/5 221/5/46 222/5/47 224/5/48
s 23
f 219/5/9 223/5/49 222/5/50 221/5/51
s 22
f 220/38/13 224/122/43 222/123/44 223/84/45
s 7
f 78/18/2 64/1/1 70/56/36 81/65/52
s 9
f 81/88/57 70/58/40 66/22/11 79/21/10
s 5
f 65/15/18 58/14/17 60/49/30 69/57/37
s 9
f 69/57/42 60/49/25 57/9/12 66/22/11
s 10
f 87/24/15 59/23/14 62/52/33 91/73/67
s 5
f 91/73/63 62/52/28 58/14/17 85/17/20
s 10
f 59/23/14 71/10/13 77/61/45 63/53/31
s 9
f 63/51/27 77/62/49 73/20/9 57/9/12
f 79/21/10 73/20/9 76/64/51 83/68/55
s 8
f 83/5/60 76/5/46 72/5/5 80/5/8
s 7
f 64/1/1 93/19/4 95/76/75 67/54/34
s 5
f 67/54/39 95/76/70 92/16/19 65/15/18
s 8
f 80/5/8 99/5/7 105/5/81 84/5/58
s 7
f 84/67/54 105/81/85 101/3/3 78/18/2
s 10
f 71/10/13 107/25/16 109/86/93 74/59/43
s 8
f 74/5/48 109/5/88 106/5/6 72/5/5
s 12
f 100/5/24 94/5/23 97/5/78 104/5/82
s 7
f 104/91/87 97/79/73 93/19/4 101/3/3
s 12
f 86/5/22 108/5/21 111/5/96 90/5/64
s 10
f 90/89/69 111/84/91 107/25/16 87/24/15
s 12
f 94/5/23 86/5/22 88/5/66 98/5/76
s 5
f 98/78/72 88/71/61 85/17/20 92/16/19
s 8
f 99/5/7 106/5/6 112/5/90 102/5/79
s 12
f 102/5/84 112/5/94 108/5/21 100/5/24
s 19
f 206/30/1 176/33/4 182/99/75 210/118/34
s 20
f 210/118/39 182/99/70 178/36/19 204/35/18
s 18
f 177/43/23 170/42/22 172/92/66 181/100/76
s 20
f 181/100/72 172/92/61 169/37/20 178/36/19
s 22
f 185/41/16 171/48/15 174/96/69 189/105/91
s 18
f 189/104/96 174/95/64 170/42/22 183/45/21
s 19
f 176/33/4 191/46/3 193/113/87 179/97/73
s 18
f 179/124/78 193/108/82 190/44/24 177/43/23
s 21
f 211/5/8 192/5/7 195/5/81 214/5/58
s 19
f 214/121/54 195/111/85 191/46/3 212/31/2
s 22
f 220/38/13 185/41/16 188/107/93 224/122/43
s 21
f 224/5/48 188/5/88 184/5/6 218/5/5
f 192/5/7 184/5/6 186/5/90 196/5/79
s 18
f 196/110/84 186/102/94 183/45/21 190/44/24
s 22
f 171/48/15 198/47/14 200/114/33 175/94/67
s 20
f 175/94/63 200/114/28 197/34/17 169/37/20
s 19
f 212/31/2 206/30/1 209/79/36 216/91/52
s 23
f 216/5/57 209/5/40 205/5/11 213/5/10
s 22
f 198/47/14 220/38/13 223/84/45 202/75/31
s 23
f 202/5/27 223/5/49 219/5/9 199/5/12
s 20
f 204/35/18 197/34/17 203/71/30 207/78/37
s 23
f 207/5/42 203/5/25 199/5/12 205/5/11
f 213/5/10 219/5/9 221/5/51 217/5/55
s 21
f 217/5/60 221/5/46 218/5/5 211/5/8
s 1
usemtl TEMPLE_DARK
f 8/1/1 22/2/2 45/3/3 37/4/4
s 2
f 16/5/5 50/5/6 43/5/7 24/5/8
s 3
f 17/6/9 23/7/10 10/8/11 1/9/12
s 4
f 15/10/13 3/11/14 31/12/15 51/13/16
s 6
f 52/5/21 30/5/22 38/5/23 44/5/24
s 11
f 114/26/22 121/27/23 134/28/24 127/29/21
s 13
f 150/30/1 156/31/2 135/32/3 120/33/4
s 14
f 141/34/17 148/35/18 122/36/19 113/37/20
s 15
f 162/5/5 128/5/6 136/5/7 155/5/8
s 16
f 164/38/13 142/39/14 115/40/15 129/41/16
s 17
f 143/5/12 163/5/9 157/5/10 149/5/11
s 3
f 1/9/12 4/49/25 5/50/26 7/51/27
s 24
f 2/14/17 6/52/28 5/50/29 4/49/30
s 4
f 3/11/14 7/53/31 5/50/32 6/52/33
s 1
f 8/1/1 11/54/34 12/55/35 14/56/36
s 24
f 9/15/18 13/57/37 12/55/38 11/54/39
s 3
f 10/8/11 14/58/40 12/55/41 13/57/42
s 4
f 15/10/13 18/59/43 19/60/44 21/61/45
s 2
f 16/5/5 20/5/46 19/5/47 18/5/48
s 3
f 17/6/9 21/62/49 19/63/50 20/64/51
s 1
f 22/2/2 25/65/52 26/66/53 28/67/54
s 3
f 23/7/10 27/68/55 26/69/56 25/70/57
s 2
f 24/5/8 28/5/58 26/5/59 27/5/60
s 24
f 29/17/20 32/71/61 33/72/62 35/73/63
s 6
f 30/5/22 34/5/64 33/5/65 32/5/66
s 4
f 31/12/15 35/73/67 33/74/68 34/75/69
s 24
f 36/16/19 39/76/70 40/77/71 42/78/72
s 1
f 37/4/4 41/79/73 40/80/74 39/76/75
s 6
f 38/5/23 42/5/76 40/5/77 41/5/78
s 2
f 43/5/7 46/5/79 47/5/80 49/5/81
s 6
f 44/5/24 48/5/82 47/5/83 46/5/84
s 1
f 45/3/3 49/81/85 47/82/86 48/83/87
s 2
f 50/5/6 53/5/88 54/5/89 56/5/90
s 4
f 51/13/16 55/84/91 54/85/92 53/86/93
s 6
f 52/5/21 56/5/94 54/5/95 55/5/96
s 14
f 113/37/20 116/92/61 117/93/62 119/94/63
s 11
f 114/26/22 118/95/64 117/93/65 116/92/66
s 16
f 115/40/15 119/94/67 117/93/68 118/96/69
s 13
f 120/33/4 123/97/73 124/98/74 126/99/75
s 11
f 121/27/23 125/100/76 124/98/77 123/101/78
s 14
f 122/36/19 126/99/70 124/98/71 125/100/72
s 11
f 127/29/21 130/102/94 131/103/95 133/104/96
s 15
f 128/5/6 132/5/88 131/5/89 130/5/90
s 16
f 129/41/16 133/105/91 131/106/92 132/107/93
s 11
f 134/28/24 137/108/82 138/109/83 140/110/84
s 13
f 135/32/3 139/111/85 138/112/86 137/113/87
s 15
f 136/5/7 140/5/79 138/5/80 139/5/81
s 14
f 141/34/17 144/114/28 145/115/29 147/71/30
s 16
f 142/39/14 146/75/31 145/116/32 144/114/33
s 17
f 143/5/12 147/5/25 145/5/26 146/5/27
s 14
f 148/35/18 151/78/37 152/117/38 154/118/39
s 17
f 149/5/11 153/5/40 152/5/41 151/5/42
s 13
f 150/30/1 154/118/34 152/119/35 153/79/36
s 15
f 155/5/8 158/5/58 159/5/59 161/5/60
s 13
f 156/31/2 160/91/52 159/120/53 158/121/54
s 17
f 157/5/10 161/5/55 159/5/56 160/5/57
s 15
f 162/5/5 165/5/46 166/5/47 168/5/48
s 17
f 163/5/9 167/5/49 166/5/50 165/5/51
s 16
f 164/38/13 168/122/43 166/123/44 167/84/45
s 1
f 22/2/2 8/1/1 14/56/36 25/65/52
s 3
f 25/70/57 14/58/40 10/8/11 23/7/10
s 24
f 9/15/18 2/14/17 4/49/30 13/57/37
s 3
f 13/57/42 4/49/25 1/9/12 10/8/11
s 4
f 31/12/15 3/11/14 6/52/33 35/73/67
s 24
f 35/73/63 6/52/28 2/14/17 29/17/20
s 4
f 3/11/14 15/10/13 21/61/45 7/53/31
s 3
f 7/51/27 21/62/49 17/6/9 1/9/12
f 23/7/10 17/6/9 20/64/51 27/68/55
s 2
f 27/5/60 20/5/46 16/5/5 24/5/8
s 1
f 8/1/1 37/4/4 39/76/75 11/54/34
s 24
f 11/54/39 39/76/70 36/16/19 9/15/18
s 2
f 24/5/8 43/5/7 49/5/81 28/5/58
s 1
f 28/67/54 49/81/85 45/3/3 22/2/2
s 4
f 15/10/13 51/13/16 53/86/93 18/59/43
s 2
f 18/5/48 53/5/88 50/5/6 16/5/5
s 6
f 44/5/24 38/5/23 41/5/78 48/5/82
s 1
f 48/83/87 41/79/73 37/4/4 45/3/3
s 6
f 30/5/22 52/5/21 55/5/96 34/5/64
s 4
f 34/75/69 55/84/91 51/13/16 31/12/15
s 6
f 38/5/23 30/5/22 32/5/66 42/5/76
s 24
f 42/78/72 32/71/61 29/17/20 36/16/19
s 2
f 43/5/7 50/5/6 56/5/90 46/5/79
s 6
f 46/5/84 56/5/94 52/5/21 44/5/24
s 13
f 150/30/1 120/33/4 126/99/75 154/118/34
s 14
f 154/118/39 126/99/70 122/36/19 148/35/18
s 11
f 121/27/23 114/26/22 116/92/66 125/100/76
s 14
f 125/100/72 116/92/61 113/37/20 122/36/19
s 16
f 129/41/16 115/40/15 118/96/69 133/105/91
s 11
f 133/104/96 118/95/64 114/26/22 127/29/21
s 13
f 120/33/4 135/32/3 137/113/87 123/97/73
s 11
f 123/101/78 137/108/82 134/28/24 121/27/23
s 15
f 155/5/8 136/5/7 139/5/81 158/5/58
s 13
f 158/121/54 139/111/85 135/32/3 156/31/2
s 16
f 164/38/13 129/41/16 132/107/93 168/122/43
s 15
f 168/5/48 132/5/88 128/5/6 162/5/5
f 136/5/7 128/5/6 130/5/90 140/5/79
s 11
f 140/110/84 130/102/94 127/29/21 134/28/24
s 16
f 115/40/15 142/39/14 144/114/33 119/94/67
s 14
f 119/94/63 144/114/28 141/34/17 113/37/20
s 13
f 156/31/2 150/30/1 153/79/36 160/91/52
s 17
f 160/5/57 153/5/40 149/5/11 157/5/10
s 16
f 142/39/14 164/38/13 167/84/45 146/75/31
s 17
f 146/5/27 167/5/49 163/5/9 143/5/12
s 14
f 148/35/18 141/34/17 147/71/30 151/78/37
s 17
f 151/5/42 147/5/25 143/5/12 149/5/11
f 157/5/10 163/5/9 165/5/51 161/5/55
s 15
f 161/5/60 165/5/46 162/5/5 155/5/8
s 24
f 2/14/17 9/15/18 36/16/19 29/17/20
