# Blender 4.4.3
# www.blender.org
mtllib FOREST_WALL_1_001.mtl
o FOREST_WALL_1_001
v -0.591407 0.540681 0.364284
v 0.591407 0.540681 0.364284
v 0.591407 0.000000 0.283522
v -0.591407 0.000000 0.283522
v 0.689732 0.630571 0.455303
v -0.689730 0.630571 0.455303
v -0.689730 0.000000 0.361113
v 0.689732 0.000000 0.361113
v 0.820572 0.038046 0.499957
v 0.820572 1.048344 0.499957
v -0.008793 0.038046 0.499957
v -0.008793 0.957417 0.499957
v 0.405889 0.038046 0.499957
v 0.405889 1.199888 0.499957
v -0.544845 1.340499 0.438865
v -0.544845 0.038046 0.438865
v -0.119441 1.340499 0.438865
v -0.119441 0.038046 0.438865
v 0.119896 1.554631 0.543080
v 0.119896 0.038046 0.543080
v -0.240502 1.554631 0.543080
v -0.240502 0.038046 0.543080
v 0.124206 2.129937 0.600492
v 0.124206 0.038046 0.540556
v 0.621523 2.129937 0.600492
v 0.621524 0.038046 0.540556
v 0.022611 2.255410 0.681439
v 0.022611 0.038046 0.534914
v -0.703199 2.255410 0.681439
v -0.703199 0.038046 0.534914
vn -0.0000 0.1477 -0.9890
vn -0.0000 -0.1477 0.9890
vn -0.0000 -0.0000 -1.0000
vn -0.0000 -0.0286 0.9996
vn -0.0000 -0.0659 0.9978
vt 0.509132 0.560411
vt 0.971498 0.560411
vt 0.971498 0.774109
vt 0.509132 0.774109
vt 0.509132 0.162100
vt 0.963300 0.162100
vt 0.963300 0.324201
vt 0.603915 0.324201
vt 0.568372 0.000000
vt 0.963300 0.000000
vt 0.000000 0.144711
vt 0.509132 0.144711
vt 0.509132 0.311003
vt 0.000000 0.311003
vt 0.000000 0.023722
vt 0.509132 0.023722
s 0
usemtl FOREST_GRASS01
f 3/1/1 4/2/1 1/3/1 2/4/1
f 7/1/2 8/2/2 5/3/2 6/4/2
f 14/5/3 13/6/3 11/7/3 12/8/3
f 10/9/3 9/10/3 13/6/3 14/5/3
f 17/11/3 18/12/3 16/13/3 15/14/3
f 19/15/3 20/16/3 22/12/3 21/11/3
f 23/15/4 24/16/4 26/12/4 25/11/4
f 29/11/5 30/12/5 28/13/5 27/14/5
