# Blender 4.4.3
# www.blender.org
mtllib FOREST_WALL_1_002.mtl
o FOREST_WALL_1_002
v 0.591407 0.540681 0.364284
v -0.591407 0.540681 0.364284
v -0.591407 0.000000 0.283522
v 0.591407 0.000000 0.283522
v 0.787965 0.675475 0.462010
v -0.787963 0.675475 0.462010
v -0.787963 -0.044904 0.354406
v 0.787965 -0.044904 0.354406
v 0.772959 -0.124770 0.599873
v 0.772959 1.168686 0.599873
v -0.288854 -0.124771 0.599873
v -0.288854 1.052275 0.599873
v 0.242052 -0.124771 0.599873
v 0.242052 1.362705 0.599873
v -0.544845 1.340499 0.438865
v -0.544845 0.038046 0.438865
v -0.119441 1.340499 0.438865
v -0.119441 0.038046 0.438865
v 0.119896 1.554631 0.543080
v 0.119896 0.038046 0.543080
v -0.240502 1.554631 0.543080
v -0.240502 0.038046 0.543080
v 0.309841 1.751379 0.530251
v 0.309841 0.277797 0.488030
v 0.660164 1.751379 0.530251
v 0.660164 0.277797 0.488030
v -0.344497 2.255410 0.867202
v -0.344496 0.038046 0.720677
v 0.381314 2.255410 0.867202
v 0.381314 0.038046 0.720677
v -0.722947 1.607592 0.621146
v -0.722947 -0.010374 0.621146
v -0.194490 1.607592 0.621146
v -0.194490 -0.010374 0.621146
v 0.315475 0.414682 0.246856
v 0.315475 -0.000000 0.246856
v -0.284034 0.414682 0.246856
v -0.284034 -0.000000 0.246856
vn -0.0000 -0.1477 0.9890
vn -0.0000 -0.0000 -1.0000
vn -0.0000 -0.0286 0.9996
vn -0.0000 0.0659 -0.9978
vt 0.509132 0.560411
vt 0.971498 0.560411
vt 0.971498 0.774109
vt 0.509132 0.774109
vt 0.509132 0.162100
vt 0.963300 0.162100
vt 0.963300 0.324201
vt 0.603915 0.324201
vt 0.568372 0.000000
vt 0.963300 0.000000
vt 0.000000 0.144711
vt 0.509132 0.144711
vt 0.509132 0.311003
vt 0.000000 0.311003
vt 0.000000 0.023722
vt 0.509132 0.023722
vt 0.509132 0.837900
vt 0.743482 0.837900
vt 0.743482 1.000000
vt 0.509132 1.000000
s 0
usemtl FOREST_GRASS01
f 3/1/1 4/2/1 1/3/1 2/4/1
f 7/1/1 8/2/1 5/3/1 6/4/1
f 14/5/2 13/6/2 11/7/2 12/8/2
f 10/9/2 9/10/2 13/6/2 14/5/2
f 17/11/2 18/12/2 16/13/2 15/14/2
f 19/15/2 20/16/2 22/12/2 21/11/2
f 23/15/3 24/16/3 26/12/3 25/11/3
f 29/11/4 30/12/4 28/13/4 27/14/4
f 33/11/2 34/12/2 32/13/2 31/14/2
f 36/17/2 38/18/2 37/19/2 35/20/2
