# Blender 4.4.3
# www.blender.org
mtllib TOMB_GROUND_3_001.mtl
o TOMB_GROUND_3_001
v -1.045304 0.000000 -1.045304
v -1.045304 0.000000 1.045304
v 1.045304 0.000000 1.045304
v 1.045304 0.000000 -1.045304
v 1.045304 -1.000000 -1.045304
v 1.045304 -1.000000 1.045304
v -1.045304 -1.000000 1.045304
v -1.045304 -1.000000 -1.045304
v 1.485000 -0.985000 -1.500000
v 1.500000 -0.985000 -1.485000
v 1.485000 -1.000000 -1.485000
v 1.495607 -0.985000 -1.495607
v 1.493660 -0.993660 -1.493660
v 1.495607 -0.995607 -1.485000
v 1.485000 -0.995607 -1.495607
v 1.485000 -0.015000 -1.500000
v 1.485000 0.000000 -1.485000
v 1.500000 -0.015000 -1.485000
v 1.485000 -0.004393 -1.495607
v 1.493660 -0.006340 -1.493660
v 1.495607 -0.004393 -1.485000
v 1.495607 -0.015000 -1.495607
v 1.485000 -0.985000 1.500000
v 1.485000 -1.000000 1.485000
v 1.500000 -0.985000 1.485000
v 1.485000 -0.995607 1.495607
v 1.493660 -0.993660 1.493660
v 1.495607 -0.995607 1.485000
v 1.495607 -0.985000 1.495607
v 1.485000 -0.015000 1.500000
v 1.500000 -0.015000 1.485000
v 1.485000 0.000000 1.485000
v 1.495607 -0.015000 1.495607
v 1.493660 -0.006340 1.493660
v 1.495607 -0.004393 1.485000
v 1.485000 -0.004393 1.495607
v -1.485000 -0.985000 -1.500000
v -1.485000 -1.000000 -1.485000
v -1.500000 -0.985000 -1.485000
v -1.485000 -0.995607 -1.495607
v -1.493660 -0.993660 -1.493660
v -1.495607 -0.995607 -1.485000
v -1.495607 -0.985000 -1.495607
v -1.485000 -0.015000 -1.500000
v -1.500000 -0.015000 -1.485000
v -1.485000 0.000000 -1.485000
v -1.495607 -0.015000 -1.495607
v -1.493660 -0.006340 -1.493660
v -1.495607 -0.004393 -1.485000
v -1.485000 -0.004393 -1.495607
v -1.485000 -0.985000 1.500000
v -1.500000 -0.985000 1.485000
v -1.485000 -1.000000 1.485000
v -1.495607 -0.985000 1.495607
v -1.493660 -0.993660 1.493660
v -1.495607 -0.995607 1.485000
v -1.485000 -0.995607 1.495607
v -1.485000 -0.015000 1.500000
v -1.485000 0.000000 1.485000
v -1.500000 -0.015000 1.485000
v -1.485000 -0.004393 1.495607
v -1.493660 -0.006340 1.493660
v -1.495607 -0.004393 1.485000
v -1.495607 -0.015000 1.495607
v 1.500000 -0.985000 -1.045304
v 1.485000 -1.000000 -1.045304
v 1.495607 -0.995607 -1.045304
v 1.485000 -1.000000 1.045304
v 1.500000 -0.985000 1.045304
v 1.495607 -0.995607 1.045304
v 1.485000 0.000000 -1.045304
v 1.500000 -0.015000 -1.045304
v 1.495607 -0.004393 -1.045304
v 1.500000 -0.015000 1.045304
v 1.485000 0.000000 1.045304
v 1.495607 -0.004393 1.045304
v -1.485000 -1.000000 -1.045304
v -1.500000 -0.985000 -1.045304
v -1.495607 -0.995607 -1.045304
v -1.500000 -0.985000 1.045304
v -1.485000 -1.000000 1.045304
v -1.495607 -0.995607 1.045304
v -1.500000 -0.015000 -1.045304
v -1.485000 0.000000 -1.045304
v -1.495607 -0.004393 -1.045304
v -1.485000 0.000000 1.045304
v -1.500000 -0.015000 1.045304
v -1.495607 -0.004393 1.045304
v 1.045304 -0.985000 1.500000
v 1.045304 -1.000000 1.485000
v 1.045304 -0.995607 1.495607
v -1.045304 -1.000000 1.485000
v -1.045304 -0.985000 1.500000
v -1.045304 -0.995607 1.495607
v -1.045304 -0.015000 1.500000
v -1.045304 0.000000 1.485000
v -1.045304 -0.004393 1.495607
v 1.045304 0.000000 1.485000
v 1.045304 -0.015000 1.500000
v 1.045304 -0.004393 1.495607
v -1.045304 -0.985000 -1.500000
v -1.045304 -1.000000 -1.485000
v -1.045304 -0.995607 -1.495607
v 1.045304 -1.000000 -1.485000
v 1.045304 -0.985000 -1.500000
v 1.045304 -0.995607 -1.495607
v 1.045304 -0.015000 -1.500000
v 1.045304 0.000000 -1.485000
v 1.045304 -0.004393 -1.495607
v -1.045304 0.000000 -1.485000
v -1.045304 -0.015000 -1.500000
v -1.045304 -0.004393 -1.495607
vn 0.1951 -0.9808 -0.0000
vn -0.0000 -1.0000 -0.0000
vn -0.0000 -0.9808 -0.1951
vn 0.1794 -0.9673 -0.1794
vn -0.1951 0.9808 -0.0000
vn -0.0000 1.0000 -0.0000
vn -0.0000 0.9808 -0.1951
vn -0.1794 0.9673 -0.1794
vn -0.1794 0.9673 0.1794
vn -0.0000 0.9808 0.1951
vn -0.1951 -0.9808 -0.0000
vn -0.1794 -0.9673 -0.1794
vn -0.0000 -0.9808 0.1951
vn -0.1794 -0.9673 0.1794
vn 0.9808 -0.1951 -0.0000
vn 0.9808 0.1951 -0.0000
vn 0.9673 0.1794 0.1794
vn 0.9673 -0.1794 0.1794
vn -0.0000 -0.1951 0.9808
vn -0.0000 0.1951 0.9808
vn -0.1794 0.1794 0.9673
vn -0.1794 -0.1794 0.9673
vn -0.1794 -0.1794 -0.9673
vn -0.1794 0.1794 -0.9673
vn -0.0000 0.1951 -0.9808
vn -0.0000 -0.1951 -0.9808
vn 0.1794 -0.1794 0.9673
vn 0.1794 0.1794 0.9673
vn -0.9808 -0.1951 -0.0000
vn -0.9808 0.1951 -0.0000
vn -0.9673 0.1794 -0.1794
vn -0.9673 -0.1794 -0.1794
vn 0.1794 0.9673 0.1794
vn 0.1951 0.9808 -0.0000
vn 0.1794 -0.9673 0.1794
vn 0.9673 -0.1794 -0.1794
vn 0.9673 0.1794 -0.1794
vn -0.9673 -0.1794 0.1794
vn -0.9673 0.1794 0.1794
vn 0.1794 0.9673 -0.1794
vn 0.1794 -0.1794 -0.9673
vn 0.3600 -0.1585 -0.9194
vn 0.3251 -0.3251 -0.8881
vn 0.1585 -0.3600 -0.9194
vn 0.9194 -0.3600 -0.1585
vn 0.8881 -0.3251 -0.3251
vn 0.9194 -0.1585 -0.3600
vn 0.1585 -0.9194 -0.3600
vn 0.3251 -0.8881 -0.3251
vn 0.3600 -0.9194 -0.1585
vn 0.1794 0.1794 -0.9673
vn 0.1585 0.3600 -0.9194
vn 0.3251 0.3251 -0.8881
vn 0.3600 0.1585 -0.9194
vn 0.3600 0.9194 -0.1585
vn 0.3251 0.8881 -0.3251
vn 0.1585 0.9194 -0.3600
vn 0.9194 0.1585 -0.3600
vn 0.8881 0.3251 -0.3251
vn 0.9194 0.3600 -0.1585
vn 0.1585 -0.3600 0.9194
vn 0.3251 -0.3251 0.8881
vn 0.3600 -0.1585 0.9194
vn 0.3600 -0.9194 0.1585
vn 0.3251 -0.8881 0.3251
vn 0.1585 -0.9194 0.3600
vn 0.9194 -0.1585 0.3600
vn 0.8881 -0.3251 0.3251
vn 0.9194 -0.3600 0.1585
vn 0.3600 0.1585 0.9194
vn 0.3250 0.3251 0.8881
vn 0.1585 0.3600 0.9194
vn 0.9194 0.3600 0.1585
vn 0.8881 0.3251 0.3251
vn 0.9194 0.1585 0.3600
vn 0.1585 0.9194 0.3600
vn 0.3251 0.8881 0.3251
vn 0.3600 0.9194 0.1585
vn -0.1585 -0.3600 -0.9194
vn -0.3251 -0.3251 -0.8881
vn -0.3600 -0.1585 -0.9194
vn -0.3600 -0.9194 -0.1585
vn -0.3251 -0.8881 -0.3251
vn -0.1585 -0.9194 -0.3600
vn -0.9194 -0.1585 -0.3600
vn -0.8881 -0.3251 -0.3251
vn -0.9194 -0.3600 -0.1585
vn -0.3600 0.1585 -0.9194
vn -0.3250 0.3251 -0.8881
vn -0.1585 0.3600 -0.9194
vn -0.9194 0.3600 -0.1585
vn -0.8881 0.3251 -0.3251
vn -0.9194 0.1585 -0.3600
vn -0.1585 0.9194 -0.3600
vn -0.3251 0.8881 -0.3251
vn -0.3600 0.9194 -0.1585
vn -0.3600 -0.1585 0.9194
vn -0.3251 -0.3251 0.8881
vn -0.1585 -0.3600 0.9194
vn -0.9194 -0.3600 0.1585
vn -0.8881 -0.3251 0.3251
vn -0.9194 -0.1585 0.3600
vn -0.1585 -0.9194 0.3600
vn -0.3251 -0.8881 0.3251
vn -0.3600 -0.9194 0.1585
vn -0.1585 0.3600 0.9194
vn -0.3251 0.3251 0.8881
vn -0.3600 0.1585 0.9194
vn -0.3600 0.9194 0.1585
vn -0.3251 0.8881 0.3251
vn -0.1585 0.9194 0.3600
vn -0.9194 0.1585 0.3600
vn -0.8881 0.3251 0.3251
vn -0.9194 0.3600 0.1585
vn 0.9239 -0.3827 -0.0000
vn 0.3827 -0.9239 -0.0000
vn -0.0000 -0.3827 -0.9239
vn -0.0000 -0.9239 -0.3827
vn 0.3827 0.9239 -0.0000
vn 0.9239 0.3827 -0.0000
vn -0.0000 -0.3827 0.9239
vn -0.0000 -0.9239 0.3827
vn -0.0000 0.3827 0.9239
vn -0.0000 0.9239 0.3827
vn -0.0000 0.3827 -0.9239
vn -0.0000 0.9239 -0.3827
vn -0.3827 -0.9239 -0.0000
vn -0.9239 -0.3827 -0.0000
vn -0.3827 0.9239 -0.0000
vn -0.9239 0.3827 -0.0000
vt -0.247500 0.924217
vt -0.174217 0.924217
vt -0.174217 0.997500
vt -0.247500 0.997500
vt 0.292778 0.704531
vt 0.292778 0.911919
vt 0.085391 0.911919
vt 0.085391 0.704531
vt 0.085391 0.704531
vt 0.292778 0.704531
vt 0.292778 0.911919
vt 0.085391 0.911918
vt 0.174217 0.924217
vt 0.247500 0.924217
vt 0.247500 0.997500
vt 0.174217 0.997500
vt 0.174217 0.502500
vt 0.247500 0.502500
vt 0.247500 0.575783
vt 0.174217 0.575783
vt 0.257500 -0.075783
vt 0.742500 -0.075783
vt 0.742500 -0.002500
vt 0.257500 -0.002500
vt 0.257500 0.424217
vt 0.742500 0.424217
vt 0.742500 0.497500
vt 0.257500 0.497500
vt 0.257500 1.002500
vt 0.742500 1.002500
vt 0.742500 1.075783
vt 0.257500 1.075783
vt 0.257500 0.002500
vt 0.742500 0.002500
vt 0.742500 0.075783
vt 0.257500 0.075783
vt 0.257500 0.924217
vt 0.742500 0.924217
vt 0.742500 0.997500
vt 0.257500 0.997500
vt 0.085391 0.911919
vt 0.085391 0.704531
vt 0.292778 0.704531
vt 0.292778 0.911919
vt -0.174217 0.575783
vt -0.247500 0.575783
vt -0.247500 0.502500
vt -0.174217 0.502500
vt 0.257500 -0.497500
vt 0.742500 -0.497500
vt 0.742500 -0.424217
vt 0.257500 -0.424217
vt 0.257500 0.502500
vt 0.742500 0.502500
vt 0.742500 0.575783
vt 0.257500 0.575783
vt 0.848365 0.151635
vt 0.151635 0.151635
vt 0.151635 0.005099
vt 0.848365 0.005099
vt 0.151635 0.994901
vt 0.151635 0.848365
vt 0.848365 0.848365
vt 0.848365 0.994901
vt 0.994901 0.848365
vt 0.994901 0.151635
vt 0.078316 0.697456
vt 0.285703 0.697456
vt 0.285703 0.904844
vt 0.078316 0.904844
vt 0.005099 0.848365
vt 0.005099 0.151635
vt 0.742500 1.424217
vt 0.257500 1.424217
vt 0.257500 1.497500
vt 0.257500 1.500000
vt 0.253170 1.500000
vt 0.250000 1.497500
vt 0.250000 -0.497500
vt 0.250000 -0.498943
vt 0.257500 -0.500000
vt -0.247500 1.000000
vt -0.248943 1.000000
vt -0.250000 0.997500
vt 0.742500 1.497500
vt 0.750000 1.497500
vt 0.750000 1.498943
vt 0.742500 1.500000
vt 0.292778 0.904844
vt 0.292778 0.908928
vt 0.285703 0.911919
vt 0.742500 -0.500000
vt 0.746830 -0.500000
vt 0.750000 -0.497500
vt 0.250000 0.002500
vt 0.250000 0.001057
vt 0.257500 0.000000
vt -0.250000 0.502500
vt -0.250000 0.501057
vt -0.247500 0.500000
vt 0.253170 0.000000
vt 0.250000 -0.002500
vt 0.742500 0.000000
vt 0.746830 0.000000
vt 0.750000 0.002500
vt 0.750000 -0.002500
vt 0.750000 -0.001057
vt 0.078316 0.704531
vt 0.078316 0.700447
vt 0.085391 0.697456
vt 0.250000 1.002500
vt 0.251057 1.000000
vt 0.257500 1.000000
vt 0.250000 0.997500
vt 0.247500 1.000000
vt 0.742500 1.000000
vt 0.746830 1.000000
vt 0.750000 1.002500
vt 0.750000 0.997500
vt 0.750000 0.998943
vt 0.078316 0.704531
vt 0.078316 0.700447
vt 0.085391 0.697456
vt 0.257500 0.500000
vt 0.250704 0.500352
vt 0.250000 0.497500
vt 0.250000 0.502500
vt 0.247500 0.500000
vt 0.750000 0.497500
vt 0.750000 0.498943
vt 0.742500 0.500000
vt 0.078316 0.704531
vt 0.078316 0.700447
vt 0.085391 0.697456
vt 0.746830 0.500000
vt 0.750000 0.502500
vt 0.250000 -0.424217
vt -0.250000 0.924217
vt 0.250000 1.424217
vt -0.174217 1.000000
vt -0.250000 0.575783
vt 0.250000 -0.075783
vt 0.292778 0.697456
vt 0.750000 -0.075783
vt 0.292778 0.697456
vt 0.750000 -0.424217
vt 0.250000 0.075783
vt -0.174217 0.500000
vt 0.750000 0.075783
vt 0.078316 0.911919
vt 0.750000 1.424217
vt 0.078316 0.911919
vt 0.250000 0.575783
vt 0.078316 0.911918
vt 0.750000 0.575783
vt 0.250000 0.924217
vt 0.250000 1.075783
vt 0.174217 1.000000
vt 0.292778 0.697456
vt 0.750000 0.924217
vt 0.250000 0.424217
vt 0.174217 0.500000
vt 0.750000 1.075783
vt 0.750000 0.424217
vt 0.292778 0.697456
vt 0.000100 0.848365
vt 0.000100 0.151635
vt 0.999900 0.151635
vt 0.999900 0.848365
vt 0.151635 0.000100
vt 0.848365 0.000100
vt 0.848365 0.999900
vt 0.151635 0.999900
s 1
usemtl TOMB_BASE
f 66/1/1 5/2/2 104/3/3 11/4/4
f 8/13/2 77/14/11 38/15/12 102/16/3
f 92/17/13 53/18/14 81/19/11 7/20/2
s 3
f 69/21/15 74/22/16 31/23/17 25/24/18
s 4
f 93/25/19 95/26/20 58/27/21 51/28/22
s 5
f 37/29/23 44/30/24 111/31/25 101/32/26
s 4
f 23/33/27 30/34/28 99/35/20 89/36/19
s 6
f 78/37/29 83/38/30 45/39/31 39/40/32
s 1
f 6/45/2 5/2/2 66/1/1 68/46/1
f 24/47/35 90/48/13 6/45/2 68/46/1
s 3
f 10/49/36 18/50/37 72/51/16 65/52/15
s 6
f 52/53/38 60/54/39 87/55/30 80/56/29
f 83/38/30 78/37/29 80/56/29 87/55/30
s 2
f 2/57/6 1/58/6 84/59/5 86/60/5
f 71/61/34 4/62/6 3/63/6 75/64/34
f 98/65/10 3/63/6 2/57/6 96/66/10
s 1
f 6/45/2 7/20/2 8/13/2 5/2/2
s 2
f 1/58/6 4/62/6 108/71/7 110/72/7
s 5
f 107/73/25 105/74/26 101/32/26 111/31/25
s 1
f 5/2/2 8/13/2 102/16/3 104/3/3
s 4
f 99/35/20 95/26/20 93/25/19 89/36/19
s 2
f 3/63/6 4/62/6 1/58/6 2/57/6
s 1
f 77/14/11 8/13/2 7/20/2 81/19/11
s 3
f 72/51/16 74/22/16 69/21/15 65/52/15
s 1
f 92/17/13 7/20/2 6/45/2 90/48/13
s 5
f 9/75/41 12/76/42 13/77/43 15/78/44
s 3
f 10/49/36 14/79/45 13/80/46 12/81/47
s 1
f 11/4/4 15/82/48 13/83/49 14/84/50
s 5
f 16/85/51 19/86/52 20/87/53 22/88/54
s 3
f 18/50/37 22/92/58 20/93/59 21/94/60
s 4
f 23/33/27 26/95/61 27/96/62 29/97/63
s 1
f 24/47/35 28/98/64 27/99/65 26/100/66
s 3
f 25/24/18 29/97/67 27/101/68 28/102/69
s 4
f 30/34/28 33/103/70 34/104/71 36/105/72
s 3
f 31/23/17 35/106/73 34/107/74 33/103/75
s 5
f 37/29/23 40/111/79 41/112/80 43/113/81
s 1
f 38/15/12 42/114/82 41/112/83 40/115/84
s 6
f 39/40/32 43/113/85 41/112/86 42/114/87
s 5
f 44/30/24 47/116/88 48/117/89 50/118/90
s 6
f 45/39/31 49/119/91 48/120/92 47/116/93
s 4
f 51/28/22 54/124/97 55/125/98 57/126/99
s 6
f 52/53/38 56/127/100 55/125/101 54/124/102
s 1
f 53/18/14 57/128/103 55/125/104 56/127/105
s 4
f 58/27/21 61/129/106 62/130/107 64/131/108
s 6
f 60/54/39 64/131/112 62/135/113 63/136/114
s 5
f 9/75/41 16/85/51 22/88/54 12/76/42
s 3
f 12/81/47 22/92/58 18/50/37 10/49/36
s 4
f 30/34/28 23/33/27 29/97/63 33/103/70
s 3
f 33/103/75 29/97/67 25/24/18 31/23/17
s 6
f 60/54/39 52/53/38 54/124/102 64/131/112
s 4
f 64/131/108 54/124/97 51/28/22 58/27/21
s 5
f 44/30/24 37/29/23 43/113/81 47/116/88
s 6
f 47/116/93 43/113/85 39/40/32 45/39/31
s 3
f 10/49/36 65/52/15 67/137/115 14/79/45
s 1
f 14/84/50 67/138/116 66/1/1 11/4/4
s 5
f 105/74/26 9/75/41 15/78/44 106/139/117
s 1
f 106/140/118 15/82/48 11/4/4 104/3/3
f 24/47/35 68/46/1 70/141/116 28/98/64
s 3
f 28/102/69 70/142/115 69/21/15 25/24/18
f 76/144/120 35/106/73 31/23/17 74/22/16
f 21/94/60 73/146/120 72/51/16 18/50/37
s 4
f 23/33/27 89/36/19 91/147/121 26/95/61
s 1
f 26/100/66 91/148/122 90/48/13 24/47/35
s 4
f 99/35/20 30/34/28 36/105/72 100/149/123
s 5
f 16/85/51 107/73/25 109/151/125 19/86/52
s 1
f 81/19/11 53/18/14 56/127/105 82/153/127
s 6
f 82/153/128 56/127/100 52/53/38 80/56/29
f 63/136/114 88/155/130 87/55/30 60/54/39
f 78/37/29 39/40/32 42/114/87 79/156/128
s 1
f 79/156/127 42/114/82 38/15/12 77/14/11
s 5
f 37/29/23 101/32/26 103/157/117 40/111/79
s 1
f 40/115/84 103/158/118 102/16/3 38/15/12
s 6
f 85/160/130 49/119/91 45/39/31 83/38/30
s 4
f 93/25/19 51/28/22 57/126/99 94/161/121
s 1
f 94/162/122 57/128/103 53/18/14 92/17/13
s 5
f 111/31/25 44/30/24 50/118/90 112/163/125
s 4
f 58/27/21 95/26/20 97/164/123 61/129/106
s 1
f 104/3/3 102/16/3 103/158/118 106/140/118
s 5
f 106/139/117 103/157/117 101/32/26 105/74/26
s 2
f 110/72/7 108/71/7 109/166/126 112/167/126
s 5
f 112/163/125 109/151/125 107/73/25 111/31/25
s 4
f 95/26/20 99/35/20 100/149/123 97/164/123
s 2
f 97/168/124 100/169/124 98/65/10 96/66/10
s 1
f 92/17/13 90/48/13 91/148/122 94/162/122
s 4
f 94/161/121 91/147/121 89/36/19 93/25/19
s 6
f 83/38/30 87/55/30 88/155/130 85/160/130
s 2
f 85/170/129 88/171/129 86/60/5 84/59/5
s 3
f 74/22/16 72/51/16 73/146/120 76/144/120
s 2
f 76/172/119 73/173/119 71/61/34 75/64/34
s 3
f 65/52/15 69/21/15 70/142/115 67/137/115
s 1
f 67/138/116 70/141/116 68/46/1 66/1/1
s 6
f 80/56/29 78/37/29 79/156/128 82/153/128
s 1
f 82/153/127 79/156/127 77/14/11 81/19/11
s 5
f 105/74/26 107/73/25 16/85/51 9/75/41
s 2
usemtl TOMB_DETAIL
f 84/5/5 1/6/6 110/7/7 46/8/8
f 59/9/9 96/10/10 2/11/6 86/12/5
f 98/41/10 32/42/33 75/43/34 3/44/6
f 4/67/6 71/68/34 17/69/40 108/70/7
f 17/69/40 21/89/55 20/90/56 19/91/57
f 32/42/33 36/108/76 34/109/77 35/110/78
f 46/8/8 50/121/94 48/122/95 49/123/96
f 59/9/9 63/132/109 62/133/110 61/134/111
f 75/43/34 32/42/33 35/110/78 76/143/119
f 17/69/40 71/68/34 73/145/119 21/89/55
f 100/150/124 36/108/76 32/42/33 98/41/10
f 19/91/57 109/152/126 108/70/7 17/69/40
f 59/9/9 86/12/5 88/154/129 63/132/109
f 84/5/5 46/8/8 49/123/96 85/159/129
f 112/152/126 50/121/94 46/8/8 110/7/7
f 61/134/111 97/165/124 96/10/10 59/9/9
