# Blender 4.4.3
# www.blender.org
mtllib TOMB_WALL_3.mtl
o TOMB_WALL_3.007
v 0.500000 0.000000 0.500000
v -2.500000 0.000000 0.500000
v 0.500000 0.000000 0.300000
v -2.500000 0.000000 0.300000
v 0.500000 3.000000 0.500000
v -2.500000 3.000000 0.500000
v 0.500000 3.000000 0.300000
v -2.500000 3.000000 0.300000
v -2.119621 0.994583 0.294602
v -2.400281 1.994081 0.294602
v -1.963035 2.116861 0.294602
v -1.682375 1.117362 0.294602
v 0.500000 2.785000 0.315000
v 0.485000 2.785000 0.300000
v 0.515000 2.800000 0.285000
v 0.495607 2.785000 0.304393
v 0.500000 2.793661 0.300000
v 0.500000 2.795607 0.295607
v 0.504393 2.795607 0.300000
v -2.485000 2.785000 0.500000
v -2.515000 2.800000 0.515000
v -2.500000 2.785000 0.485000
v -2.500000 2.795607 0.504393
v -2.500000 2.793660 0.500000
v -2.504394 2.795607 0.500000
v -2.495606 2.785000 0.495607
v -2.515000 2.800000 0.285000
v -2.485000 2.785000 0.300000
v -2.500000 2.785000 0.315000
v -2.500000 2.795607 0.295607
v -2.500000 2.793660 0.300000
v -2.495606 2.785000 0.304393
v -2.504394 2.795607 0.300000
v 0.485000 2.785000 0.500000
v 0.500000 2.785000 0.485000
v 0.515000 2.800000 0.515000
v 0.495607 2.785000 0.495607
v 0.500000 2.793661 0.500000
v 0.504393 2.795607 0.500000
v 0.500000 2.795607 0.504393
v -2.485000 0.315000 0.300000
v -2.515000 0.300000 0.285000
v -2.500000 0.315000 0.315000
v -2.500000 0.304393 0.295607
v -2.500000 0.306340 0.300000
v -2.504394 0.304393 0.300000
v -2.495606 0.315000 0.304393
v 0.485000 0.315000 0.300000
v 0.500000 0.315000 0.315000
v 0.515000 0.300000 0.285000
v 0.495607 0.315000 0.304393
v 0.500000 0.306340 0.300000
v 0.504393 0.304393 0.300000
v 0.500000 0.304393 0.295607
v -2.485000 0.315000 0.500000
v -2.500000 0.315000 0.485000
v -2.515000 0.300000 0.515000
v -2.495606 0.315000 0.495607
v -2.500000 0.306340 0.500000
v -2.504394 0.304393 0.500000
v -2.500000 0.304393 0.504393
v 0.485000 0.315000 0.500000
v 0.515000 0.300000 0.515000
v 0.500000 0.315000 0.485000
v 0.500000 0.304393 0.504393
v 0.500000 0.306340 0.500000
v 0.504393 0.304393 0.500000
v 0.495607 0.315000 0.495607
v 0.600000 0.015000 0.215000
v 0.585000 0.000000 0.215000
v 0.585000 0.015000 0.200000
v 0.595607 0.004393 0.215000
v 0.593660 0.006340 0.206340
v 0.585000 0.004393 0.204393
v 0.595607 0.015000 0.204393
v 0.600000 0.015000 0.585000
v 0.585000 0.015000 0.600000
v 0.585000 0.000000 0.585000
v 0.595607 0.015000 0.595607
v 0.593660 0.006340 0.593660
v 0.585000 0.004393 0.595607
v 0.595607 0.004393 0.585000
v -2.600000 0.015000 0.585000
v -2.585000 0.000000 0.585000
v -2.585000 0.015000 0.600000
v -2.595607 0.004393 0.585000
v -2.593660 0.006340 0.593660
v -2.585000 0.004393 0.595607
v -2.595607 0.015000 0.595607
v -2.600000 0.015000 0.215000
v -2.585000 0.015000 0.200000
v -2.585000 0.000000 0.215000
v -2.595606 0.015000 0.204393
v -2.593660 0.006340 0.206340
v -2.585000 0.004393 0.204393
v -2.595607 0.004393 0.215000
v 0.600000 2.985000 0.215000
v 0.585000 2.985000 0.200000
v 0.585000 3.000000 0.215000
v 0.595607 2.985000 0.204393
v 0.593660 2.993660 0.206340
v 0.585000 2.995606 0.204393
v 0.595607 2.995606 0.215000
v 0.600000 2.985000 0.585000
v 0.585000 3.000000 0.585000
v 0.585000 2.985000 0.600000
v 0.595607 2.995606 0.585000
v 0.593660 2.993660 0.593660
v 0.585000 2.995606 0.595607
v 0.595607 2.985000 0.595607
v -2.600000 2.985000 0.585000
v -2.585000 2.985000 0.600000
v -2.585000 3.000000 0.585000
v -2.595607 2.985000 0.595607
v -2.593660 2.993660 0.593660
v -2.585000 2.995606 0.595607
v -2.595607 2.995606 0.585000
v -2.600000 2.985000 0.215000
v -2.585000 3.000000 0.215000
v -2.585000 2.985000 0.200000
v -2.595607 2.995606 0.215000
v -2.593660 2.993660 0.206340
v -2.585000 2.995606 0.204393
v -2.595606 2.985000 0.204393
v 0.600000 2.815000 0.215000
v 0.585000 2.800000 0.215000
v 0.585000 2.815000 0.200000
v 0.595607 2.804394 0.215000
v 0.593660 2.806340 0.206340
v 0.585000 2.804394 0.204393
v 0.595607 2.815001 0.204393
v -2.585000 2.815000 0.600000
v -2.600000 2.815000 0.585000
v -2.585000 2.800000 0.585000
v -2.595607 2.815000 0.595607
v -2.593660 2.806340 0.593660
v -2.595607 2.804393 0.585000
v -2.585000 2.804393 0.595607
v -2.585000 0.285000 0.200000
v -2.600000 0.285000 0.215000
v -2.585000 0.300000 0.215000
v -2.595606 0.285000 0.204393
v -2.593660 0.293660 0.206340
v -2.595607 0.295607 0.215000
v -2.585000 0.295607 0.204393
v 0.585000 2.815000 0.600000
v 0.585000 2.800000 0.585000
v 0.600000 2.815000 0.585000
v 0.585000 2.804394 0.595607
v 0.593660 2.806340 0.593660
v 0.595607 2.804394 0.585000
v 0.595607 2.815001 0.595607
v -2.585000 2.815000 0.200000
v -2.585000 2.800000 0.215000
v -2.600000 2.815000 0.215000
v -2.585000 2.804394 0.204393
v -2.593660 2.806340 0.206340
v -2.595607 2.804394 0.215000
v -2.595607 2.815001 0.204393
v 0.585000 0.285000 0.200000
v 0.585000 0.300000 0.215000
v 0.600000 0.285000 0.215000
v 0.585000 0.295607 0.204393
v 0.593660 0.293660 0.206340
v 0.595607 0.295607 0.215000
v 0.595607 0.285000 0.204393
v -2.585000 0.285000 0.600000
v -2.585000 0.300000 0.585000
v -2.600000 0.285000 0.585000
v -2.585000 0.295607 0.595607
v -2.593660 0.293660 0.593660
v -2.595607 0.295607 0.585000
v -2.595607 0.285000 0.595607
v 0.585000 0.285000 0.600000
v 0.600000 0.285000 0.585000
v 0.585000 0.300000 0.585000
v 0.595607 0.285000 0.595607
v 0.593660 0.293660 0.593660
v 0.595607 0.295607 0.585000
v 0.585000 0.295607 0.595607
vn -0.0000 1.0000 -0.0000
vn 0.1794 -0.1794 0.9673
vn 0.1794 0.1794 0.9673
vn -0.1794 0.1794 0.9673
vn -0.1794 -0.1794 0.9673
vn -0.0507 0.9974 -0.0507
vn 0.0507 0.9974 -0.0507
vn 0.1794 0.9673 -0.1794
vn -0.1794 0.9673 -0.1794
vn 0.0507 -0.9974 0.0507
vn 0.0507 -0.9974 -0.0507
vn 0.1794 -0.9673 -0.1794
vn 0.1794 -0.9673 0.1794
vn -0.0507 -0.9974 -0.0507
vn -0.1794 -0.9673 -0.1794
vn 0.1105 0.1751 0.9783
vn 0.1105 -0.1751 0.9783
vn -0.1105 -0.1751 0.9783
vn -0.1105 0.1751 0.9783
vn -0.0507 0.9974 0.0507
vn -0.1794 0.9673 0.1794
vn -0.0507 -0.9974 0.0507
vn -0.1794 -0.9673 0.1794
vn -0.9673 -0.1794 -0.1794
vn -0.9673 -0.1794 0.1794
vn -0.9673 0.1794 0.1794
vn -0.9673 0.1794 -0.1794
vn 0.1794 -0.1794 -0.9673
vn -0.1794 -0.1794 -0.9673
vn -0.1794 0.1794 -0.9673
vn 0.1794 0.1794 -0.9673
vn -0.0000 -1.0000 -0.0000
vn 0.1794 0.9673 0.1794
vn 0.9673 -0.1794 0.1794
vn 0.9673 -0.1794 -0.1794
vn 0.9673 0.1794 -0.1794
vn 0.9673 0.1794 0.1794
vn 0.9783 0.1751 -0.1105
vn 0.9783 -0.1751 -0.1105
vn 0.9783 -0.1751 0.1105
vn 0.9783 0.1751 0.1105
vn 0.0507 0.9974 0.0507
vn -0.9783 0.1751 0.1105
vn -0.9783 -0.1751 0.1105
vn -0.9783 -0.1751 -0.1105
vn -0.9783 0.1751 -0.1105
vn -0.0000 -0.0000 1.0000
vn 0.6225 -0.6778 -0.3913
vn 0.5138 -0.6870 -0.5138
vn 0.3914 -0.6778 -0.6225
vn 0.3004 -0.9489 -0.0965
vn 0.2024 -0.9581 -0.2025
vn 0.0964 -0.9489 -0.3004
vn -0.3913 -0.6778 0.6225
vn -0.5138 -0.6870 0.5138
vn -0.3005 -0.9489 0.0965
vn -0.2025 -0.9581 0.2025
vn -0.0965 -0.9489 0.3005
vn -0.6225 -0.6778 0.3913
vn -0.0965 -0.9489 -0.3004
vn -0.2025 -0.9581 -0.2025
vn -0.3004 -0.9489 -0.0965
vn -0.3913 -0.6778 -0.6225
vn -0.5138 -0.6870 -0.5138
vn -0.6225 -0.6778 -0.3913
vn 0.3914 -0.6778 0.6225
vn 0.5138 -0.6870 0.5138
vn 0.6225 -0.6778 0.3913
vn 0.0965 -0.9489 0.3004
vn 0.2025 -0.9581 0.2025
vn 0.3005 -0.9489 0.0965
vn -0.3913 0.6778 -0.6225
vn -0.5138 0.6870 -0.5138
vn -0.3004 0.9489 -0.0965
vn -0.2025 0.9581 -0.2025
vn -0.0965 0.9489 -0.3004
vn -0.6225 0.6778 -0.3913
vn 0.3913 0.6778 -0.6225
vn 0.5138 0.6870 -0.5138
vn 0.6225 0.6778 -0.3913
vn 0.0965 0.9489 -0.3004
vn 0.2025 0.9581 -0.2025
vn 0.3004 0.9489 -0.0965
vn -0.3913 0.6778 0.6225
vn -0.5138 0.6870 0.5138
vn -0.6225 0.6778 0.3913
vn -0.0965 0.9489 0.3004
vn -0.2025 0.9581 0.2025
vn -0.3004 0.9489 0.0965
vn 0.3913 0.6778 0.6225
vn 0.5138 0.6870 0.5138
vn 0.3004 0.9489 0.0965
vn 0.2025 0.9581 0.2025
vn 0.0965 0.9489 0.3004
vn 0.6225 0.6778 0.3913
vn 0.9194 -0.3600 -0.1585
vn 0.8881 -0.3251 -0.3251
vn 0.9194 -0.1585 -0.3600
vn 0.1585 -0.9194 -0.3600
vn 0.3251 -0.8881 -0.3251
vn 0.3600 -0.9194 -0.1585
vn 0.3600 -0.1585 -0.9194
vn 0.3251 -0.3251 -0.8881
vn 0.1585 -0.3600 -0.9194
vn 0.9194 -0.1585 0.3600
vn 0.8881 -0.3251 0.3251
vn 0.9194 -0.3600 0.1585
vn 0.1585 -0.3600 0.9194
vn 0.3251 -0.3251 0.8881
vn 0.3600 -0.1585 0.9194
vn 0.3600 -0.9194 0.1585
vn 0.3251 -0.8881 0.3251
vn 0.1585 -0.9194 0.3600
vn -0.9194 -0.3600 0.1585
vn -0.8881 -0.3251 0.3251
vn -0.9194 -0.1585 0.3600
vn -0.1585 -0.9194 0.3600
vn -0.3251 -0.8881 0.3251
vn -0.3600 -0.9194 0.1585
vn -0.3600 -0.1585 0.9194
vn -0.3251 -0.3251 0.8881
vn -0.1585 -0.3600 0.9194
vn -0.9194 -0.1585 -0.3600
vn -0.8881 -0.3250 -0.3251
vn -0.9194 -0.3600 -0.1585
vn -0.1585 -0.3600 -0.9194
vn -0.3251 -0.3251 -0.8881
vn -0.3600 -0.1585 -0.9194
vn -0.3600 -0.9194 -0.1585
vn -0.3251 -0.8881 -0.3251
vn -0.1585 -0.9194 -0.3600
vn 0.9194 0.1585 -0.3600
vn 0.8881 0.3251 -0.3251
vn 0.9194 0.3600 -0.1585
vn 0.1585 0.3600 -0.9194
vn 0.3251 0.3251 -0.8881
vn 0.3600 0.1585 -0.9194
vn 0.3600 0.9194 -0.1585
vn 0.3251 0.8881 -0.3251
vn 0.1585 0.9194 -0.3600
vn 0.9194 0.3600 0.1585
vn 0.8881 0.3250 0.3251
vn 0.9194 0.1585 0.3600
vn 0.1585 0.9194 0.3600
vn 0.3251 0.8881 0.3251
vn 0.3600 0.9194 0.1585
vn 0.3600 0.1585 0.9194
vn 0.3251 0.3251 0.8881
vn 0.1585 0.3600 0.9194
vn -0.9194 0.1585 0.3600
vn -0.8881 0.3251 0.3251
vn -0.9194 0.3600 0.1585
vn -0.1585 0.3600 0.9194
vn -0.3251 0.3251 0.8881
vn -0.3600 0.1585 0.9194
vn -0.3600 0.9194 0.1585
vn -0.3251 0.8881 0.3251
vn -0.1585 0.9194 0.3600
vn -0.9194 0.3600 -0.1585
vn -0.8881 0.3250 -0.3251
vn -0.9194 0.1585 -0.3600
vn -0.1585 0.9194 -0.3600
vn -0.3251 0.8881 -0.3251
vn -0.3600 0.9194 -0.1585
vn -0.3600 0.1585 -0.9194
vn -0.3251 0.3251 -0.8881
vn -0.1585 0.3600 -0.9194
vn -0.3250 -0.3251 0.8881
vn -0.8881 -0.3251 0.3250
vn -0.3250 -0.8881 0.3250
vn -0.9194 -0.3599 -0.1585
vn 0.8881 0.3251 0.3251
vn 0.1105 0.1751 -0.9783
vn 0.1105 -0.1751 -0.9783
vn 0.3827 -0.0000 -0.9239
vn 0.9239 -0.0000 -0.3827
vn -0.3827 -0.0000 0.9239
vn -0.9239 -0.0000 0.3827
vn 0.9239 -0.0000 0.3827
vn 0.3827 -0.0000 0.9239
vn -0.9239 -0.3827 -0.0000
vn -0.0000 -0.3827 -0.9239
vn -0.1105 -0.1751 -0.9783
vn 0.9239 -0.3827 -0.0000
vn -0.0000 -0.3827 0.9239
vn -0.1105 0.1751 -0.9783
vn -0.3827 -0.0000 -0.9239
vn -0.9239 -0.0000 -0.3827
vn -0.9239 0.3827 -0.0000
vn 0.9239 0.3827 -0.0000
vn -0.0000 0.3827 -0.9239
vn -0.0000 0.3827 0.9239
vt 0.423242 0.013700
vt 0.423242 0.421103
vt 0.396082 0.421103
vt 0.396082 0.013700
vt 0.288999 0.545361
vt 0.325666 0.545361
vt 0.325666 0.975851
vt 0.288999 0.975851
vt 0.370720 0.423140
vt 0.370719 0.011663
vt 0.380226 0.002157
vt 0.380226 0.432646
vt 0.032418 0.570607
vt 0.032418 0.614715
vt 0.022433 0.614715
vt 0.022433 0.570607
vt 0.032418 1.070488
vt 0.022432 1.070488
vt 0.285210 0.568329
vt 0.036070 0.568329
vt 0.036070 0.117113
vt 0.285210 0.117113
vt 0.339485 0.423140
vt 0.329979 0.432646
vt 0.032418 0.114834
vt 0.022433 0.114834
vt 0.288999 0.052403
vt 0.288999 0.002157
vt 0.325666 0.002157
vt 0.325666 0.052403
vt 0.288999 0.486967
vt 0.288999 0.056477
vt 0.325666 0.056477
vt 0.325666 0.486967
vt 0.018780 1.068351
vt 0.001633 1.068351
vt 0.001633 0.616851
vt 0.018780 0.616851
vt 0.018780 0.568471
vt 0.001633 0.568471
vt 0.001633 0.116971
vt 0.018780 0.116971
vt 0.018780 1.072142
vt 0.018780 1.112941
vt 0.001633 1.112941
vt 0.001633 1.072142
vt 0.368682 0.448503
vt 0.368682 0.855906
vt 0.341522 0.855906
vt 0.341522 0.448503
vt 0.380225 0.436960
vt 0.380225 0.867449
vt 0.384539 0.002157
vt 0.434785 0.002157
vt 0.434785 0.432646
vt 0.384539 0.432646
vt 0.329979 0.867449
vt 0.288999 0.541287
vt 0.288999 0.491041
vt 0.325666 0.491041
vt 0.325666 0.541287
vt 0.285210 0.611406
vt 0.036070 0.611406
vt 0.036070 0.573915
vt 0.285210 0.573915
vt 0.339485 0.011663
vt 0.329979 0.002157
vt 0.329979 0.436960
vt 0.285210 1.111287
vt 0.036070 1.111287
vt 0.036070 1.073796
vt 0.285210 1.073796
vt 0.018780 0.572261
vt 0.018780 0.613060
vt 0.001633 0.613060
vt 0.001633 0.572261
vt 0.032418 1.114595
vt 0.022433 1.114595
vt 0.003588 0.691249
vt 0.999333 0.691249
vt 0.999333 0.997860
vt 0.003588 0.997860
vt 0.036070 0.614715
vt 0.034771 0.614715
vt 0.034557 0.614715
vt 0.036070 0.616993
vt 0.034557 0.114834
vt 0.036070 0.114834
vt 0.034557 1.114595
vt 0.036070 1.114595
vt 0.035197 1.114595
vt 0.034557 1.070488
vt 0.034771 1.070488
vt 0.036070 1.068209
vt 0.036070 1.070488
vt 0.036070 0.570607
vt 0.034771 0.570607
vt 0.034557 0.570607
vt 0.285210 1.068209
vt 0.286723 1.070488
vt 0.285210 1.070488
vt 0.368683 0.421103
vt 0.286084 1.070488
vt 0.285210 0.616993
vt 0.285210 0.614715
vt 0.286084 0.614715
vt 0.286723 0.614715
vt 0.368682 0.013700
vt 0.368682 0.013700
vt 0.285210 0.114834
vt 0.286084 0.114834
vt 0.286723 0.114834
vt 0.286723 1.114595
vt 0.285210 1.114595
vt 0.341522 0.421103
vt 0.341522 0.421103
vt 0.286723 0.570607
vt 0.285210 0.570607
vt 0.341522 0.013700
vt 0.286084 0.570607
vt 0.286962 0.491041
vt 0.286962 0.489865
vt 0.288999 0.489004
vt 0.327942 0.436960
vt 0.327942 0.435784
vt 0.329979 0.434923
vt 0.287823 0.489004
vt 0.286962 0.486967
vt 0.288999 0.543324
vt 0.287823 0.543324
vt 0.286962 0.541287
vt 0.286962 0.545361
vt 0.286962 0.544185
vt 0.380225 0.434923
vt 0.381401 0.434923
vt 0.382262 0.436960
vt 0.286962 0.002157
vt 0.286962 0.000981
vt 0.288999 0.000120
vt 0.382262 0.867449
vt 0.382262 0.868625
vt 0.380225 0.869486
vt 0.288999 0.977888
vt 0.287823 0.977888
vt 0.286962 0.975851
vt 0.288999 0.054440
vt 0.287823 0.054440
vt 0.286962 0.052403
vt 0.286962 0.056477
vt 0.286962 0.055301
vt 0.329979 0.869486
vt 0.328803 0.869486
vt 0.327942 0.867449
vt 0.001633 0.614715
vt 0.000759 0.614715
vt 0.000120 0.613060
vt 0.000120 0.616851
vt 0.000120 0.615617
vt 0.384539 0.434683
vt 0.383363 0.434683
vt 0.382502 0.432646
vt 0.000120 0.572261
vt 0.000120 0.571306
vt 0.001633 0.570607
vt 0.436822 0.432646
vt 0.436822 0.433822
vt 0.434785 0.434683
vt 0.000759 0.570607
vt 0.000120 0.568471
vt 0.001633 1.114595
vt 0.000759 1.114595
vt 0.000120 1.112941
vt 0.000120 0.116970
vt 0.000120 0.115737
vt 0.001633 0.114834
vt 0.434785 0.000120
vt 0.435961 0.000120
vt 0.436822 0.002157
vt 0.000120 1.072142
vt 0.000120 1.071187
vt 0.001633 1.070488
vt 0.382502 0.002157
vt 0.382502 0.000981
vt 0.384539 0.000120
vt 0.000759 1.070488
vt 0.000120 1.068351
vt 0.020293 0.613060
vt 0.020080 0.614782
vt 0.018780 0.614715
vt 0.020293 0.616851
vt 0.022433 0.612541
vt 0.018780 0.114834
vt 0.019653 0.114834
vt 0.020293 0.116970
vt 0.020293 1.112941
vt 0.020293 1.113896
vt 0.018780 1.114595
vt 0.020293 0.115737
vt 0.022433 0.112661
vt 0.325666 0.054440
vt 0.326842 0.054440
vt 0.327703 0.056477
vt 0.327703 0.052403
vt 0.327703 0.053579
vt 0.382263 0.432646
vt 0.382263 0.433822
vt 0.380226 0.434683
vt 0.020293 0.568471
vt 0.020080 0.570539
vt 0.018780 0.570607
vt 0.020293 0.572261
vt 0.022433 0.568661
vt 0.020293 1.068351
vt 0.020080 1.070420
vt 0.018780 1.070488
vt 0.020293 1.072142
vt 0.022432 1.068541
vt 0.327703 0.486967
vt 0.327703 0.488143
vt 0.325666 0.489004
vt 0.380226 0.000120
vt 0.381402 0.000120
vt 0.382263 0.002157
vt 0.326842 0.489004
vt 0.327703 0.491041
vt 0.327703 0.975851
vt 0.327703 0.977027
vt 0.325666 0.977888
vt 0.329979 0.434683
vt 0.328803 0.434683
vt 0.327942 0.432646
vt 0.325666 0.000120
vt 0.326842 0.000120
vt 0.327703 0.002157
vt 0.325666 0.543324
vt 0.326842 0.543324
vt 0.327703 0.545361
vt 0.327703 0.541287
vt 0.327703 0.542463
vt 0.327942 0.002157
vt 0.327942 0.000980
vt 0.329979 0.000120
vt 0.384539 0.000120
vt 0.436822 0.002157
vt 0.329979 0.000120
s 1
usemtl TOMB_BASE
f 6/1/1 5/2/1 7/3/1 8/4/1
s 2
f 77/5/2 174/6/3 167/7/4 85/8/5
s 5
f 62/19/16 34/20/17 20/21/18 55/22/19
s 6
f 90/27/24 83/28/25 169/29/26 140/30/27
s 7
f 71/31/28 91/32/29 139/33/30 160/34/31
s 8
f 153/35/29 120/36/30 98/37/31 127/38/28
s 9
f 146/39/2 106/40/3 112/41/4 132/42/5
s 10
f 155/43/24 133/44/25 111/45/26 118/46/27
s 11
f 1/47/32 2/48/32 4/49/32 3/50/32
f 2/48/32 1/47/32 78/51/13 84/52/23
s 1
f 6/1/1 8/4/1 119/53/9 113/54/21
f 5/2/1 6/1/1 113/54/21 105/55/33
f 7/3/1 5/2/1 105/55/33 99/56/8
s 11
f 4/49/32 2/48/32 84/52/23 92/57/15
s 1
f 8/4/1 7/3/1 99/56/8 119/53/9
s 12
f 76/58/34 69/59/35 162/60/36 175/61/37
s 13
f 49/62/38 13/63/39 35/64/40 64/65/41
s 11
f 1/47/32 3/50/32 70/68/12 78/51/13
s 14
f 56/69/43 22/70/44 29/71/45 43/72/46
s 15
f 148/73/34 125/74/35 97/75/36 104/76/37
s 11
f 3/50/32 4/49/32 92/57/15 70/68/12
s 17
f 13/63/48 16/83/49 17/84/49 19/85/48
f 14/86/50 18/85/50 17/84/49 16/83/49
s 18
f 20/21/54 23/87/54 24/87/55 26/88/55
f 22/70/59 26/90/55 24/91/55 25/89/59
s 19
f 28/94/63 32/95/64 31/93/64 30/92/63
f 29/71/65 33/92/65 31/93/64 32/95/64
s 20
f 34/20/66 37/96/67 38/97/67 40/98/66
f 35/64/68 39/98/68 38/97/67 37/96/67
s 21
f 41/99/72 44/100/72 45/100/73 47/101/73
f 43/72/77 47/101/73 45/103/73 46/100/77
s 22
f 48/104/78 51/105/79 52/106/79 54/107/78
f 49/62/80 53/107/80 52/107/79 51/105/79
s 23
f 55/22/84 58/110/85 59/111/85 61/112/84
f 56/69/86 60/113/86 59/113/85 58/114/85
s 24
f 62/19/90 65/117/90 66/117/91 68/118/91
f 64/65/95 68/118/91 66/120/91 67/117/95
s 12
f 69/59/35 72/121/96 73/122/97 75/123/98
s 11
f 70/68/12 74/124/99 73/125/100 72/126/101
s 7
f 71/31/28 75/123/102 73/127/103 74/128/104
s 12
f 76/58/34 79/129/105 80/130/106 82/131/107
s 2
f 77/5/2 81/132/108 80/133/109 79/129/110
s 11
f 78/51/13 82/134/111 80/135/112 81/136/113
s 6
f 83/28/25 86/137/114 87/138/115 89/139/116
s 11
f 84/52/23 88/140/117 87/141/118 86/142/119
s 2
f 85/8/5 89/143/120 87/144/121 88/145/122
s 6
f 90/27/24 93/146/123 94/147/124 96/148/125
s 7
f 91/32/29 95/149/126 94/150/127 93/146/128
s 11
f 92/57/15 96/151/129 94/152/130 95/153/131
s 15
f 97/75/36 100/154/132 101/155/133 103/156/134
s 8
f 98/37/31 102/157/135 101/158/136 100/154/137
s 1
f 99/56/8 103/159/138 101/160/139 102/161/140
s 15
f 104/76/37 107/162/141 108/163/142 110/164/143
s 1
f 105/55/33 109/165/144 108/166/145 107/167/146
s 9
f 106/40/3 110/164/147 108/168/148 109/169/149
s 10
f 111/45/26 114/170/150 115/171/151 117/172/152
s 9
f 112/41/4 116/173/153 115/174/154 114/175/155
s 1
f 113/54/21 117/176/156 115/177/157 116/178/158
s 10
f 118/46/27 121/179/159 122/180/160 124/181/161
s 1
f 119/53/9 123/182/162 122/183/163 121/184/164
s 8
f 120/36/30 124/181/165 122/185/166 123/186/167
s 15
f 125/74/35 128/187/96 129/188/97 131/189/98
s 8
f 127/38/28 131/189/102 129/188/103 130/190/104
s 9
f 132/42/5 135/192/120 136/193/168 138/194/122
s 10
f 133/44/25 137/195/114 136/196/169 135/197/116
s 7
f 139/33/30 142/200/165 143/201/166 145/202/167
s 6
f 140/30/27 144/203/159 143/204/160 142/200/161
s 9
f 146/39/2 149/208/108 150/209/109 152/210/110
s 15
f 148/73/34 152/210/105 150/209/106 151/211/107
s 8
f 153/35/29 156/213/126 157/214/127 159/215/128
s 10
f 155/43/24 159/215/123 157/214/124 158/216/171
s 7
f 160/34/31 163/218/135 164/219/136 166/220/137
s 12
f 162/60/36 166/220/132 164/224/133 165/225/134
s 2
f 167/7/4 170/226/153 171/227/154 173/228/155
s 6
f 169/29/26 173/232/150 171/233/151 172/234/152
s 2
f 174/6/3 177/235/147 178/236/148 180/237/149
s 12
f 175/61/37 179/238/141 178/239/172 177/235/143
s 25
f 48/104/173 14/86/174 16/83/175 51/105/175
s 13
f 51/105/176 16/83/176 13/63/39 49/62/38
s 5
f 55/22/19 20/21/18 26/88/177 58/110/177
s 14
f 58/114/178 26/90/178 22/70/44 56/69/43
s 13
f 64/65/41 35/64/40 37/96/179 68/118/179
s 5
f 68/118/180 37/96/180 34/20/17 62/19/16
s 14
f 25/89/181 33/92/181 29/71/45 22/70/44
s 25
f 30/92/182 18/85/182 14/86/174 28/94/183
s 13
f 19/85/184 39/98/184 35/64/40 13/63/39
s 5
f 40/98/185 23/87/185 20/21/18 34/20/17
s 25
f 28/94/183 41/99/186 47/101/187 32/95/187
s 14
f 32/95/188 47/101/188 43/72/46 29/71/45
f 56/69/43 43/72/46 46/100/189 60/113/189
s 13
f 49/62/38 64/65/41 67/117/190 53/107/190
s 25
f 41/99/186 48/104/173 54/107/191 44/100/191
s 5
f 62/19/16 55/22/19 61/112/192 65/117/192
s 12
f 69/59/35 76/58/34 82/131/107 72/121/96
s 11
f 72/126/101 82/134/111 78/51/13 70/68/12
s 6
f 83/28/25 90/27/24 96/148/125 86/137/114
s 11
f 86/142/119 96/151/129 92/57/15 84/52/23
s 2
f 77/5/2 85/8/5 88/145/122 81/132/108
s 11
f 81/136/113 88/140/117 84/52/23 78/51/13
f 70/68/12 92/57/15 95/153/131 74/124/99
s 7
f 74/128/104 95/149/126 91/32/29 71/31/28
s 1
f 99/56/8 105/55/33 107/167/146 103/159/138
s 15
f 103/156/134 107/162/141 104/76/37 97/75/36
s 1
f 113/54/21 119/53/9 121/243/164 117/176/156
s 10
f 117/172/152 121/179/159 118/46/27 111/45/26
s 1
f 105/55/33 113/54/21 116/244/158 109/165/144
s 9
f 109/169/149 116/173/153 112/41/4 106/40/3
s 8
f 98/37/31 120/36/30 123/186/167 102/157/135
s 1
f 102/161/140 123/182/162 119/53/9 99/56/8
s 8
f 127/38/28 98/37/31 100/154/137 131/189/102
s 15
f 131/189/98 100/154/132 97/75/36 125/74/35
s 9
f 132/42/5 112/41/4 114/175/155 135/192/120
s 10
f 135/197/116 114/170/150 111/45/26 133/44/25
s 7
f 139/33/30 91/32/29 93/146/128 142/200/165
s 6
f 142/200/161 93/146/123 90/27/24 140/30/27
s 15
f 148/73/34 104/76/37 110/164/143 152/210/105
s 9
f 152/210/110 110/164/147 106/40/3 146/39/2
s 8
f 120/36/30 153/35/29 159/215/128 124/181/165
s 10
f 124/181/161 159/215/123 155/43/24 118/46/27
f 133/44/25 155/43/24 158/216/171 137/195/114
s 8
f 153/35/29 127/38/28 130/190/104 156/213/126
s 15
f 125/74/35 148/73/34 151/211/107 128/187/96
s 9
f 146/39/2 132/42/5 138/194/122 149/208/108
s 7
f 71/31/28 160/34/31 166/220/137 75/123/102
s 12
f 75/123/98 166/220/132 162/60/36 69/59/35
s 2
f 85/8/5 167/7/4 173/228/155 89/143/120
s 6
f 89/139/116 173/232/150 169/29/26 83/28/25
s 12
f 76/58/34 175/61/37 177/235/143 79/129/105
s 2
f 79/129/110 177/235/147 174/6/3 77/5/2
s 6
f 172/234/152 144/203/159 140/30/27 169/29/26
s 12
f 165/225/134 179/238/141 175/61/37 162/60/36
s 7
f 145/202/167 163/218/135 160/34/31 139/33/30
s 2
f 180/237/149 170/226/153 167/7/4 174/6/3
s 25
f 48/104/173 41/99/186 28/94/183 14/86/174
s 3
usemtl TOMB_BASE-DARK
f 42/9/6 50/10/7 161/11/8 141/12/9
s 4
f 36/13/10 15/14/11 126/15/12 147/16/13
f 15/14/11 27/17/14 154/18/15 126/15/12
s 3
f 57/23/20 42/9/6 141/12/9 168/24/21
s 4
f 21/25/22 36/13/10 147/16/13 134/26/23
s 3
f 63/66/42 57/23/20 168/24/21 176/67/33
f 50/10/7 63/66/42 176/67/33 161/11/8
s 4
f 27/17/14 21/77/22 134/78/23 154/18/15
f 15/14/11 19/85/51 17/84/52 18/85/53
f 21/77/22 25/89/56 24/89/57 23/89/58
f 27/17/14 30/92/60 31/93/61 33/92/62
f 36/13/10 40/98/69 38/97/70 39/98/71
s 3
f 42/9/6 46/102/74 45/102/75 44/102/76
f 50/10/7 54/108/81 52/109/82 53/109/83
f 57/23/20 61/115/87 59/115/88 60/116/89
f 63/66/42 67/119/92 66/119/93 65/119/94
s 4
f 126/15/12 130/190/99 129/188/100 128/191/101
f 134/26/23 138/194/117 136/198/170 137/199/119
s 3
f 141/12/9 145/205/162 143/206/163 144/207/164
s 4
f 147/16/13 151/211/111 150/209/112 149/212/113
f 154/18/15 158/216/129 157/214/130 156/217/131
s 3
f 161/11/8 165/221/138 164/222/139 163/223/140
f 168/24/21 172/229/156 171/230/157 170/231/158
f 176/67/33 180/240/144 178/241/145 179/242/146
s 4
f 21/77/22 27/17/14 33/92/62 25/89/56
f 27/17/14 15/14/11 18/85/53 30/92/60
f 15/14/11 36/13/10 39/98/71 19/85/51
f 36/13/10 21/25/22 23/87/58 40/98/69
s 3
f 60/116/89 46/102/74 42/9/6 57/23/20
f 53/109/83 67/119/92 63/66/42 50/10/7
f 44/102/76 54/108/81 50/10/7 42/9/6
f 65/119/94 61/115/87 57/23/20 63/66/42
s 4
f 137/195/119 158/216/129 154/18/15 134/78/23
f 156/213/131 130/190/99 126/15/12 154/18/15
f 128/187/101 151/211/111 147/16/13 126/15/12
f 149/208/113 138/194/117 134/26/23 147/16/13
s 3
f 168/24/21 141/12/9 144/207/164 172/229/156
f 161/11/8 176/67/33 179/245/146 165/221/138
f 141/12/9 161/11/8 163/223/140 145/205/162
f 176/67/33 168/24/21 170/231/158 180/240/144
s 16
usemtl TAPE
f 12/79/47 11/80/47 10/81/47 9/82/47
