# Blender 4.4.3
# www.blender.org
mtllib TOMB_WALL_2_2.mtl
o TOMB_WALL_2_2.002
v 0.500000 0.000000 0.500000
v -1.500000 0.000000 0.500000
v 0.500000 0.000000 0.300000
v -1.500000 0.000000 0.300000
v 0.500000 2.000000 0.500000
v -1.500000 2.000000 0.500000
v 0.500000 2.000000 0.300000
v -1.500000 2.000000 0.300000
v 0.500000 1.785000 0.315000
v 0.485000 1.785000 0.300000
v 0.515000 1.800000 0.285000
v 0.495607 1.785000 0.304393
v 0.500000 1.793661 0.300000
v 0.500000 1.795607 0.295607
v 0.504393 1.795607 0.300000
v -1.485000 1.785000 0.500000
v -1.515000 1.800000 0.515000
v -1.500000 1.785000 0.485000
v -1.500000 1.795607 0.504393
v -1.500000 1.793661 0.500000
v -1.504393 1.795607 0.500000
v -1.495607 1.785000 0.495607
v -1.515000 1.800000 0.285000
v -1.485000 1.785000 0.300000
v -1.500000 1.785000 0.315000
v -1.500000 1.795607 0.295607
v -1.500000 1.793661 0.300000
v -1.495607 1.785000 0.304393
v -1.504393 1.795607 0.300000
v 0.485000 1.785000 0.500000
v 0.500000 1.785000 0.485000
v 0.515000 1.800000 0.515000
v 0.495607 1.785000 0.495607
v 0.500000 1.793661 0.500000
v 0.504393 1.795607 0.500000
v 0.500000 1.795607 0.504393
v -1.485000 0.315000 0.300000
v -1.515000 0.300000 0.285000
v -1.500000 0.315000 0.315000
v -1.500000 0.304393 0.295607
v -1.500000 0.306340 0.300000
v -1.504393 0.304393 0.300000
v -1.495607 0.315000 0.304393
v 0.485000 0.315000 0.300000
v 0.500000 0.315000 0.315000
v 0.515000 0.300000 0.285000
v 0.495607 0.315000 0.304393
v 0.500000 0.306340 0.300000
v 0.504393 0.304393 0.300000
v 0.500000 0.304393 0.295607
v -1.485000 0.315000 0.500000
v -1.500000 0.315000 0.485000
v -1.515000 0.300000 0.515000
v -1.495607 0.315000 0.495607
v -1.500000 0.306340 0.500000
v -1.504393 0.304393 0.500000
v -1.500000 0.304393 0.504393
v 0.485000 0.315000 0.500000
v 0.515000 0.300000 0.515000
v 0.500000 0.315000 0.485000
v 0.500000 0.304393 0.504393
v 0.500000 0.306340 0.500000
v 0.504393 0.304393 0.500000
v 0.495607 0.315000 0.495607
v 0.600000 0.015000 0.215000
v 0.585000 0.000000 0.215000
v 0.585000 0.015000 0.200000
v 0.595607 0.004393 0.215000
v 0.593660 0.006340 0.206340
v 0.585000 0.004393 0.204393
v 0.595607 0.015000 0.204393
v 0.600000 0.015000 0.585000
v 0.585000 0.015000 0.600000
v 0.585000 0.000000 0.585000
v 0.595607 0.015000 0.595607
v 0.593660 0.006340 0.593660
v 0.585000 0.004393 0.595607
v 0.595607 0.004393 0.585000
v -1.600000 0.015000 0.585000
v -1.585000 0.000000 0.585000
v -1.585000 0.015000 0.600000
v -1.595607 0.004393 0.585000
v -1.593660 0.006340 0.593660
v -1.585000 0.004393 0.595607
v -1.595607 0.015000 0.595607
v -1.600000 0.015000 0.215000
v -1.585000 0.015000 0.200000
v -1.585000 0.000000 0.215000
v -1.595607 0.015000 0.204393
v -1.593660 0.006340 0.206340
v -1.585000 0.004393 0.204393
v -1.595607 0.004393 0.215000
v 0.600000 1.985000 0.215000
v 0.585000 1.985000 0.200000
v 0.585000 2.000000 0.215000
v 0.595607 1.985000 0.204393
v 0.593660 1.993660 0.206340
v 0.585000 1.995607 0.204393
v 0.595607 1.995607 0.215000
v 0.600000 1.985000 0.585000
v 0.585000 2.000000 0.585000
v 0.585000 1.985000 0.600000
v 0.595607 1.995607 0.585000
v 0.593660 1.993660 0.593660
v 0.585000 1.995607 0.595607
v 0.595607 1.985000 0.595607
v -1.600000 1.985000 0.585000
v -1.585000 1.985000 0.600000
v -1.585000 2.000000 0.585000
v -1.595607 1.985000 0.595607
v -1.593660 1.993660 0.593660
v -1.585000 1.995607 0.595607
v -1.595607 1.995607 0.585000
v -1.600000 1.985000 0.215000
v -1.585000 2.000000 0.215000
v -1.585000 1.985000 0.200000
v -1.595607 1.995607 0.215000
v -1.593660 1.993660 0.206340
v -1.585000 1.995607 0.204393
v -1.595607 1.985000 0.204393
v 0.600000 1.815000 0.215000
v 0.585000 1.800000 0.215000
v 0.585000 1.815000 0.200000
v 0.595607 1.804393 0.215000
v 0.593660 1.806340 0.206340
v 0.585000 1.804393 0.204393
v 0.595607 1.815000 0.204393
v -1.585000 1.815000 0.600000
v -1.600000 1.815000 0.585000
v -1.585000 1.800000 0.585000
v -1.595607 1.815000 0.595607
v -1.593660 1.806340 0.593660
v -1.595607 1.804393 0.585000
v -1.585000 1.804393 0.595607
v -1.585000 0.285000 0.200000
v -1.600000 0.285000 0.215000
v -1.585000 0.300000 0.215000
v -1.595607 0.285000 0.204393
v -1.593660 0.293660 0.206340
v -1.595607 0.295607 0.215000
v -1.585000 0.295607 0.204393
v 0.585000 1.815000 0.600000
v 0.585000 1.800000 0.585000
v 0.600000 1.815000 0.585000
v 0.585000 1.804393 0.595607
v 0.593660 1.806340 0.593660
v 0.595607 1.804393 0.585000
v 0.595607 1.815000 0.595607
v -1.585000 1.815000 0.200000
v -1.585000 1.800000 0.215000
v -1.600000 1.815000 0.215000
v -1.585000 1.804393 0.204393
v -1.593660 1.806340 0.206340
v -1.595607 1.804393 0.215000
v -1.595607 1.815000 0.204393
v 0.585000 0.285000 0.200000
v 0.585000 0.300000 0.215000
v 0.600000 0.285000 0.215000
v 0.585000 0.295607 0.204393
v 0.593660 0.293660 0.206340
v 0.595607 0.295607 0.215000
v 0.595607 0.285000 0.204393
v -1.585000 0.285000 0.600000
v -1.585000 0.300000 0.585000
v -1.600000 0.285000 0.585000
v -1.585000 0.295607 0.595607
v -1.593660 0.293660 0.593660
v -1.595607 0.295607 0.585000
v -1.595607 0.285000 0.595607
v 0.585000 0.285000 0.600000
v 0.600000 0.285000 0.585000
v 0.585000 0.300000 0.585000
v 0.595607 0.285000 0.595607
v 0.593660 0.293660 0.593660
v 0.595607 0.295607 0.585000
v 0.585000 0.295607 0.595607
vn -0.0000 1.0000 -0.0000
vn 0.1794 -0.1794 0.9673
vn 0.1794 0.1794 0.9673
vn -0.1794 0.1794 0.9673
vn -0.1794 -0.1794 0.9673
vn -0.0507 0.9974 -0.0507
vn 0.0507 0.9974 -0.0507
vn 0.1794 0.9673 -0.1794
vn -0.1794 0.9673 -0.1794
vn 0.0507 -0.9974 0.0507
vn 0.0507 -0.9974 -0.0507
vn 0.1794 -0.9673 -0.1794
vn 0.1794 -0.9673 0.1794
vn -0.0507 -0.9974 -0.0507
vn -0.1794 -0.9673 -0.1794
vn 0.1105 0.1751 0.9783
vn 0.1105 -0.1751 0.9783
vn -0.1105 -0.1751 0.9783
vn -0.1105 0.1751 0.9783
vn -0.0507 0.9974 0.0507
vn -0.1794 0.9673 0.1794
vn -0.0507 -0.9974 0.0507
vn -0.1794 -0.9673 0.1794
vn -0.9673 -0.1794 -0.1794
vn -0.9673 -0.1794 0.1794
vn -0.9673 0.1794 0.1794
vn -0.9673 0.1794 -0.1794
vn 0.1794 -0.1794 -0.9673
vn -0.1794 -0.1794 -0.9673
vn -0.1794 0.1794 -0.9673
vn 0.1794 0.1794 -0.9673
vn -0.0000 -1.0000 -0.0000
vn 0.1794 0.9673 0.1794
vn 0.9673 -0.1794 0.1794
vn 0.9673 -0.1794 -0.1794
vn 0.9673 0.1794 -0.1794
vn 0.9673 0.1794 0.1794
vn 0.9783 0.1751 -0.1105
vn 0.9783 -0.1751 -0.1105
vn 0.9783 -0.1751 0.1105
vn 0.9783 0.1751 0.1105
vn 0.0507 0.9974 0.0507
vn -0.9783 0.1751 0.1105
vn -0.9783 -0.1751 0.1105
vn -0.9783 -0.1751 -0.1105
vn -0.9783 0.1751 -0.1105
vn 0.6225 -0.6778 -0.3913
vn 0.5138 -0.6870 -0.5138
vn 0.3913 -0.6778 -0.6225
vn 0.3004 -0.9489 -0.0965
vn 0.2025 -0.9581 -0.2025
vn 0.0965 -0.9489 -0.3004
vn -0.3913 -0.6778 0.6225
vn -0.5138 -0.6870 0.5138
vn -0.3004 -0.9489 0.0965
vn -0.2025 -0.9581 0.2025
vn -0.0964 -0.9489 0.3004
vn -0.6225 -0.6778 0.3913
vn -0.0965 -0.9489 -0.3004
vn -0.2025 -0.9581 -0.2025
vn -0.3004 -0.9489 -0.0964
vn -0.3913 -0.6778 -0.6225
vn -0.5138 -0.6870 -0.5138
vn -0.6225 -0.6778 -0.3913
vn 0.3913 -0.6778 0.6225
vn 0.5138 -0.6870 0.5138
vn 0.6225 -0.6778 0.3913
vn 0.0964 -0.9489 0.3004
vn 0.2025 -0.9581 0.2025
vn 0.3004 -0.9489 0.0965
vn -0.3913 0.6778 -0.6225
vn -0.5138 0.6870 -0.5138
vn -0.3004 0.9489 -0.0965
vn -0.2025 0.9581 -0.2025
vn -0.0965 0.9489 -0.3004
vn -0.6225 0.6778 -0.3913
vn 0.3913 0.6778 -0.6225
vn 0.5138 0.6870 -0.5138
vn 0.6225 0.6778 -0.3913
vn 0.0965 0.9489 -0.3004
vn 0.2025 0.9581 -0.2025
vn 0.3004 0.9489 -0.0965
vn -0.3913 0.6778 0.6225
vn -0.5138 0.6870 0.5138
vn -0.6225 0.6778 0.3913
vn -0.0965 0.9489 0.3004
vn -0.2025 0.9581 0.2025
vn -0.3004 0.9489 0.0965
vn 0.3913 0.6778 0.6225
vn 0.5138 0.6870 0.5138
vn 0.3004 0.9489 0.0965
vn 0.2025 0.9581 0.2025
vn 0.0965 0.9489 0.3004
vn 0.6225 0.6778 0.3913
vn 0.9194 -0.3600 -0.1585
vn 0.8881 -0.3251 -0.3251
vn 0.9194 -0.1585 -0.3600
vn 0.1585 -0.9194 -0.3600
vn 0.3251 -0.8881 -0.3251
vn 0.3600 -0.9194 -0.1585
vn 0.3600 -0.1585 -0.9194
vn 0.3251 -0.3251 -0.8881
vn 0.1585 -0.3600 -0.9194
vn 0.9194 -0.1585 0.3600
vn 0.8881 -0.3251 0.3251
vn 0.9194 -0.3600 0.1585
vn 0.1585 -0.3600 0.9194
vn 0.3251 -0.3251 0.8881
vn 0.3600 -0.1585 0.9194
vn 0.3600 -0.9194 0.1585
vn 0.3251 -0.8881 0.3251
vn 0.1585 -0.9194 0.3600
vn -0.9194 -0.3600 0.1585
vn -0.8881 -0.3251 0.3251
vn -0.9194 -0.1585 0.3600
vn -0.1585 -0.9194 0.3600
vn -0.3251 -0.8881 0.3251
vn -0.3600 -0.9194 0.1585
vn -0.3600 -0.1585 0.9194
vn -0.3251 -0.3251 0.8881
vn -0.1585 -0.3600 0.9194
vn -0.9194 -0.1585 -0.3600
vn -0.8881 -0.3251 -0.3251
vn -0.9194 -0.3600 -0.1585
vn -0.1585 -0.3600 -0.9194
vn -0.3251 -0.3251 -0.8881
vn -0.3600 -0.1585 -0.9194
vn -0.3600 -0.9194 -0.1585
vn -0.3251 -0.8881 -0.3251
vn -0.1585 -0.9194 -0.3600
vn 0.9194 0.1585 -0.3600
vn 0.8881 0.3251 -0.3251
vn 0.9194 0.3600 -0.1585
vn 0.1585 0.3600 -0.9194
vn 0.3251 0.3251 -0.8881
vn 0.3600 0.1585 -0.9194
vn 0.3600 0.9194 -0.1585
vn 0.3251 0.8881 -0.3251
vn 0.1585 0.9194 -0.3600
vn 0.9194 0.3600 0.1585
vn 0.8881 0.3251 0.3251
vn 0.9194 0.1585 0.3600
vn 0.1585 0.9194 0.3600
vn 0.3251 0.8881 0.3251
vn 0.3600 0.9194 0.1585
vn 0.3600 0.1585 0.9194
vn 0.3251 0.3251 0.8881
vn 0.1585 0.3600 0.9194
vn -0.9194 0.1585 0.3600
vn -0.8881 0.3251 0.3251
vn -0.9194 0.3600 0.1585
vn -0.1585 0.3600 0.9194
vn -0.3251 0.3251 0.8881
vn -0.3600 0.1585 0.9194
vn -0.3600 0.9194 0.1585
vn -0.3251 0.8881 0.3251
vn -0.1585 0.9194 0.3600
vn -0.9194 0.3600 -0.1585
vn -0.8881 0.3251 -0.3251
vn -0.9194 0.1585 -0.3600
vn -0.1585 0.9194 -0.3600
vn -0.3251 0.8881 -0.3251
vn -0.3600 0.9194 -0.1585
vn -0.3600 0.1585 -0.9194
vn -0.3250 0.3251 -0.8881
vn -0.1585 0.3600 -0.9194
vn -0.3251 0.3251 -0.8881
vn 0.1105 0.1751 -0.9783
vn 0.1105 -0.1751 -0.9783
vn 0.3827 -0.0000 -0.9239
vn 0.9239 -0.0000 -0.3827
vn -0.3827 -0.0000 0.9239
vn -0.9239 -0.0000 0.3827
vn 0.9239 -0.0000 0.3827
vn 0.3827 -0.0000 0.9239
vn -0.9239 -0.3827 -0.0000
vn -0.0000 -0.3827 -0.9239
vn -0.1105 -0.1751 -0.9783
vn 0.9239 -0.3827 -0.0000
vn -0.0000 -0.3827 0.9239
vn -0.1105 0.1751 -0.9783
vn -0.3827 -0.0000 -0.9239
vn -0.9239 -0.0000 -0.3827
vn -0.9239 0.3827 -0.0000
vn 0.9239 0.3827 -0.0000
vn -0.0000 0.3827 -0.9239
vn -0.0000 0.3827 0.9239
vt 0.693821 0.019556
vt 0.693821 0.407773
vt 0.655000 0.407773
vt 0.655000 0.019556
vt 0.585658 0.565464
vt 0.632686 0.565464
vt 0.632686 0.996873
vt 0.585658 0.996873
vt 0.652088 0.443973
vt 0.652088 0.838013
vt 0.638501 0.851601
vt 0.638501 0.430386
vt 0.229942 0.370020
vt 0.229942 0.422859
vt 0.073041 0.422859
vt 0.073041 0.370020
vt 0.229942 0.792733
vt 0.073041 0.792733
vt 0.555177 0.367246
vt 0.266509 0.367246
vt 0.266509 0.002919
vt 0.555177 0.002919
vt 0.696733 0.443973
vt 0.710321 0.430386
vt 0.229942 0.000145
vt 0.073041 0.000145
vt 0.585658 0.060284
vt 0.585658 0.002488
vt 0.632686 0.002488
vt 0.632686 0.060284
vt 0.585658 0.497018
vt 0.585658 0.065609
vt 0.632686 0.065609
vt 0.632686 0.497018
vt 0.051202 0.790211
vt 0.184735 0.790211
vt 0.184735 0.425381
vt 0.051202 0.425381
vt 0.051202 0.367498
vt 0.184735 0.367498
vt 0.184736 0.002667
vt 0.051202 0.002667
vt 0.051202 0.794715
vt 0.051202 0.843591
vt 0.184735 0.843591
vt 0.184735 0.794715
vt 0.713522 0.388362
vt 0.713522 0.000145
vt 0.752344 0.000145
vt 0.752344 0.388362
vt 0.558413 0.999855
vt 0.558413 0.562482
vt 0.579351 0.562482
vt 0.579350 0.999855
vt 0.638501 0.003057
vt 0.710320 0.003057
vt 0.710321 0.424272
vt 0.638501 0.424272
vt 0.558413 0.062627
vt 0.558413 0.000145
vt 0.579351 0.000145
vt 0.579351 0.062627
vt 0.585658 0.560139
vt 0.585658 0.502343
vt 0.632686 0.502343
vt 0.632686 0.560139
vt 0.555177 0.418896
vt 0.266509 0.418896
vt 0.266509 0.373983
vt 0.555177 0.373983
vt 0.696733 0.838013
vt 0.710321 0.851601
vt 0.558413 0.500000
vt 0.579351 0.500000
vt 0.555177 0.841610
vt 0.266509 0.841610
vt 0.266509 0.796696
vt 0.555177 0.796696
vt 0.051202 0.372001
vt 0.051202 0.420877
vt 0.184735 0.420878
vt 0.184735 0.372001
vt 0.229942 0.845573
vt 0.073041 0.845573
vt 0.266509 0.422859
vt 0.263979 0.422859
vt 0.263564 0.422859
vt 0.266509 0.425633
vt 0.263564 0.000145
vt 0.266509 0.000145
vt 0.263564 0.845573
vt 0.266509 0.845573
vt 0.264809 0.845573
vt 0.263564 0.792733
vt 0.263979 0.792733
vt 0.266509 0.789959
vt 0.266509 0.792733
vt 0.266509 0.370020
vt 0.263979 0.370020
vt 0.263564 0.370020
vt 0.555177 0.789959
vt 0.558123 0.792733
vt 0.555177 0.792733
vt 0.655000 0.446885
vt 0.556878 0.792733
vt 0.555177 0.425633
vt 0.555177 0.422859
vt 0.556878 0.422859
vt 0.558123 0.422859
vt 0.655000 0.835102
vt 0.555177 0.000145
vt 0.556878 0.000145
vt 0.558123 0.000145
vt 0.558123 0.845573
vt 0.555177 0.845573
vt 0.693821 0.446885
vt 0.558123 0.370020
vt 0.555177 0.370020
vt 0.693821 0.835102
vt 0.556878 0.370020
vt 0.583045 0.502343
vt 0.583414 0.499910
vt 0.585658 0.500000
vt 0.583045 0.497018
vt 0.579351 0.503059
vt 0.585658 0.562482
vt 0.583414 0.562572
vt 0.583045 0.560139
vt 0.583045 0.565464
vt 0.579351 0.565240
vt 0.583045 0.002488
vt 0.583045 0.001136
vt 0.585658 0.000145
vt 0.583045 0.996873
vt 0.583045 0.998594
vt 0.579350 1.002913
vt 0.585658 0.999855
vt 0.584150 0.999855
vt 0.585658 0.062627
vt 0.583414 0.062717
vt 0.583045 0.060284
vt 0.583045 0.065609
vt 0.579351 0.065385
vt 0.184736 0.422859
vt 0.191538 0.422859
vt 0.196518 0.420878
vt 0.196518 0.425381
vt 0.196518 0.423925
vt 0.638500 0.427184
vt 0.636819 0.427184
vt 0.635589 0.424272
vt 0.196518 0.372001
vt 0.196518 0.370857
vt 0.184736 0.370020
vt 0.713232 0.424272
vt 0.713232 0.425953
vt 0.710321 0.427184
vt 0.191538 0.370020
vt 0.196518 0.367498
vt 0.184736 0.845572
vt 0.191538 0.845572
vt 0.196518 0.843591
vt 0.196518 0.002667
vt 0.196518 0.001211
vt 0.184736 0.000145
vt 0.710321 0.000145
vt 0.712002 0.000145
vt 0.713232 0.003057
vt 0.196518 0.794715
vt 0.196518 0.793571
vt 0.184736 0.792733
vt 0.635589 0.003057
vt 0.635589 0.001376
vt 0.638500 0.000145
vt 0.191538 0.792733
vt 0.196518 0.790211
vt 0.039420 0.420877
vt 0.041080 0.422935
vt 0.051202 0.422859
vt 0.039420 0.425381
vt 0.073041 0.420272
vt 0.051202 0.000145
vt 0.044399 0.000145
vt 0.039420 0.002667
vt 0.039420 0.843591
vt 0.039420 0.844735
vt 0.051202 0.845573
vt 0.039420 0.002667
vt 0.039420 0.001211
vt 0.073041 -0.002441
vt 0.632686 0.062627
vt 0.634194 0.062627
vt 0.635299 0.065609
vt 0.635299 0.060284
vt 0.635299 0.061637
vt 0.635589 0.430386
vt 0.635589 0.428705
vt 0.638501 0.427474
vt 0.039420 0.367498
vt 0.041080 0.369944
vt 0.051202 0.370020
vt 0.039420 0.372001
vt 0.073041 0.367688
vt 0.039420 0.790212
vt 0.041080 0.792657
vt 0.051202 0.792733
vt 0.039420 0.794715
vt 0.073041 0.790401
vt 0.635299 0.497018
vt 0.635299 0.498740
vt 0.632686 0.500000
vt 0.638500 0.854512
vt 0.636819 0.854512
vt 0.635589 0.851601
vt 0.634194 0.500000
vt 0.635299 0.502343
vt 0.635299 0.996873
vt 0.635299 0.998594
vt 0.632686 0.999855
vt 0.710321 0.427474
vt 0.712002 0.427474
vt 0.713232 0.430386
vt 0.632686 0.000145
vt 0.634194 0.000145
vt 0.635299 0.002488
vt 0.632686 0.562482
vt 0.634194 0.562482
vt 0.635299 0.565464
vt 0.635299 0.560139
vt 0.635299 0.561492
vt 0.713232 0.851601
vt 0.713232 0.853282
vt 0.710321 0.854512
vt 0.638501 0.000145
vt 0.713232 0.003057
vt 0.039420 0.002667
s 1
usemtl TOMB_BASE
f 6/1/1 5/2/1 7/3/1 8/4/1
s 2
f 73/5/2 170/6/3 163/7/4 81/8/5
s 3
f 38/9/6 46/10/7 157/11/8 137/12/9
s 4
f 32/13/10 11/14/11 122/15/12 143/16/13
f 11/14/11 23/17/14 150/18/15 122/15/12
s 5
f 58/19/16 30/20/17 16/21/18 51/22/19
s 3
f 53/23/20 38/9/6 137/12/9 164/24/21
s 4
f 17/25/22 32/13/10 143/16/13 130/26/23
s 6
f 86/27/24 79/28/25 165/29/26 136/30/27
s 7
f 67/31/28 87/32/29 135/33/30 156/34/31
s 8
f 149/35/29 116/36/30 94/37/31 123/38/28
s 9
f 142/39/2 102/40/3 108/41/4 128/42/5
s 10
f 151/43/24 129/44/25 107/45/26 114/46/27
s 11
f 1/47/32 2/48/32 4/49/32 3/50/32
f 2/51/32 1/52/32 74/53/13 80/54/23
s 1
f 6/1/1 8/4/1 115/55/9 109/56/21
f 5/2/1 6/1/1 109/56/21 101/57/33
f 7/3/1 5/2/1 101/57/33 95/58/8
s 11
f 4/59/32 2/60/32 80/61/23 88/62/15
s 1
f 8/4/1 7/3/1 95/58/8 115/55/9
s 12
f 72/63/34 65/64/35 158/65/36 171/66/37
s 13
f 45/67/38 9/68/39 31/69/40 60/70/41
s 3
f 59/71/42 53/23/20 164/24/21 172/72/33
s 11
f 1/52/32 3/73/32 66/74/12 74/53/13
s 14
f 52/75/43 18/76/44 25/77/45 39/78/46
s 3
f 46/10/7 59/71/42 172/72/33 157/11/8
s 15
f 144/79/34 121/80/35 93/81/36 100/82/37
s 4
f 23/17/14 17/83/22 130/84/23 150/18/15
s 11
f 3/73/32 4/59/32 88/62/15 66/74/12
s 16
f 9/68/47 12/85/48 13/86/48 15/87/47
f 10/88/49 14/87/49 13/86/48 12/85/48
s 4
f 11/14/11 15/87/50 13/86/51 14/87/52
s 17
f 16/21/53 19/89/53 20/89/54 22/90/54
s 4
f 17/83/22 21/91/55 20/91/56 19/91/57
s 17
f 18/76/58 22/92/54 20/93/54 21/91/58
s 4
f 23/17/14 26/94/59 27/95/60 29/94/61
s 18
f 24/96/62 28/97/63 27/95/63 26/94/62
f 25/77/64 29/94/64 27/95/63 28/97/63
s 19
f 30/20/65 33/98/66 34/99/66 36/100/65
f 31/69/67 35/100/67 34/99/66 33/98/66
s 4
f 32/13/10 36/100/68 34/99/69 35/100/70
s 20
f 37/101/71 40/102/71 41/102/72 43/103/72
s 3
f 38/9/6 42/104/73 41/104/74 40/104/75
s 20
f 39/78/76 43/103/72 41/105/72 42/102/76
s 21
f 44/106/77 47/107/78 48/108/78 50/109/77
f 45/67/79 49/109/79 48/109/78 47/107/78
s 3
f 46/10/7 50/110/80 48/110/81 49/110/82
s 22
f 51/22/83 54/111/84 55/112/84 57/113/83
f 52/75/85 56/114/85 55/114/84 54/115/84
s 3
f 53/23/20 57/116/86 55/116/87 56/116/88
s 23
f 58/19/89 61/117/89 62/117/90 64/118/90
s 3
f 59/71/42 63/119/91 62/119/92 61/119/93
s 23
f 60/70/94 64/118/90 62/120/90 63/117/94
s 12
f 65/64/35 68/121/95 69/122/96 71/123/97
s 11
f 66/74/12 70/124/98 69/122/99 68/125/100
s 7
f 67/31/28 71/123/101 69/122/102 70/124/103
s 12
f 72/63/34 75/126/104 76/127/105 78/128/106
s 2
f 73/5/2 77/129/107 76/127/108 75/126/109
s 11
f 74/53/13 78/128/110 76/127/111 77/130/112
s 6
f 79/28/25 82/131/113 83/132/114 85/133/115
s 11
f 80/54/23 84/134/116 83/135/117 82/136/118
s 2
f 81/8/5 85/137/119 83/138/120 84/134/121
s 6
f 86/27/24 89/139/122 90/140/123 92/141/124
s 7
f 87/32/29 91/142/125 90/140/126 89/139/127
s 11
f 88/62/15 92/141/128 90/140/129 91/143/130
s 15
f 93/81/36 96/144/131 97/145/132 99/146/133
s 8
f 94/37/31 98/147/134 97/148/135 96/144/136
s 1
f 95/58/8 99/149/137 97/150/138 98/151/139
s 15
f 100/82/37 103/152/140 104/153/141 106/154/142
s 1
f 101/57/33 105/155/143 104/156/144 103/157/145
s 9
f 102/40/3 106/154/146 104/158/147 105/159/148
s 10
f 107/45/26 110/160/149 111/161/150 113/162/151
s 9
f 108/41/4 112/163/152 111/164/153 110/165/154
s 1
f 109/56/21 113/166/155 111/167/156 112/168/157
s 10
f 114/46/27 117/169/158 118/170/159 120/171/160
s 1
f 115/55/9 119/172/161 118/173/162 117/174/163
s 8
f 116/36/30 120/171/164 118/175/165 119/176/166
s 15
f 121/80/35 124/177/95 125/178/96 127/179/97
s 4
f 122/15/12 126/180/98 125/178/99 124/181/100
s 8
f 123/38/28 127/179/101 125/178/102 126/180/103
s 9
f 128/42/5 131/182/119 132/183/120 134/184/121
s 10
f 129/44/25 133/185/113 132/186/114 131/187/115
s 4
f 130/26/23 134/188/116 132/189/117 133/190/118
s 7
f 135/33/30 138/191/164 139/192/167 141/193/166
s 6
f 136/30/27 140/194/158 139/195/159 138/191/160
s 3
f 137/12/9 141/196/161 139/197/162 140/198/163
s 9
f 142/39/2 145/199/107 146/200/108 148/201/109
s 4
f 143/16/13 147/202/110 146/200/111 145/203/112
s 15
f 144/79/34 148/201/104 146/200/105 147/202/106
s 8
f 149/35/29 152/204/125 153/205/126 155/206/127
s 4
f 150/18/15 154/207/128 153/205/129 152/208/130
s 10
f 151/43/24 155/206/122 153/205/123 154/207/124
s 7
f 156/34/31 159/209/134 160/210/135 162/211/136
s 3
f 157/11/8 161/212/137 160/213/138 159/214/139
s 12
f 158/65/36 162/211/131 160/215/132 161/216/133
s 2
f 163/7/4 166/217/152 167/218/153 169/219/154
s 3
f 164/24/21 168/220/155 167/221/156 166/222/157
s 6
f 165/29/26 169/223/149 167/224/150 168/225/151
s 2
f 170/6/3 173/226/146 174/227/147 176/228/148
s 12
f 171/66/37 175/229/140 174/230/141 173/226/142
s 3
f 172/72/33 176/231/143 174/232/144 175/233/145
s 24
f 44/106/168 10/88/169 12/85/170 47/107/170
s 13
f 47/107/171 12/85/171 9/68/39 45/67/38
s 5
f 51/22/19 16/21/18 22/90/172 54/111/172
s 14
f 54/115/173 22/92/173 18/76/44 52/75/43
s 13
f 60/70/41 31/69/40 33/98/174 64/118/174
s 5
f 64/118/175 33/98/175 30/20/17 58/19/16
s 4
f 17/83/22 23/17/14 29/94/61 21/91/55
s 14
f 21/91/176 29/94/176 25/77/45 18/76/44
s 4
f 23/17/14 11/14/11 14/87/52 26/94/59
s 24
f 26/94/177 14/87/177 10/88/169 24/96/178
s 4
f 11/14/11 32/13/10 35/100/70 15/87/50
s 13
f 15/87/179 35/100/179 31/69/40 9/68/39
s 4
f 32/13/10 17/25/22 19/89/57 36/100/68
s 5
f 36/100/180 19/89/180 16/21/18 30/20/17
s 24
f 24/96/178 37/101/181 43/103/182 28/97/182
s 14
f 28/97/183 43/103/183 39/78/46 25/77/45
f 52/75/43 39/78/46 42/102/184 56/114/184
s 3
f 56/116/88 42/104/73 38/9/6 53/23/20
s 13
f 45/67/38 60/70/41 63/117/185 49/109/185
s 3
f 49/110/82 63/119/91 59/71/42 46/10/7
s 24
f 37/101/181 44/106/168 50/109/186 40/102/186
s 3
f 40/104/75 50/110/80 46/10/7 38/9/6
s 5
f 58/19/16 51/22/19 57/113/187 61/117/187
s 3
f 61/119/93 57/116/86 53/23/20 59/71/42
s 12
f 65/64/35 72/63/34 78/128/106 68/121/95
s 11
f 68/121/100 78/128/110 74/53/13 66/74/12
s 6
f 79/28/25 86/27/24 92/141/124 82/131/113
s 11
f 82/131/118 92/141/128 88/62/15 80/61/23
s 2
f 73/5/2 81/8/5 84/134/121 77/129/107
s 11
f 77/129/112 84/134/116 80/54/23 74/53/13
f 66/74/12 88/62/15 91/142/130 70/124/98
s 7
f 70/124/103 91/142/125 87/32/29 67/31/28
s 1
f 95/58/8 101/57/33 103/157/145 99/149/137
s 15
f 99/146/133 103/152/140 100/82/37 93/81/36
s 1
f 109/56/21 115/55/9 117/234/163 113/166/155
s 10
f 113/162/151 117/169/158 114/46/27 107/45/26
s 1
f 101/57/33 109/56/21 112/235/157 105/155/143
s 9
f 105/159/148 112/163/152 108/41/4 102/40/3
s 8
f 94/37/31 116/36/30 119/176/166 98/147/134
s 1
f 98/151/139 119/172/161 115/55/9 95/58/8
s 8
f 123/38/28 94/37/31 96/144/136 127/179/101
s 15
f 127/179/97 96/144/131 93/81/36 121/80/35
s 9
f 128/42/5 108/41/4 110/165/154 131/182/119
s 10
f 131/187/115 110/160/149 107/45/26 129/44/25
s 7
f 135/33/30 87/32/29 89/139/127 138/191/164
s 6
f 138/191/160 89/139/122 86/27/24 136/30/27
s 15
f 144/79/34 100/82/37 106/154/142 148/201/104
s 9
f 148/201/109 106/154/146 102/40/3 142/39/2
s 8
f 116/36/30 149/35/29 155/206/127 120/171/164
s 10
f 120/171/160 155/206/122 151/43/24 114/46/27
f 129/44/25 151/43/24 154/207/124 133/185/113
s 4
f 133/185/118 154/207/128 150/18/15 130/84/23
s 8
f 149/35/29 123/38/28 126/180/103 152/204/125
s 4
f 152/204/130 126/180/98 122/15/12 150/18/15
s 15
f 121/80/35 144/79/34 147/202/106 124/177/95
s 4
f 124/177/100 147/202/110 143/16/13 122/15/12
s 9
f 142/39/2 128/42/5 134/236/121 145/199/107
s 4
f 145/199/112 134/236/116 130/26/23 143/16/13
s 7
f 67/31/28 156/34/31 162/211/136 71/123/101
s 12
f 71/123/97 162/211/131 158/65/36 65/64/35
s 2
f 81/8/5 163/7/4 169/219/154 85/137/119
s 6
f 85/133/115 169/223/149 165/29/26 79/28/25
s 12
f 72/63/34 171/66/37 173/226/142 75/126/104
s 2
f 75/126/109 173/226/146 170/6/3 73/5/2
s 3
f 164/24/21 137/12/9 140/198/163 168/220/155
s 6
f 168/225/151 140/194/158 136/30/27 165/29/26
s 3
f 157/11/8 172/72/33 175/233/145 161/212/137
s 12
f 161/216/133 175/229/140 171/66/37 158/65/36
s 3
f 137/12/9 157/11/8 159/214/139 141/196/161
s 7
f 141/193/166 159/209/134 156/34/31 135/33/30
s 3
f 172/72/33 164/24/21 166/222/157 176/231/143
s 2
f 176/228/148 166/217/152 163/7/4 170/6/3
s 24
f 44/106/168 37/101/181 24/96/178 10/88/169
