# Blender 4.4.3
# www.blender.org
mtllib TOMB_WALL_2_2_001.mtl
o TOMB_WALL_2_2_001
v 0.500000 0.000000 0.500000
v -1.500000 0.000000 0.500000
v 0.500000 0.000000 0.300000
v -1.500000 0.000000 0.300000
v 0.500000 2.000000 0.500000
v -1.500000 2.000000 0.500000
v 0.500000 2.000000 0.300000
v -1.500000 2.000000 0.300000
v -0.586128 1.853630 0.288616
v -0.697888 1.527045 0.288616
v 0.122299 1.246370 0.288616
v 0.234059 1.572956 0.288616
v 0.500000 1.785000 0.315000
v 0.485000 1.785000 0.300000
v 0.515000 1.800000 0.285000
v 0.495607 1.785000 0.304393
v 0.500000 1.793661 0.300000
v 0.500000 1.795607 0.295607
v 0.504393 1.795607 0.300000
v -1.485000 1.785000 0.500000
v -1.515000 1.800000 0.515000
v -1.500000 1.785000 0.485000
v -1.500000 1.795607 0.504393
v -1.500000 1.793661 0.500000
v -1.504393 1.795607 0.500000
v -1.495607 1.785000 0.495607
v -1.515000 1.800000 0.285000
v -1.485000 1.785000 0.300000
v -1.500000 1.785000 0.315000
v -1.500000 1.795607 0.295607
v -1.500000 1.793661 0.300000
v -1.495607 1.785000 0.304393
v -1.504393 1.795607 0.300000
v 0.485000 1.785000 0.500000
v 0.500000 1.785000 0.485000
v 0.515000 1.800000 0.515000
v 0.495607 1.785000 0.495607
v 0.500000 1.793661 0.500000
v 0.504393 1.795607 0.500000
v 0.500000 1.795607 0.504393
v -1.485000 0.315000 0.300000
v -1.515000 0.300000 0.285000
v -1.500000 0.315000 0.315000
v -1.500000 0.304393 0.295607
v -1.500000 0.306340 0.300000
v -1.504393 0.304393 0.300000
v -1.495607 0.315000 0.304393
v 0.485000 0.315000 0.300000
v 0.500000 0.315000 0.315000
v 0.515000 0.300000 0.285000
v 0.495607 0.315000 0.304393
v 0.500000 0.306340 0.300000
v 0.504393 0.304393 0.300000
v 0.500000 0.304393 0.295607
v -1.485000 0.315000 0.500000
v -1.500000 0.315000 0.485000
v -1.515000 0.300000 0.515000
v -1.495607 0.315000 0.495607
v -1.500000 0.306340 0.500000
v -1.504393 0.304393 0.500000
v -1.500000 0.304393 0.504393
v 0.485000 0.315000 0.500000
v 0.515000 0.300000 0.515000
v 0.500000 0.315000 0.485000
v 0.500000 0.304393 0.504393
v 0.500000 0.306340 0.500000
v 0.504393 0.304393 0.500000
v 0.495607 0.315000 0.495607
v 0.600000 0.015000 0.215000
v 0.585000 0.000000 0.215000
v 0.585000 0.015000 0.200000
v 0.595607 0.004393 0.215000
v 0.593660 0.006340 0.206340
v 0.585000 0.004393 0.204393
v 0.595607 0.015000 0.204393
v 0.600000 0.015000 0.585000
v 0.585000 0.015000 0.600000
v 0.585000 0.000000 0.585000
v 0.595607 0.015000 0.595607
v 0.593660 0.006340 0.593660
v 0.585000 0.004393 0.595607
v 0.595607 0.004393 0.585000
v -1.600000 0.015000 0.585000
v -1.585000 0.000000 0.585000
v -1.585000 0.015000 0.600000
v -1.595607 0.004393 0.585000
v -1.593660 0.006340 0.593660
v -1.585000 0.004393 0.595607
v -1.595607 0.015000 0.595607
v -1.600000 0.015000 0.215000
v -1.585000 0.015000 0.200000
v -1.585000 0.000000 0.215000
v -1.595607 0.015000 0.204393
v -1.593660 0.006340 0.206340
v -1.585000 0.004393 0.204393
v -1.595607 0.004393 0.215000
v 0.600000 1.985000 0.215000
v 0.585000 1.985000 0.200000
v 0.585000 2.000000 0.215000
v 0.595607 1.985000 0.204393
v 0.593660 1.993660 0.206340
v 0.585000 1.995607 0.204393
v 0.595607 1.995607 0.215000
v 0.600000 1.985000 0.585000
v 0.585000 2.000000 0.585000
v 0.585000 1.985000 0.600000
v 0.595607 1.995607 0.585000
v 0.593660 1.993660 0.593660
v 0.585000 1.995607 0.595607
v 0.595607 1.985000 0.595607
v -1.600000 1.985000 0.585000
v -1.585000 1.985000 0.600000
v -1.585000 2.000000 0.585000
v -1.595607 1.985000 0.595607
v -1.593660 1.993660 0.593660
v -1.585000 1.995607 0.595607
v -1.595607 1.995607 0.585000
v -1.600000 1.985000 0.215000
v -1.585000 2.000000 0.215000
v -1.585000 1.985000 0.200000
v -1.595607 1.995607 0.215000
v -1.593660 1.993660 0.206340
v -1.585000 1.995607 0.204393
v -1.595607 1.985000 0.204393
v 0.600000 1.815000 0.215000
v 0.585000 1.800000 0.215000
v 0.585000 1.815000 0.200000
v 0.595607 1.804393 0.215000
v 0.593660 1.806340 0.206340
v 0.585000 1.804393 0.204393
v 0.595607 1.815000 0.204393
v -1.585000 1.815000 0.600000
v -1.600000 1.815000 0.585000
v -1.585000 1.800000 0.585000
v -1.595607 1.815000 0.595607
v -1.593660 1.806340 0.593660
v -1.595607 1.804393 0.585000
v -1.585000 1.804393 0.595607
v -1.585000 0.285000 0.200000
v -1.600000 0.285000 0.215000
v -1.585000 0.300000 0.215000
v -1.595607 0.285000 0.204393
v -1.593660 0.293660 0.206340
v -1.595607 0.295607 0.215000
v -1.585000 0.295607 0.204393
v 0.585000 1.815000 0.600000
v 0.585000 1.800000 0.585000
v 0.600000 1.815000 0.585000
v 0.585000 1.804393 0.595607
v 0.593660 1.806340 0.593660
v 0.595607 1.804393 0.585000
v 0.595607 1.815000 0.595607
v -1.585000 1.815000 0.200000
v -1.585000 1.800000 0.215000
v -1.600000 1.815000 0.215000
v -1.585000 1.804393 0.204393
v -1.593660 1.806340 0.206340
v -1.595607 1.804393 0.215000
v -1.595607 1.815000 0.204393
v 0.585000 0.285000 0.200000
v 0.585000 0.300000 0.215000
v 0.600000 0.285000 0.215000
v 0.585000 0.295607 0.204393
v 0.593660 0.293660 0.206340
v 0.595607 0.295607 0.215000
v 0.595607 0.285000 0.204393
v -1.585000 0.285000 0.600000
v -1.585000 0.300000 0.585000
v -1.600000 0.285000 0.585000
v -1.585000 0.295607 0.595607
v -1.593660 0.293660 0.593660
v -1.595607 0.295607 0.585000
v -1.595607 0.285000 0.595607
v 0.585000 0.285000 0.600000
v 0.600000 0.285000 0.585000
v 0.585000 0.300000 0.585000
v 0.595607 0.285000 0.595607
v 0.593660 0.293660 0.593660
v 0.595607 0.295607 0.585000
v 0.585000 0.295607 0.595607
vn -0.0000 1.0000 -0.0000
vn 0.1794 -0.1794 0.9673
vn 0.1794 0.1794 0.9673
vn -0.1794 0.1794 0.9673
vn -0.1794 -0.1794 0.9673
vn -0.0507 0.9974 -0.0507
vn 0.0507 0.9974 -0.0507
vn 0.1794 0.9673 -0.1794
vn -0.1794 0.9673 -0.1794
vn 0.0507 -0.9974 0.0507
vn 0.0507 -0.9974 -0.0507
vn 0.1794 -0.9673 -0.1794
vn 0.1794 -0.9673 0.1794
vn -0.0507 -0.9974 -0.0507
vn -0.1794 -0.9673 -0.1794
vn 0.1105 0.1751 0.9783
vn 0.1105 -0.1751 0.9783
vn -0.1105 -0.1751 0.9783
vn -0.1105 0.1751 0.9783
vn -0.0507 0.9974 0.0507
vn -0.1794 0.9673 0.1794
vn -0.0507 -0.9974 0.0507
vn -0.1794 -0.9673 0.1794
vn -0.9673 -0.1794 -0.1794
vn -0.9673 -0.1794 0.1794
vn -0.9673 0.1794 0.1794
vn -0.9673 0.1794 -0.1794
vn 0.1794 -0.1794 -0.9673
vn -0.1794 -0.1794 -0.9673
vn -0.1794 0.1794 -0.9673
vn 0.1794 0.1794 -0.9673
vn -0.0000 -1.0000 -0.0000
vn 0.1794 0.9673 0.1794
vn 0.9673 -0.1794 0.1794
vn 0.9673 -0.1794 -0.1794
vn 0.9673 0.1794 -0.1794
vn 0.9673 0.1794 0.1794
vn 0.9783 0.1751 -0.1105
vn 0.9783 -0.1751 -0.1105
vn 0.9783 -0.1751 0.1105
vn 0.9783 0.1751 0.1105
vn 0.0507 0.9974 0.0507
vn -0.9783 0.1751 0.1105
vn -0.9783 -0.1751 0.1105
vn -0.9783 -0.1751 -0.1105
vn -0.9783 0.1751 -0.1105
vn -0.0000 -0.0000 -1.0000
vn 0.6225 -0.6778 -0.3913
vn 0.5138 -0.6870 -0.5138
vn 0.3913 -0.6778 -0.6225
vn 0.3004 -0.9489 -0.0965
vn 0.2025 -0.9581 -0.2025
vn 0.0965 -0.9489 -0.3004
vn -0.3913 -0.6778 0.6225
vn -0.5138 -0.6870 0.5138
vn -0.3004 -0.9489 0.0965
vn -0.2025 -0.9581 0.2025
vn -0.0964 -0.9489 0.3004
vn -0.6225 -0.6778 0.3913
vn -0.0965 -0.9489 -0.3004
vn -0.2025 -0.9581 -0.2025
vn -0.3004 -0.9489 -0.0964
vn -0.3913 -0.6778 -0.6225
vn -0.5138 -0.6870 -0.5138
vn -0.6225 -0.6778 -0.3913
vn 0.3913 -0.6778 0.6225
vn 0.5138 -0.6870 0.5138
vn 0.6225 -0.6778 0.3913
vn 0.0964 -0.9489 0.3004
vn 0.2025 -0.9581 0.2025
vn 0.3004 -0.9489 0.0965
vn -0.3913 0.6778 -0.6225
vn -0.5138 0.6870 -0.5138
vn -0.3004 0.9489 -0.0965
vn -0.2025 0.9581 -0.2025
vn -0.0965 0.9489 -0.3004
vn -0.6225 0.6778 -0.3913
vn 0.3913 0.6778 -0.6225
vn 0.5138 0.6870 -0.5138
vn 0.6225 0.6778 -0.3913
vn 0.0965 0.9489 -0.3004
vn 0.2025 0.9581 -0.2025
vn 0.3004 0.9489 -0.0965
vn -0.3913 0.6778 0.6225
vn -0.5138 0.6870 0.5138
vn -0.6225 0.6778 0.3913
vn -0.0965 0.9489 0.3004
vn -0.2025 0.9581 0.2025
vn -0.3004 0.9489 0.0965
vn 0.3913 0.6778 0.6225
vn 0.5138 0.6870 0.5138
vn 0.3004 0.9489 0.0965
vn 0.2025 0.9581 0.2025
vn 0.0965 0.9489 0.3004
vn 0.6225 0.6778 0.3913
vn 0.9194 -0.3600 -0.1585
vn 0.8881 -0.3251 -0.3251
vn 0.9194 -0.1585 -0.3600
vn 0.1585 -0.9194 -0.3600
vn 0.3251 -0.8881 -0.3251
vn 0.3600 -0.9194 -0.1585
vn 0.3600 -0.1585 -0.9194
vn 0.3251 -0.3251 -0.8881
vn 0.1585 -0.3600 -0.9194
vn 0.9194 -0.1585 0.3600
vn 0.8881 -0.3251 0.3251
vn 0.9194 -0.3600 0.1585
vn 0.1585 -0.3600 0.9194
vn 0.3251 -0.3251 0.8881
vn 0.3600 -0.1585 0.9194
vn 0.3600 -0.9194 0.1585
vn 0.3251 -0.8881 0.3251
vn 0.1585 -0.9194 0.3600
vn -0.9194 -0.3600 0.1585
vn -0.8881 -0.3251 0.3251
vn -0.9194 -0.1585 0.3600
vn -0.1585 -0.9194 0.3600
vn -0.3251 -0.8881 0.3251
vn -0.3600 -0.9194 0.1585
vn -0.3600 -0.1585 0.9194
vn -0.3251 -0.3251 0.8881
vn -0.1585 -0.3600 0.9194
vn -0.9194 -0.1585 -0.3600
vn -0.8881 -0.3251 -0.3251
vn -0.9194 -0.3600 -0.1585
vn -0.1585 -0.3600 -0.9194
vn -0.3251 -0.3251 -0.8881
vn -0.3600 -0.1585 -0.9194
vn -0.3600 -0.9194 -0.1585
vn -0.3251 -0.8881 -0.3251
vn -0.1585 -0.9194 -0.3600
vn 0.9194 0.1585 -0.3600
vn 0.8881 0.3251 -0.3251
vn 0.9194 0.3600 -0.1585
vn 0.1585 0.3600 -0.9194
vn 0.3251 0.3251 -0.8881
vn 0.3600 0.1585 -0.9194
vn 0.3600 0.9194 -0.1585
vn 0.3251 0.8881 -0.3251
vn 0.1585 0.9194 -0.3600
vn 0.9194 0.3600 0.1585
vn 0.8881 0.3251 0.3251
vn 0.9194 0.1585 0.3600
vn 0.1585 0.9194 0.3600
vn 0.3251 0.8881 0.3251
vn 0.3600 0.9194 0.1585
vn 0.3600 0.1585 0.9194
vn 0.3251 0.3251 0.8881
vn 0.1585 0.3600 0.9194
vn -0.9194 0.1585 0.3600
vn -0.8881 0.3251 0.3251
vn -0.9194 0.3600 0.1585
vn -0.1585 0.3600 0.9194
vn -0.3251 0.3251 0.8881
vn -0.3600 0.1585 0.9194
vn -0.3600 0.9194 0.1585
vn -0.3251 0.8881 0.3251
vn -0.1585 0.9194 0.3600
vn -0.9194 0.3600 -0.1585
vn -0.8881 0.3251 -0.3251
vn -0.9194 0.1585 -0.3600
vn -0.1585 0.9194 -0.3600
vn -0.3251 0.8881 -0.3251
vn -0.3600 0.9194 -0.1585
vn -0.3600 0.1585 -0.9194
vn -0.3250 0.3251 -0.8881
vn -0.1585 0.3600 -0.9194
vn -0.3251 0.3251 -0.8881
vn 0.1105 0.1751 -0.9783
vn 0.1105 -0.1751 -0.9783
vn 0.3827 -0.0000 -0.9239
vn 0.9239 -0.0000 -0.3827
vn -0.3827 -0.0000 0.9239
vn -0.9239 -0.0000 0.3827
vn 0.9239 -0.0000 0.3827
vn 0.3827 -0.0000 0.9239
vn -0.9239 -0.3827 -0.0000
vn -0.0000 -0.3827 -0.9239
vn -0.1105 -0.1751 -0.9783
vn 0.9239 -0.3827 -0.0000
vn -0.0000 -0.3827 0.9239
vn -0.1105 0.1751 -0.9783
vn -0.3827 -0.0000 -0.9239
vn -0.9239 -0.0000 -0.3827
vn -0.9239 0.3827 -0.0000
vn 0.9239 0.3827 -0.0000
vn -0.0000 0.3827 -0.9239
vn -0.0000 0.3827 0.9239
vt 0.693821 0.019556
vt 0.693821 0.407773
vt 0.655000 0.407773
vt 0.655000 0.019556
vt 0.585658 0.565464
vt 0.632686 0.565464
vt 0.632686 0.996873
vt 0.585658 0.996873
vt 0.652088 0.443973
vt 0.652088 0.838013
vt 0.638501 0.851601
vt 0.638501 0.430386
vt 0.063025 0.370020
vt 0.063025 0.422859
vt 0.043585 0.422859
vt 0.043585 0.370020
vt 0.063025 0.792733
vt 0.043585 0.792733
vt 0.555177 -0.177676
vt 0.266509 -0.177676
vt 0.266509 -0.542003
vt 0.555177 -0.542003
vt 0.696733 0.443973
vt 0.710321 0.430386
vt 0.063025 0.000145
vt 0.043585 0.000145
vt 0.585658 0.060284
vt 0.585658 0.002488
vt 0.632686 0.002488
vt 0.632686 0.060284
vt 0.585658 0.497018
vt 0.585658 0.065609
vt 0.632686 0.065609
vt 0.632686 0.497018
vt 0.051202 0.790211
vt 0.184735 0.790211
vt 0.184735 0.425381
vt 0.051202 0.425381
vt 0.051202 0.367498
vt 0.184735 0.367498
vt 0.184736 0.002667
vt 0.051202 0.002667
vt 0.051202 0.794715
vt 0.051202 0.843591
vt 0.184735 0.843591
vt 0.184735 0.794715
vt 0.713522 0.388362
vt 0.713522 0.000145
vt 0.752344 0.000145
vt 0.752344 0.388362
vt 0.558413 0.999855
vt 0.558413 0.562482
vt 0.579351 0.562482
vt 0.579350 0.999855
vt 0.638501 0.003057
vt 0.710320 0.003057
vt 0.710321 0.424272
vt 0.638501 0.424272
vt 0.558413 0.062627
vt 0.558413 0.000145
vt 0.579351 0.000145
vt 0.579351 0.062627
vt 0.585658 0.560139
vt 0.585658 0.502343
vt 0.632686 0.502343
vt 0.632686 0.560139
vt 0.555177 -0.126026
vt 0.266509 -0.126026
vt 0.266509 -0.170939
vt 0.555177 -0.170939
vt 0.696733 0.838013
vt 0.710321 0.851601
vt 0.558413 0.500000
vt 0.579351 0.500000
vt 0.555177 0.296688
vt 0.266509 0.296688
vt 0.266509 0.251774
vt 0.555177 0.251774
vt 0.051202 0.372001
vt 0.051202 0.420877
vt 0.184735 0.420878
vt 0.184735 0.372001
vt 0.063025 0.845573
vt 0.043585 0.845573
vt 0.981072 0.317390
vt 0.981072 0.687265
vt 0.003616 0.687265
vt 0.003616 0.317390
vt 0.266509 -0.122063
vt 0.264809 -0.122063
vt 0.263564 -0.122063
vt 0.266509 -0.119289
vt 0.067191 0.422859
vt 0.263564 -0.544777
vt 0.266509 -0.544777
vt 0.067191 0.845573
vt 0.266509 0.300651
vt 0.264809 0.300651
vt 0.263564 0.300651
vt 0.067191 0.792733
vt 0.266509 0.245037
vt 0.266509 0.247812
vt 0.264809 0.247812
vt 0.263564 0.247812
vt 0.266509 -0.174902
vt 0.264809 -0.174902
vt 0.263564 -0.174902
vt 0.067191 0.370020
vt 0.555177 0.245037
vt 0.558123 0.247812
vt 0.555177 0.247812
vt 0.655000 0.446885
vt 0.556878 0.247812
vt 0.555177 -0.119289
vt 0.555177 -0.122063
vt 0.556878 -0.122063
vt 0.558123 -0.122063
vt 0.655000 0.835102
vt 0.555177 -0.544777
vt 0.556878 -0.544777
vt 0.558123 -0.544777
vt 0.558123 0.300651
vt 0.558123 0.300651
vt 0.555177 0.300651
vt 0.693821 0.446885
vt 0.558123 -0.174902
vt 0.555177 -0.174902
vt 0.693821 0.835102
vt 0.556878 -0.174902
vt 0.583045 0.502343
vt 0.583414 0.499910
vt 0.585658 0.500000
vt 0.583045 0.497018
vt 0.579351 0.503059
vt 0.585658 0.562482
vt 0.583414 0.562572
vt 0.583045 0.560139
vt 0.583045 0.565464
vt 0.579351 0.565240
vt 0.583045 0.002488
vt 0.583045 0.001136
vt 0.585658 0.000145
vt 0.583045 0.996873
vt 0.583045 0.998594
vt 0.579350 1.002913
vt 0.585658 0.999855
vt 0.584150 0.999855
vt 0.585658 0.062627
vt 0.583414 0.062717
vt 0.583045 0.060284
vt 0.583045 0.065609
vt 0.579351 0.065385
vt 0.184736 0.422859
vt 0.191538 0.422859
vt 0.196518 0.420878
vt 0.196518 0.425381
vt 0.196518 0.423925
vt 0.638500 0.427184
vt 0.636819 0.427184
vt 0.635589 0.424272
vt 0.196518 0.372001
vt 0.196518 0.370857
vt 0.184736 0.370020
vt 0.713232 0.424272
vt 0.713232 0.425953
vt 0.710321 0.427184
vt 0.191538 0.370020
vt 0.196518 0.367498
vt 0.184736 0.845572
vt 0.191538 0.845572
vt 0.196518 0.843591
vt 0.196518 0.002667
vt 0.196518 0.001211
vt 0.184736 0.000145
vt 0.710321 0.000145
vt 0.712002 0.000145
vt 0.713232 0.003057
vt 0.196518 0.794715
vt 0.196518 0.793571
vt 0.184736 0.792733
vt 0.635589 0.003057
vt 0.635589 0.001376
vt 0.638500 0.000145
vt 0.191538 0.792733
vt 0.196518 0.790211
vt 0.039420 0.420877
vt 0.041080 0.422935
vt 0.051202 0.422859
vt 0.039420 0.425381
vt 0.043585 0.420272
vt 0.051202 0.000145
vt 0.044399 0.000145
vt 0.039420 0.002667
vt 0.039420 0.843591
vt 0.039420 0.844735
vt 0.051202 0.845573
vt 0.039420 0.002667
vt 0.039420 0.001211
vt 0.043585 -0.002441
vt 0.632686 0.062627
vt 0.634194 0.062627
vt 0.635299 0.065609
vt 0.635299 0.060284
vt 0.635299 0.061637
vt 0.635589 0.430386
vt 0.635589 0.428705
vt 0.638501 0.427474
vt 0.039420 0.367498
vt 0.041080 0.369944
vt 0.051202 0.370020
vt 0.039420 0.372001
vt 0.043585 0.367688
vt 0.039420 0.790212
vt 0.041080 0.792657
vt 0.051202 0.792733
vt 0.039420 0.794715
vt 0.043585 0.790401
vt 0.635299 0.497018
vt 0.635299 0.498740
vt 0.632686 0.500000
vt 0.638500 0.854512
vt 0.636819 0.854512
vt 0.635589 0.851601
vt 0.634194 0.500000
vt 0.635299 0.502343
vt 0.635299 0.996873
vt 0.635299 0.998594
vt 0.632686 0.999855
vt 0.710321 0.427474
vt 0.712002 0.427474
vt 0.713232 0.430386
vt 0.632686 0.000145
vt 0.634194 0.000145
vt 0.635299 0.002488
vt 0.632686 0.562482
vt 0.634194 0.562482
vt 0.635299 0.565464
vt 0.635299 0.560139
vt 0.635299 0.561492
vt 0.713232 0.851601
vt 0.713232 0.853282
vt 0.710321 0.854512
vt 0.067191 0.000145
vt 0.638501 0.000145
vt 0.713232 0.003057
vt 0.039420 0.002667
s 1
usemtl TOMB_BASE
f 6/1/1 5/2/1 7/3/1 8/4/1
s 2
f 77/5/2 174/6/3 167/7/4 85/8/5
s 3
f 42/9/6 50/10/7 161/11/8 141/12/9
s 4
f 36/13/10 15/14/11 126/15/12 147/16/13
f 15/14/11 27/17/14 154/18/15 126/15/12
s 5
f 62/19/16 34/20/17 20/21/18 55/22/19
s 3
f 57/23/20 42/9/6 141/12/9 168/24/21
s 4
f 21/25/22 36/13/10 147/16/13 134/26/23
s 6
f 90/27/24 83/28/25 169/29/26 140/30/27
s 7
f 71/31/28 91/32/29 139/33/30 160/34/31
s 8
f 153/35/29 120/36/30 98/37/31 127/38/28
s 9
f 146/39/2 106/40/3 112/41/4 132/42/5
s 10
f 155/43/24 133/44/25 111/45/26 118/46/27
s 11
f 1/47/32 2/48/32 4/49/32 3/50/32
f 2/51/32 1/52/32 78/53/13 84/54/23
s 1
f 6/1/1 8/4/1 119/55/9 113/56/21
f 5/2/1 6/1/1 113/56/21 105/57/33
f 7/3/1 5/2/1 105/57/33 99/58/8
s 11
f 4/59/32 2/60/32 84/61/23 92/62/15
s 1
f 8/4/1 7/3/1 99/58/8 119/55/9
s 12
f 76/63/34 69/64/35 162/65/36 175/66/37
s 13
f 49/67/38 13/68/39 35/69/40 64/70/41
s 3
f 63/71/42 57/23/20 168/24/21 176/72/33
s 11
f 1/52/32 3/73/32 70/74/12 78/53/13
s 14
f 56/75/43 22/76/44 29/77/45 43/78/46
s 3
f 50/10/7 63/71/42 176/72/33 161/11/8
s 15
f 148/79/34 125/80/35 97/81/36 104/82/37
s 4
f 27/17/14 21/83/22 134/84/23 154/18/15
s 11
f 3/73/32 4/59/32 92/62/15 70/74/12
s 17
f 13/68/48 16/89/49 17/90/49 19/91/48
f 14/92/50 18/91/50 17/91/49 16/89/49
s 4
f 15/14/11 19/93/51 17/93/52 18/93/53
s 18
f 20/21/54 23/94/54 24/94/55 26/95/55
s 4
f 21/83/22 25/96/56 24/96/57 23/96/58
s 18
f 22/76/59 26/97/55 24/98/55 25/99/59
s 4
f 27/17/14 30/100/60 31/100/61 33/100/62
s 19
f 28/101/63 32/102/64 31/103/64 30/104/63
f 29/77/65 33/104/65 31/104/64 32/102/64
s 20
f 34/20/66 37/105/67 38/106/67 40/107/66
f 35/69/68 39/107/68 38/107/67 37/105/67
s 4
f 36/13/10 40/108/69 38/108/70 39/108/71
s 21
f 41/109/72 44/110/72 45/110/73 47/111/73
s 3
f 42/9/6 46/112/74 45/112/75 44/112/76
s 21
f 43/78/77 47/111/73 45/113/73 46/110/77
s 22
f 48/114/78 51/115/79 52/116/79 54/117/78
f 49/67/80 53/117/80 52/117/79 51/115/79
s 3
f 50/10/7 54/118/81 52/118/82 53/118/83
s 23
f 55/22/84 58/119/85 59/120/85 61/121/84
f 56/75/86 60/122/86 59/123/85 58/124/85
s 3
f 57/23/20 61/125/87 59/125/88 60/125/89
s 24
f 62/19/90 65/126/90 66/126/91 68/127/91
s 3
f 63/71/42 67/128/92 66/128/93 65/128/94
s 24
f 64/70/95 68/127/91 66/129/91 67/126/95
s 12
f 69/64/35 72/130/96 73/131/97 75/132/98
s 11
f 70/74/12 74/133/99 73/131/100 72/134/101
s 7
f 71/31/28 75/132/102 73/131/103 74/133/104
s 12
f 76/63/34 79/135/105 80/136/106 82/137/107
s 2
f 77/5/2 81/138/108 80/136/109 79/135/110
s 11
f 78/53/13 82/137/111 80/136/112 81/139/113
s 6
f 83/28/25 86/140/114 87/141/115 89/142/116
s 11
f 84/54/23 88/143/117 87/144/118 86/145/119
s 2
f 85/8/5 89/146/120 87/147/121 88/143/122
s 6
f 90/27/24 93/148/123 94/149/124 96/150/125
s 7
f 91/32/29 95/151/126 94/149/127 93/148/128
s 11
f 92/62/15 96/150/129 94/149/130 95/152/131
s 15
f 97/81/36 100/153/132 101/154/133 103/155/134
s 8
f 98/37/31 102/156/135 101/157/136 100/153/137
s 1
f 99/58/8 103/158/138 101/159/139 102/160/140
s 15
f 104/82/37 107/161/141 108/162/142 110/163/143
s 1
f 105/57/33 109/164/144 108/165/145 107/166/146
s 9
f 106/40/3 110/163/147 108/167/148 109/168/149
s 10
f 111/45/26 114/169/150 115/170/151 117/171/152
s 9
f 112/41/4 116/172/153 115/173/154 114/174/155
s 1
f 113/56/21 117/175/156 115/176/157 116/177/158
s 10
f 118/46/27 121/178/159 122/179/160 124/180/161
s 1
f 119/55/9 123/181/162 122/182/163 121/183/164
s 8
f 120/36/30 124/180/165 122/184/166 123/185/167
s 15
f 125/80/35 128/186/96 129/187/97 131/188/98
s 4
f 126/15/12 130/189/99 129/187/100 128/190/101
s 8
f 127/38/28 131/188/102 129/187/103 130/189/104
s 9
f 132/42/5 135/191/120 136/192/121 138/193/122
s 10
f 133/44/25 137/194/114 136/195/115 135/196/116
s 4
f 134/26/23 138/197/117 136/198/118 137/199/119
s 7
f 139/33/30 142/200/165 143/201/168 145/202/167
s 6
f 140/30/27 144/203/159 143/204/160 142/200/161
s 3
f 141/12/9 145/205/162 143/206/163 144/207/164
s 9
f 146/39/2 149/208/108 150/209/109 152/210/110
s 4
f 147/16/13 151/211/111 150/209/112 149/212/113
s 15
f 148/79/34 152/210/105 150/209/106 151/211/107
s 8
f 153/35/29 156/213/126 157/214/127 159/215/128
s 4
f 154/18/15 158/216/129 157/214/130 156/217/131
s 10
f 155/43/24 159/215/123 157/214/124 158/216/125
s 7
f 160/34/31 163/218/135 164/219/136 166/220/137
s 3
f 161/11/8 165/221/138 164/222/139 163/223/140
s 12
f 162/65/36 166/220/132 164/224/133 165/225/134
s 2
f 167/7/4 170/226/153 171/227/154 173/228/155
s 3
f 168/24/21 172/229/156 171/230/157 170/231/158
s 6
f 169/29/26 173/232/150 171/233/151 172/234/152
s 2
f 174/6/3 177/235/147 178/236/148 180/237/149
s 12
f 175/66/37 179/238/141 178/239/142 177/235/143
s 3
f 176/72/33 180/240/144 178/241/145 179/242/146
s 25
f 48/114/169 14/92/170 16/89/171 51/115/171
s 13
f 51/115/172 16/89/172 13/68/39 49/67/38
s 5
f 55/22/19 20/21/18 26/95/173 58/119/173
s 14
f 58/124/174 26/97/174 22/76/44 56/75/43
s 13
f 64/70/41 35/69/40 37/105/175 68/127/175
s 5
f 68/127/176 37/105/176 34/20/17 62/19/16
s 4
f 21/83/22 27/17/14 33/100/62 25/96/56
s 14
f 25/99/177 33/104/177 29/77/45 22/76/44
s 4
f 27/17/14 15/14/11 18/93/53 30/100/60
s 25
f 30/104/178 18/91/178 14/92/170 28/101/179
s 4
f 15/14/11 36/13/10 39/108/71 19/93/51
s 13
f 19/91/180 39/107/180 35/69/40 13/68/39
s 4
f 36/13/10 21/25/22 23/243/58 40/108/69
s 5
f 40/107/181 23/94/181 20/21/18 34/20/17
s 25
f 28/101/179 41/109/182 47/111/183 32/102/183
s 14
f 32/102/184 47/111/184 43/78/46 29/77/45
f 56/75/43 43/78/46 46/110/185 60/122/185
s 3
f 60/125/89 46/112/74 42/9/6 57/23/20
s 13
f 49/67/38 64/70/41 67/126/186 53/117/186
s 3
f 53/118/83 67/128/92 63/71/42 50/10/7
s 25
f 41/109/182 48/114/169 54/117/187 44/110/187
s 3
f 44/112/76 54/118/81 50/10/7 42/9/6
s 5
f 62/19/16 55/22/19 61/121/188 65/126/188
s 3
f 65/128/94 61/125/87 57/23/20 63/71/42
s 12
f 69/64/35 76/63/34 82/137/107 72/130/96
s 11
f 72/130/101 82/137/111 78/53/13 70/74/12
s 6
f 83/28/25 90/27/24 96/150/125 86/140/114
s 11
f 86/140/119 96/150/129 92/62/15 84/61/23
s 2
f 77/5/2 85/8/5 88/143/122 81/138/108
s 11
f 81/138/113 88/143/117 84/54/23 78/53/13
f 70/74/12 92/62/15 95/151/131 74/133/99
s 7
f 74/133/104 95/151/126 91/32/29 71/31/28
s 1
f 99/58/8 105/57/33 107/166/146 103/158/138
s 15
f 103/155/134 107/161/141 104/82/37 97/81/36
s 1
f 113/56/21 119/55/9 121/244/164 117/175/156
s 10
f 117/171/152 121/178/159 118/46/27 111/45/26
s 1
f 105/57/33 113/56/21 116/245/158 109/164/144
s 9
f 109/168/149 116/172/153 112/41/4 106/40/3
s 8
f 98/37/31 120/36/30 123/185/167 102/156/135
s 1
f 102/160/140 123/181/162 119/55/9 99/58/8
s 8
f 127/38/28 98/37/31 100/153/137 131/188/102
s 15
f 131/188/98 100/153/132 97/81/36 125/80/35
s 9
f 132/42/5 112/41/4 114/174/155 135/191/120
s 10
f 135/196/116 114/169/150 111/45/26 133/44/25
s 7
f 139/33/30 91/32/29 93/148/128 142/200/165
s 6
f 142/200/161 93/148/123 90/27/24 140/30/27
s 15
f 148/79/34 104/82/37 110/163/143 152/210/105
s 9
f 152/210/110 110/163/147 106/40/3 146/39/2
s 8
f 120/36/30 153/35/29 159/215/128 124/180/165
s 10
f 124/180/161 159/215/123 155/43/24 118/46/27
f 133/44/25 155/43/24 158/216/125 137/194/114
s 4
f 137/194/119 158/216/129 154/18/15 134/84/23
s 8
f 153/35/29 127/38/28 130/189/104 156/213/126
s 4
f 156/213/131 130/189/99 126/15/12 154/18/15
s 15
f 125/80/35 148/79/34 151/211/107 128/186/96
s 4
f 128/186/101 151/211/111 147/16/13 126/15/12
s 9
f 146/39/2 132/42/5 138/246/122 149/208/108
s 4
f 149/208/113 138/246/117 134/26/23 147/16/13
s 7
f 71/31/28 160/34/31 166/220/137 75/132/102
s 12
f 75/132/98 166/220/132 162/65/36 69/64/35
s 2
f 85/8/5 167/7/4 173/228/155 89/146/120
s 6
f 89/142/116 173/232/150 169/29/26 83/28/25
s 12
f 76/63/34 175/66/37 177/235/143 79/135/105
s 2
f 79/135/110 177/235/147 174/6/3 77/5/2
s 3
f 168/24/21 141/12/9 144/207/164 172/229/156
s 6
f 172/234/152 144/203/159 140/30/27 169/29/26
s 3
f 161/11/8 176/72/33 179/242/146 165/221/138
s 12
f 165/225/134 179/238/141 175/66/37 162/65/36
s 3
f 141/12/9 161/11/8 163/223/140 145/205/162
s 7
f 145/202/167 163/218/135 160/34/31 139/33/30
s 3
f 176/72/33 168/24/21 170/231/158 180/240/144
s 2
f 180/237/149 170/226/153 167/7/4 174/6/3
s 25
f 48/114/169 41/109/182 28/101/179 14/92/170
s 16
usemtl TAPE
f 12/85/47 11/86/47 10/87/47 9/88/47
