# Blender 4.4.3
# www.blender.org
mtllib TOMB_PILLAR_BIG.mtl
o TOMB_PILLAR_BIG.003
v 0.500000 0.000000 -0.500000
v 0.500000 3.000000 -0.500000
v 0.500000 0.000000 0.500000
v 0.500000 3.000000 0.500000
v -0.500000 0.000000 -0.500000
v -0.500000 3.000000 -0.500000
v -0.500000 0.000000 0.500000
v -0.500000 3.000000 0.500000
v 0.500000 2.785000 -0.485000
v 0.485000 2.785000 -0.500000
v 0.515000 2.800000 -0.515000
v 0.495607 2.785000 -0.495607
v 0.500000 2.793661 -0.500000
v 0.500000 2.795607 -0.504393
v 0.504393 2.795607 -0.500000
v 0.485000 2.785000 0.500000
v 0.500000 2.785000 0.485000
v 0.515000 2.800000 0.515000
v 0.495607 2.785000 0.495607
v 0.500000 2.793661 0.500000
v 0.504393 2.795607 0.500000
v 0.500000 2.795607 0.504393
v -0.500000 2.785000 0.485000
v -0.485000 2.785000 0.500000
v -0.515000 2.800000 0.515000
v -0.495607 2.785000 0.495607
v -0.500000 2.793661 0.500000
v -0.500000 2.795607 0.504393
v -0.504393 2.795607 0.500000
v -0.485000 2.785000 -0.500000
v -0.500000 2.785000 -0.485000
v -0.515000 2.800000 -0.515000
v -0.495607 2.785000 -0.495607
v -0.500000 2.793661 -0.500000
v -0.504393 2.795607 -0.500000
v -0.500000 2.795607 -0.504393
v 0.485000 0.315000 0.500000
v 0.515000 0.300000 0.515000
v 0.500000 0.315000 0.485000
v 0.500000 0.304393 0.504393
v 0.500000 0.306340 0.500000
v 0.504393 0.304393 0.500000
v 0.495607 0.315000 0.495607
v -0.500000 0.315000 0.485000
v -0.515000 0.300000 0.515000
v -0.485000 0.315000 0.500000
v -0.504393 0.304393 0.500000
v -0.500000 0.306340 0.500000
v -0.500000 0.304393 0.504393
v -0.495607 0.315000 0.495607
v -0.485000 0.315000 -0.500000
v -0.515000 0.300000 -0.515000
v -0.500000 0.315000 -0.485000
v -0.500000 0.304393 -0.504393
v -0.500000 0.306340 -0.500000
v -0.504393 0.304393 -0.500000
v -0.495607 0.315000 -0.495607
v 0.485000 0.315000 -0.500000
v 0.500000 0.315000 -0.485000
v 0.515000 0.300000 -0.515000
v 0.495607 0.315000 -0.495607
v 0.500000 0.306340 -0.500000
v 0.504393 0.304393 -0.500000
v 0.500000 0.304393 -0.504393
v 0.600000 0.015000 0.585000
v 0.585000 0.015000 0.600000
v 0.585000 0.000000 0.585000
v 0.595607 0.015000 0.595607
v 0.593660 0.006340 0.593660
v 0.585000 0.004393 0.595607
v 0.595607 0.004393 0.585000
v 0.585000 0.000000 -0.585000
v 0.585000 0.015000 -0.600000
v 0.600000 0.015000 -0.585000
v 0.585000 0.004393 -0.595607
v 0.593660 0.006340 -0.593660
v 0.595607 0.015000 -0.595607
v 0.595607 0.004393 -0.585000
v 0.600000 2.815000 -0.585000
v 0.585000 2.800000 -0.585000
v 0.585000 2.815000 -0.600000
v 0.595607 2.804394 -0.585000
v 0.593660 2.806340 -0.593660
v 0.585000 2.804394 -0.595607
v 0.595607 2.815001 -0.595607
v 0.585000 2.985000 -0.600000
v 0.585000 3.000000 -0.585000
v 0.600000 2.985000 -0.585000
v 0.585000 2.995606 -0.595607
v 0.593660 2.993660 -0.593660
v 0.595607 2.995606 -0.585000
v 0.595607 2.985000 -0.595607
v 0.585000 3.000000 0.585000
v 0.585000 2.985000 0.600000
v 0.600000 2.985000 0.585000
v 0.585000 2.995606 0.595607
v 0.593660 2.993660 0.593660
v 0.595607 2.985000 0.595607
v 0.595607 2.995606 0.585000
v 0.585000 0.285000 0.600000
v 0.600000 0.285000 0.585000
v 0.585000 0.300000 0.585000
v 0.595607 0.285000 0.595607
v 0.593660 0.293660 0.593660
v 0.595607 0.295607 0.585000
v 0.585000 0.295607 0.595607
v -0.585000 0.015000 0.600000
v -0.600000 0.015000 0.585000
v -0.585000 0.000000 0.585000
v -0.595607 0.015000 0.595607
v -0.593660 0.006340 0.593660
v -0.595607 0.004393 0.585000
v -0.585000 0.004393 0.595607
v -0.585000 3.000000 0.585000
v -0.600000 2.985000 0.585000
v -0.585000 2.985000 0.600000
v -0.595607 2.995606 0.585000
v -0.593660 2.993660 0.593660
v -0.595607 2.985000 0.595607
v -0.585000 2.995606 0.595607
v -0.600000 0.285000 0.585000
v -0.585000 0.285000 0.600000
v -0.585000 0.300000 0.585000
v -0.595607 0.285000 0.595607
v -0.593660 0.293660 0.593660
v -0.585000 0.295607 0.595607
v -0.595607 0.295607 0.585000
v -0.600000 0.015000 -0.585000
v -0.585000 0.015000 -0.600000
v -0.585000 0.000000 -0.585000
v -0.595607 0.015000 -0.595607
v -0.593660 0.006340 -0.593660
v -0.585000 0.004393 -0.595607
v -0.595607 0.004393 -0.585000
v -0.600000 2.985000 -0.585000
v -0.585000 3.000000 -0.585000
v -0.585000 2.985000 -0.600000
v -0.595607 2.995606 -0.585000
v -0.593660 2.993660 -0.593660
v -0.585000 2.995606 -0.595607
v -0.595607 2.985000 -0.595607
v -0.585000 0.285000 -0.600000
v -0.600000 0.285000 -0.585000
v -0.585000 0.300000 -0.585000
v -0.595607 0.285000 -0.595607
v -0.593660 0.293660 -0.593660
v -0.595607 0.295607 -0.585000
v -0.585000 0.295607 -0.595607
v 0.600000 2.815000 0.585000
v 0.585000 2.815000 0.600000
v 0.585000 2.800000 0.585000
v 0.595607 2.815000 0.595607
v 0.593660 2.806340 0.593660
v 0.585000 2.804393 0.595607
v 0.595607 2.804393 0.585000
v -0.585000 2.815000 0.600000
v -0.600000 2.815000 0.585000
v -0.585000 2.800000 0.585000
v -0.595607 2.815000 0.595607
v -0.593660 2.806340 0.593660
v -0.595607 2.804393 0.585000
v -0.585000 2.804393 0.595607
v -0.600000 2.815000 -0.585000
v -0.585000 2.815000 -0.600000
v -0.585000 2.800000 -0.585000
v -0.595607 2.815000 -0.595607
v -0.593660 2.806340 -0.593660
v -0.585000 2.804393 -0.595607
v -0.595607 2.804393 -0.585000
v 0.585000 0.285000 -0.600000
v 0.585000 0.300000 -0.585000
v 0.600000 0.285000 -0.585000
v 0.585000 0.295607 -0.595607
v 0.593660 0.293660 -0.593660
v 0.595607 0.295607 -0.585000
v 0.595607 0.285000 -0.595607
vn 0.9673 -0.1794 -0.1794
vn 0.9673 0.1794 -0.1794
vn 0.9673 0.1794 0.1794
vn 0.9673 -0.1794 0.1794
vn -0.9673 -0.1794 0.1794
vn -0.9673 0.1794 0.1794
vn -0.9673 0.1794 -0.1794
vn -0.9673 -0.1794 -0.1794
vn -0.0000 -1.0000 -0.0000
vn -0.1794 -0.9673 0.1794
vn -0.1794 -0.9673 -0.1794
vn 0.1794 -0.9673 0.1794
vn -0.0000 1.0000 -0.0000
vn -0.0507 -0.9974 0.0507
vn 0.0507 -0.9974 0.0507
vn 0.0507 0.9974 -0.0507
vn 0.0507 0.9974 0.0507
vn 0.1794 0.9673 0.1794
vn 0.1794 0.9673 -0.1794
vn -0.0507 -0.9974 -0.0507
vn 0.0507 -0.9974 -0.0507
vn 0.1794 -0.9673 -0.1794
vn -0.1105 0.1751 -0.9783
vn -0.1105 -0.1751 -0.9783
vn 0.1105 -0.1751 -0.9783
vn 0.1105 0.1751 -0.9783
vn -0.0507 0.9974 -0.0507
vn -0.1794 0.9673 -0.1794
vn 0.1794 -0.1794 0.9673
vn 0.1794 0.1794 0.9673
vn -0.1794 0.1794 0.9673
vn -0.1794 -0.1794 0.9673
vn -0.1794 0.9673 0.1794
vn -0.1794 -0.1794 -0.9673
vn -0.1794 0.1794 -0.9673
vn 0.1794 0.1794 -0.9673
vn 0.1794 -0.1794 -0.9673
vn 0.9783 0.1751 -0.1105
vn 0.9783 -0.1751 -0.1105
vn 0.9783 -0.1751 0.1105
vn 0.9783 0.1751 0.1105
vn -0.0507 0.9974 0.0507
vn -0.9783 0.1751 0.1105
vn -0.9783 -0.1751 0.1105
vn -0.9783 -0.1751 -0.1105
vn -0.9783 0.1751 -0.1105
vn 0.1105 0.1751 0.9783
vn 0.1105 -0.1751 0.9783
vn -0.1105 -0.1751 0.9783
vn -0.1105 0.1751 0.9783
vn 0.6225 -0.6778 -0.3913
vn 0.5138 -0.6870 -0.5138
vn 0.3914 -0.6778 -0.6225
vn 0.3004 -0.9489 -0.0965
vn 0.2025 -0.9581 -0.2025
vn 0.0965 -0.9489 -0.3004
vn 0.3914 -0.6778 0.6225
vn 0.5138 -0.6870 0.5138
vn 0.6225 -0.6778 0.3913
vn 0.0965 -0.9489 0.3004
vn 0.2025 -0.9581 0.2025
vn 0.3004 -0.9489 0.0965
vn -0.6225 -0.6778 0.3913
vn -0.5138 -0.6870 0.5138
vn -0.3914 -0.6778 0.6225
vn -0.3004 -0.9489 0.0965
vn -0.2025 -0.9581 0.2025
vn -0.0965 -0.9489 0.3004
vn -0.3914 -0.6778 -0.6225
vn -0.5138 -0.6870 -0.5138
vn -0.6225 -0.6778 -0.3913
vn -0.0965 -0.9489 -0.3004
vn -0.2025 -0.9581 -0.2025
vn -0.3004 -0.9489 -0.0965
vn 0.3913 0.6778 0.6225
vn 0.5138 0.6870 0.5138
vn 0.3004 0.9489 0.0965
vn 0.2025 0.9581 0.2025
vn 0.0965 0.9489 0.3004
vn 0.6225 0.6778 0.3913
vn -0.6225 0.6778 0.3913
vn -0.5138 0.6870 0.5138
vn -0.0965 0.9489 0.3004
vn -0.2025 0.9581 0.2025
vn -0.3004 0.9489 0.0965
vn -0.3913 0.6778 0.6225
vn -0.3913 0.6778 -0.6225
vn -0.5138 0.6870 -0.5138
vn -0.3004 0.9489 -0.0965
vn -0.2025 0.9581 -0.2025
vn -0.0965 0.9489 -0.3004
vn -0.6225 0.6778 -0.3913
vn 0.3913 0.6778 -0.6225
vn 0.5138 0.6870 -0.5138
vn 0.6225 0.6778 -0.3913
vn 0.0965 0.9489 -0.3004
vn 0.2025 0.9581 -0.2025
vn 0.3004 0.9489 -0.0965
vn 0.9194 -0.1585 0.3600
vn 0.8881 -0.3251 0.3251
vn 0.9194 -0.3600 0.1585
vn 0.1585 -0.3600 0.9194
vn 0.3251 -0.3251 0.8881
vn 0.3600 -0.1585 0.9194
vn 0.3600 -0.9194 0.1585
vn 0.3251 -0.8881 0.3251
vn 0.1585 -0.9194 0.3600
vn 0.1585 -0.9194 -0.3600
vn 0.3250 -0.8881 -0.3250
vn 0.3600 -0.9194 -0.1585
vn 0.3600 -0.1585 -0.9194
vn 0.3250 -0.3250 -0.8881
vn 0.1585 -0.3600 -0.9194
vn 0.9194 -0.3600 -0.1585
vn 0.8881 -0.3250 -0.3250
vn 0.9194 -0.1585 -0.3600
vn 0.8881 -0.3251 -0.3251
vn 0.3251 -0.8881 -0.3251
vn 0.3251 -0.3251 -0.8881
vn 0.1585 0.3600 -0.9194
vn 0.3251 0.3251 -0.8881
vn 0.3600 0.1585 -0.9194
vn 0.3600 0.9194 -0.1585
vn 0.3251 0.8881 -0.3251
vn 0.1585 0.9194 -0.3600
vn 0.9194 0.1585 -0.3600
vn 0.8881 0.3251 -0.3251
vn 0.9194 0.3600 -0.1585
vn 0.1585 0.9194 0.3600
vn 0.3250 0.8881 0.3250
vn 0.3600 0.9194 0.1585
vn 0.3600 0.1585 0.9194
vn 0.3250 0.3250 0.8881
vn 0.1585 0.3600 0.9194
vn 0.9194 0.3600 0.1585
vn 0.8881 0.3250 0.3250
vn 0.9194 0.1585 0.3600
vn 0.3251 0.3251 0.8881
vn 0.8881 0.3251 0.3251
vn 0.3251 0.8881 0.3251
vn -0.3600 -0.1585 0.9194
vn -0.3251 -0.3251 0.8881
vn -0.1585 -0.3600 0.9194
vn -0.9194 -0.3600 0.1585
vn -0.8881 -0.3251 0.3251
vn -0.9194 -0.1585 0.3600
vn -0.1585 -0.9194 0.3600
vn -0.3251 -0.8881 0.3251
vn -0.3600 -0.9194 0.1585
vn -0.3600 0.9194 0.1585
vn -0.3250 0.8881 0.3250
vn -0.1585 0.9194 0.3600
vn -0.9194 0.1585 0.3600
vn -0.8881 0.3250 0.3250
vn -0.9194 0.3600 0.1585
vn -0.1585 0.3600 0.9194
vn -0.3250 0.3250 0.8881
vn -0.3600 0.1585 0.9194
vn -0.8881 0.3251 0.3251
vn -0.3251 0.3251 0.8881
vn -0.3251 0.8881 0.3251
vn -0.9194 -0.1585 -0.3600
vn -0.8881 -0.3251 -0.3251
vn -0.9194 -0.3600 -0.1585
vn -0.1585 -0.3600 -0.9194
vn -0.3251 -0.3251 -0.8881
vn -0.3600 -0.1585 -0.9194
vn -0.3600 -0.9194 -0.1585
vn -0.3251 -0.8881 -0.3251
vn -0.1585 -0.9194 -0.3600
vn -0.9194 0.3600 -0.1585
vn -0.8881 0.3250 -0.3251
vn -0.9194 0.1585 -0.3600
vn -0.1585 0.9194 -0.3600
vn -0.3251 0.8881 -0.3251
vn -0.3600 0.9194 -0.1585
vn -0.3600 0.1585 -0.9194
vn -0.3251 0.3251 -0.8881
vn -0.1585 0.3600 -0.9194
vn -0.8881 0.3251 -0.3251
vn 0.3251 -0.8881 0.3250
vn 0.1585 -0.9194 0.3599
vn -0.1585 -0.9194 0.3599
vn -0.3251 -0.8881 0.3250
vn -0.3599 -0.9194 0.1585
vn -0.3599 -0.9194 -0.1585
vn -0.3251 -0.8881 -0.3250
vn 0.3827 -0.0000 -0.9239
vn 0.9239 -0.0000 -0.3827
vn -0.0000 -0.3827 -0.9239
vn -0.9239 -0.3827 -0.0000
vn -0.0000 -0.3827 0.9239
vn 0.9239 -0.3827 -0.0000
vn 0.3827 -0.0000 0.9239
vn 0.9239 -0.0000 0.3827
vn -0.9239 -0.0000 0.3827
vn -0.3827 -0.0000 0.9239
vn -0.3827 -0.0000 -0.9239
vn -0.9239 -0.0000 -0.3827
vn 0.9239 0.3827 -0.0000
vn -0.0000 0.3827 0.9239
vn -0.9239 0.3827 -0.0000
vn -0.0000 0.3827 -0.9239
vt 0.003066 0.700196
vt 0.055351 0.700196
vt 0.055351 0.926763
vt 0.003066 0.926763
vt 0.003066 0.235443
vt 0.055351 0.235443
vt 0.055351 0.462010
vt 0.003066 0.462010
vt 0.980474 0.445873
vt 0.980474 0.252226
vt 0.996934 0.235766
vt 0.996934 0.462333
vt 0.786827 0.252226
vt 0.770367 0.235766
vt 0.786827 0.445873
vt 0.980474 0.019526
vt 0.980474 0.213173
vt 0.786827 0.213173
vt 0.786827 0.019526
vt 0.671267 0.250689
vt 0.671267 0.018740
vt 0.693002 0.018740
vt 0.693002 0.250689
vt 0.113061 0.714588
vt 0.113061 0.946537
vt 0.091326 0.946537
vt 0.091326 0.714588
vt 0.671267 0.482639
vt 0.693002 0.482639
vt 0.671267 0.946537
vt 0.671267 0.714588
vt 0.693002 0.714588
vt 0.693002 0.946537
vt 0.121012 0.486118
vt 0.663316 0.486118
vt 0.663316 0.711109
vt 0.121012 0.711109
vt 0.770367 0.462333
vt 0.113061 0.482639
vt 0.091326 0.482639
vt 0.094403 0.926763
vt 0.061483 0.926763
vt 0.061483 0.700196
vt 0.094403 0.700196
vt 0.996934 0.229633
vt 0.770367 0.229633
vt 0.996934 0.003066
vt 0.094403 0.229633
vt 0.061483 0.229633
vt 0.061483 0.003066
vt 0.094403 0.003066
vt 0.003066 0.003066
vt 0.055351 0.003066
vt 0.055351 0.229633
vt 0.003066 0.229633
vt 0.770367 0.003066
vt 0.094403 0.462010
vt 0.061483 0.462010
vt 0.061483 0.235443
vt 0.094403 0.235443
vt 0.094403 0.694387
vt 0.061483 0.694387
vt 0.061483 0.467819
vt 0.094403 0.467819
vt 0.121012 0.718067
vt 0.663316 0.718067
vt 0.663316 0.943058
vt 0.121012 0.943058
vt 0.113061 0.018740
vt 0.113061 0.250689
vt 0.091326 0.250689
vt 0.091326 0.018740
vt 0.121012 0.254169
vt 0.663316 0.254169
vt 0.663316 0.479159
vt 0.121012 0.479159
vt 0.003066 0.467819
vt 0.055351 0.467819
vt 0.055351 0.694387
vt 0.003066 0.694387
vt 0.121012 0.022219
vt 0.663316 0.022219
vt 0.663316 0.247210
vt 0.121012 0.247210
vt 0.663316 0.714588
vt 0.666145 0.714588
vt 0.666609 0.714588
vt 0.663316 0.018740
vt 0.665217 0.018740
vt 0.666609 0.018740
vt 0.666609 0.946537
vt 0.666609 0.946537
vt 0.663316 0.946537
vt 0.663316 0.250689
vt 0.666145 0.250689
vt 0.666609 0.250689
vt 0.666609 0.250689
vt 0.663316 0.482639
vt 0.666145 0.482639
vt 0.666609 0.482639
vt 0.666609 0.482639
vt 0.117719 0.018740
vt 0.121012 0.018740
vt 0.117719 0.946537
vt 0.121012 0.946537
vt 0.119111 0.946537
vt 0.117719 0.250689
vt 0.118183 0.250689
vt 0.121012 0.250689
vt 0.117719 0.482639
vt 0.118183 0.482639
vt 0.121012 0.482639
vt 0.121012 0.714588
vt 0.118183 0.714588
vt 0.117719 0.714588
vt 0.003066 0.929668
vt 0.001389 0.929668
vt 0.000161 0.926763
vt 0.000161 0.003066
vt 0.000161 0.001389
vt 0.003066 0.000162
vt 0.767462 0.235766
vt 0.767462 0.234089
vt 0.770367 0.232861
vt 0.770367 0.465238
vt 0.768690 0.465238
vt 0.767462 0.462333
vt 0.003066 0.697291
vt 0.001389 0.697291
vt 0.000161 0.694387
vt 0.000161 0.700196
vt 0.000161 0.698519
vt 0.003066 0.697291
vt 0.097308 0.229633
vt 0.097308 0.231310
vt 0.094403 0.232538
vt 0.697659 0.711689
vt 0.697659 0.713362
vt 0.693002 0.717629
vt 0.096080 0.232538
vt 0.097308 0.235443
vt 0.058578 0.235443
vt 0.058578 0.233766
vt 0.061483 0.232538
vt 0.770367 0.232538
vt 0.768690 0.232538
vt 0.767462 0.229633
vt 0.059806 0.232538
vt 0.058578 0.229633
vt 0.999839 0.229633
vt 0.999839 0.231310
vt 0.996934 0.232538
vt 0.061483 0.929668
vt 0.059806 0.929668
vt 0.058579 0.926763
vt 0.058578 0.003066
vt 0.058578 0.001389
vt 0.061483 0.000161
vt 0.055351 0.000161
vt 0.057028 0.000161
vt 0.058256 0.003066
vt 0.058256 0.926763
vt 0.058256 0.928440
vt 0.055351 0.929668
vt 0.086669 0.021639
vt 0.086669 0.019965
vt 0.091326 0.015699
vt 0.003066 0.232538
vt 0.001389 0.232538
vt 0.000161 0.229633
vt 0.000161 0.235443
vt 0.000161 0.233766
vt 0.003066 0.232538
vt 0.996934 0.232861
vt 0.998611 0.232861
vt 0.999838 0.235766
vt 0.996934 0.000161
vt 0.998611 0.000161
vt 0.999839 0.003066
vt 0.061483 0.697291
vt 0.059806 0.697291
vt 0.058579 0.694387
vt 0.058579 0.700196
vt 0.058579 0.698519
vt 0.055351 0.232538
vt 0.057028 0.232538
vt 0.058256 0.235443
vt 0.058256 0.229633
vt 0.058256 0.231310
vt 0.086669 0.253589
vt 0.086669 0.251915
vt 0.091326 0.247648
vt 0.003066 0.464915
vt 0.001389 0.464915
vt 0.000161 0.462010
vt 0.000161 0.467819
vt 0.000161 0.466142
vt 0.003066 0.464915
vt 0.999838 0.462333
vt 0.999838 0.464010
vt 0.996934 0.465238
vt 0.058578 0.467819
vt 0.058578 0.466142
vt 0.061483 0.464915
vt 0.767462 0.003066
vt 0.767462 0.001389
vt 0.770367 0.000161
vt 0.059806 0.464915
vt 0.058578 0.462010
vt 0.055351 0.464915
vt 0.057028 0.464915
vt 0.058256 0.467819
vt 0.058256 0.462010
vt 0.058256 0.463687
vt 0.086669 0.485538
vt 0.086669 0.483864
vt 0.091326 0.479597
vt 0.094403 0.000161
vt 0.096080 0.000161
vt 0.097308 0.003066
vt 0.097308 0.926763
vt 0.097308 0.928440
vt 0.094403 0.929668
vt 0.697659 0.943638
vt 0.697659 0.945312
vt 0.693002 0.949578
vt 0.094403 0.697291
vt 0.096080 0.697291
vt 0.097308 0.700196
vt 0.097308 0.694387
vt 0.097308 0.696064
vt 0.697659 0.247790
vt 0.697659 0.249464
vt 0.693002 0.253731
vt 0.094403 0.464915
vt 0.096080 0.464915
vt 0.097308 0.467819
vt 0.097308 0.462010
vt 0.097308 0.463687
vt 0.697659 0.479739
vt 0.697659 0.481413
vt 0.693002 0.485680
vt 0.058256 0.694387
vt 0.058256 0.696064
vt 0.055351 0.697291
vt 0.086669 0.717487
vt 0.086669 0.715813
vt 0.091326 0.711547
vt 0.057028 0.697291
vt 0.058256 0.700196
vt 0.770367 0.000161
vt 0.697659 0.485538
vt 0.697659 0.253589
vt 0.697659 0.021639
vt 0.697659 0.717487
vt 0.086669 0.943638
vt 0.086669 0.247790
vt 0.086669 0.479739
vt 0.086669 0.711689
s 1
usemtl TOMB_BASE
f 74/1/1 172/2/2 101/3/3 65/4/4
s 2
f 108/5/5 121/6/6 143/7/7 128/8/8
s 3
f 5/9/9 7/10/9 109/11/10 130/12/11
f 7/10/9 3/13/9 67/14/12 109/11/10
f 3/13/9 7/10/9 5/9/9 1/15/9
s 4
f 8/16/13 4/17/13 2/18/13 6/19/13
s 7
f 51/34/23 30/35/24 10/36/25 58/37/26
s 3
f 3/13/9 1/15/9 72/38/22 67/14/12
s 8
f 150/41/29 94/42/30 116/43/31 156/44/32
s 4
f 2/18/13 4/17/13 93/45/18 87/46/19
f 4/17/13 8/16/13 114/47/33 93/45/18
s 9
f 79/48/1 88/49/2 95/50/3 149/51/4
s 10
f 66/52/29 100/53/30 122/54/31 107/55/32
s 3
f 1/15/9 5/9/9 130/12/11 72/38/22
s 4
f 8/16/13 6/19/13 136/56/28 114/47/33
s 11
f 164/57/34 137/58/35 86/59/36 81/60/37
s 12
f 157/61/5 115/62/6 135/63/7 163/64/8
s 13
f 59/65/38 9/66/39 17/67/40 39/68/41
s 4
f 6/19/13 2/18/13 87/46/19 136/56/28
s 14
f 44/73/43 23/74/44 31/75/45 53/76/46
s 15
f 129/77/34 142/78/35 170/79/36 73/80/37
s 16
f 37/81/47 16/82/48 24/83/49 46/84/50
s 17
f 9/66/51 12/85/52 13/86/52 15/87/51
f 10/36/53 14/87/53 13/86/52 12/85/52
s 18
f 16/82/57 19/88/58 20/89/58 22/90/57
f 17/67/59 21/91/59 20/92/58 19/93/58
s 19
f 23/74/63 26/94/64 27/95/64 29/96/63
f 24/83/65 28/97/65 27/95/64 26/94/64
s 20
f 30/35/69 33/98/70 34/99/70 36/100/69
f 31/75/71 35/101/71 34/99/70 33/98/70
s 21
f 37/81/75 40/102/75 41/102/76 43/103/76
f 39/68/80 43/105/76 41/106/76 42/104/80
s 22
f 44/73/81 47/107/81 48/108/82 50/109/82
f 46/84/86 50/109/82 48/108/82 49/107/86
s 23
f 51/34/87 54/110/87 55/111/88 57/112/88
f 53/76/92 57/112/88 55/111/88 56/110/92
s 24
f 58/37/93 61/113/94 62/114/94 64/115/93
f 59/65/95 63/115/95 62/114/94 61/113/94
s 1
f 65/4/4 68/116/99 69/117/100 71/118/101
s 10
f 66/52/29 70/119/102 69/120/103 68/121/104
s 3
f 67/14/12 71/122/105 69/123/106 70/124/107
f 72/38/22 75/125/108 76/126/109 78/127/110
s 15
f 73/80/37 77/128/111 76/129/112 75/130/113
s 1
f 74/1/1 78/131/114 76/132/115 77/133/116
s 9
f 79/48/1 82/134/114 83/135/117 85/136/116
s 11
f 81/60/37 85/136/111 83/140/119 84/141/113
f 86/59/36 89/142/120 90/143/121 92/144/122
s 4
f 87/46/19 91/145/123 90/146/124 89/147/125
s 9
f 88/49/2 92/144/126 90/148/127 91/149/128
s 4
f 93/45/18 96/150/129 97/151/130 99/152/131
s 8
f 94/42/30 98/153/132 97/154/133 96/155/134
s 9
f 95/50/3 99/156/135 97/157/136 98/158/137
s 10
f 100/53/30 103/159/132 104/160/138 106/161/134
s 1
f 101/3/3 105/162/135 104/163/139 103/164/137
s 10
f 107/55/32 110/168/141 111/169/142 113/170/143
s 2
f 108/5/5 112/171/144 111/172/145 110/173/146
s 3
f 109/11/10 113/174/147 111/175/148 112/176/149
s 4
f 114/47/33 117/177/150 118/178/151 120/179/152
s 12
f 115/62/6 119/180/153 118/181/154 117/182/155
s 8
f 116/43/31 120/183/156 118/184/157 119/180/158
s 2
f 121/6/6 124/185/153 125/186/159 127/187/155
s 10
f 122/54/31 126/188/156 125/189/160 124/185/158
s 2
f 128/8/8 131/193/162 132/194/163 134/195/164
s 15
f 129/77/34 133/196/165 132/197/166 131/198/167
s 3
f 130/12/11 134/199/168 132/200/169 133/201/170
s 12
f 135/63/7 138/202/171 139/203/172 141/204/173
s 4
f 136/56/28 140/205/174 139/206/175 138/207/176
s 11
f 137/58/35 141/204/177 139/208/178 140/209/179
s 15
f 142/78/35 145/210/177 146/211/178 148/212/179
s 2
f 143/7/7 147/213/171 146/214/180 145/210/173
s 9
f 149/51/4 152/218/99 153/219/100 155/220/101
s 8
f 150/41/29 154/221/102 153/222/103 152/223/104
f 156/44/32 159/227/141 160/228/142 162/229/143
s 12
f 157/61/5 161/230/144 160/231/145 159/227/146
f 163/64/8 166/235/162 167/236/163 169/237/164
s 11
f 164/57/34 168/238/165 167/239/166 166/235/167
s 15
f 170/79/36 173/243/120 174/244/121 176/245/122
s 1
f 172/2/2 176/245/126 174/249/127 175/250/128
s 7
f 58/37/26 10/36/25 12/85/188 61/113/188
s 13
f 61/113/189 12/85/189 9/66/39 59/65/38
s 7
f 36/100/190 14/87/190 10/36/25 30/35/24
s 14
f 29/96/191 35/101/191 31/75/45 23/74/44
s 16
f 22/90/192 28/97/192 24/83/49 16/82/48
s 13
f 15/87/193 21/91/193 17/67/40 9/66/39
s 16
f 16/82/48 37/81/47 43/103/194 19/88/194
s 13
f 19/93/195 43/105/195 39/68/41 17/67/40
s 14
f 23/74/44 44/73/43 50/109/196 26/94/196
s 16
f 26/94/197 50/109/197 46/84/50 24/83/49
s 7
f 30/35/24 51/34/23 57/112/198 33/98/198
s 14
f 33/98/199 57/112/199 53/76/46 31/75/45
s 13
f 59/65/38 39/68/41 42/104/200 63/115/200
s 16
f 37/81/47 46/84/50 49/107/201 40/102/201
s 14
f 44/73/43 53/76/46 56/110/202 47/107/202
s 7
f 51/34/23 58/37/26 64/115/203 54/110/203
s 3
f 67/14/12 72/38/22 78/127/110 71/122/105
s 1
f 71/118/101 78/131/114 74/1/1 65/4/4
s 11
f 81/60/37 86/59/36 92/144/122 85/136/111
s 9
f 85/136/116 92/144/126 88/49/2 79/48/1
s 4
f 87/46/19 93/45/18 99/152/131 91/145/123
s 9
f 91/149/128 99/156/135 95/50/3 88/49/2
s 10
f 100/53/30 66/52/29 68/121/104 103/159/132
s 1
f 103/164/137 68/116/99 65/4/4 101/3/3
s 3
f 109/11/10 67/14/12 70/124/107 113/174/147
s 10
f 113/170/143 70/119/102 66/52/29 107/55/32
s 4
f 93/45/18 114/47/33 120/179/152 96/150/129
s 8
f 96/155/134 120/183/156 116/43/31 94/42/30
s 2
f 121/6/6 108/5/5 110/168/146 124/185/153
s 10
f 124/185/158 110/168/141 107/55/32 122/54/31
s 3
f 130/12/11 109/11/10 112/176/149 134/199/168
s 2
f 134/195/164 112/171/144 108/5/5 128/8/8
s 4
f 114/47/33 136/56/28 138/251/176 117/177/150
s 12
f 117/182/155 138/202/171 135/63/7 115/62/6
s 15
f 142/78/35 129/77/34 131/193/167 145/210/177
s 2
f 145/210/173 131/193/162 128/8/8 143/7/7
s 3
f 72/38/22 130/12/11 133/201/170 75/125/108
s 15
f 75/130/113 133/196/165 129/77/34 73/80/37
s 4
f 136/56/28 87/46/19 89/147/125 140/205/174
s 11
f 140/209/179 89/142/120 86/59/36 137/58/35
s 8
f 94/42/30 150/41/29 152/223/104 98/153/132
s 9
f 98/158/137 152/218/99 149/51/4 95/50/3
s 12
f 115/62/6 157/61/5 159/227/146 119/180/153
s 8
f 119/180/158 159/227/141 156/44/32 116/43/31
s 11
f 137/58/35 164/57/34 166/235/167 141/204/177
s 12
f 141/204/173 166/235/162 163/64/8 135/63/7
s 11
f 164/57/34 81/60/37 84/141/113 168/238/165
s 12
f 157/61/5 163/64/8 169/237/164 161/230/144
s 8
f 150/41/29 156/44/32 162/229/143 154/221/102
s 9
f 79/48/1 149/51/4 155/220/101 82/134/114
s 15
f 73/80/37 170/79/36 176/245/122 77/128/111
s 1
f 77/128/116 176/245/126 172/2/2 74/1/1
f 175/250/128 105/162/135 101/3/3 172/2/2
s 10
f 106/161/134 126/188/156 122/54/31 100/53/30
s 2
f 127/187/155 147/213/171 143/7/7 121/6/6
s 15
f 148/212/179 173/243/120 170/79/36 142/78/35
s 5
usemtl TOMB_BASE-DARK
f 25/20/14 18/21/15 151/22/12 158/23/10
s 6
f 60/24/16 38/25/17 102/26/18 171/27/19
s 5
f 32/28/20 25/20/14 158/23/10 165/29/11
f 18/30/15 11/31/21 80/32/22 151/33/12
s 6
f 52/39/27 60/24/16 171/27/19 144/40/28
f 38/69/17 45/70/42 123/71/33 102/72/18
f 45/70/42 52/39/27 144/40/28 123/71/33
s 5
f 11/31/21 15/87/54 13/86/55 14/87/56
f 18/21/15 22/90/60 20/90/61 21/90/62
f 25/20/14 29/96/66 27/95/67 28/97/68
f 32/28/20 36/100/72 34/99/73 35/101/74
s 6
f 38/25/17 42/104/77 41/104/78 40/104/79
f 45/70/42 49/107/83 48/108/84 47/107/85
f 52/39/27 56/110/89 55/111/90 54/110/91
f 60/24/16 64/115/96 62/114/97 63/115/98
s 5
f 80/32/22 84/137/108 83/138/118 82/139/110
s 6
f 102/72/18 106/165/129 104/166/140 105/167/131
f 123/71/33 127/190/150 125/191/161 126/192/152
f 144/40/28 148/215/174 146/216/175 147/217/176
s 5
f 151/33/12 155/224/105 153/225/181 154/226/182
f 158/23/10 162/232/183 160/233/184 161/234/185
f 165/29/11 169/240/186 167/241/187 168/242/170
s 6
f 171/27/19 175/246/123 174/247/124 173/248/125
s 5
f 32/28/20 11/31/21 14/87/56 36/100/72
f 25/20/14 32/28/20 35/101/74 29/96/66
f 18/21/15 25/20/14 28/97/68 22/90/60
f 11/31/21 18/30/15 21/91/62 15/87/54
s 6
f 63/115/98 42/104/77 38/25/17 60/24/16
f 40/102/79 49/107/83 45/70/42 38/69/17
f 47/107/85 56/110/89 52/39/27 45/70/42
f 54/110/91 64/115/96 60/24/16 52/39/27
s 5
f 168/252/170 84/137/108 80/32/22 165/29/11
f 161/253/185 169/240/186 165/29/11 158/23/10
f 154/254/182 162/232/183 158/23/10 151/22/12
f 82/255/110 155/224/105 151/33/12 80/32/22
s 6
f 171/27/19 102/26/18 105/256/131 175/246/123
f 102/72/18 123/71/33 126/257/152 106/165/129
f 123/71/33 144/40/28 147/258/176 127/190/150
f 144/40/28 171/27/19 173/259/125 148/215/174
s 5
f 11/31/21 32/28/20 165/29/11 80/32/22
