# Blender 4.4.3
# www.blender.org
mtllib TOMB_WALL_3_006.mtl
o TOMB_WALL_3_006
v 0.500000 0.000000 0.500000
v -2.500000 0.000000 0.500000
v 0.500000 0.000000 0.300000
v -2.500000 0.000000 0.300000
v 0.500000 3.000000 0.500000
v -2.500000 3.000000 0.500000
v 0.500000 3.000000 0.300000
v -2.500000 3.000000 0.300000
v 0.500000 2.785000 0.315000
v 0.485000 2.785000 0.300000
v 0.515000 2.800000 0.285000
v 0.495607 2.785000 0.304393
v 0.500000 2.793661 0.300000
v 0.500000 2.795607 0.295607
v 0.504393 2.795607 0.300000
v -2.485000 2.785000 0.500000
v -2.515000 2.800000 0.515000
v -2.500000 2.785000 0.485000
v -2.500000 2.795607 0.504393
v -2.500000 2.793660 0.500000
v -2.504394 2.795607 0.500000
v -2.495606 2.785000 0.495607
v -2.515000 2.800000 0.285000
v -2.485000 2.785000 0.300000
v -2.500000 2.785000 0.315000
v -2.500000 2.795607 0.295607
v -2.500000 2.793660 0.300000
v -2.495606 2.785000 0.304393
v -2.504394 2.795607 0.300000
v 0.485000 2.785000 0.500000
v 0.500000 2.785000 0.485000
v 0.515000 2.800000 0.515000
v 0.495607 2.785000 0.495607
v 0.500000 2.793661 0.500000
v 0.504393 2.795607 0.500000
v 0.500000 2.795607 0.504393
v -2.485000 0.315000 0.300000
v -2.515000 0.300000 0.285000
v -2.500000 0.315000 0.315000
v -2.500000 0.304393 0.295607
v -2.500000 0.306340 0.300000
v -2.504394 0.304393 0.300000
v -2.495606 0.315000 0.304393
v 0.485000 0.315000 0.300000
v 0.500000 0.315000 0.315000
v 0.515000 0.300000 0.285000
v 0.495607 0.315000 0.304393
v 0.500000 0.306340 0.300000
v 0.504393 0.304393 0.300000
v 0.500000 0.304393 0.295607
v -2.485000 0.315000 0.500000
v -2.500000 0.315000 0.485000
v -2.515000 0.300000 0.515000
v -2.495606 0.315000 0.495607
v -2.500000 0.306340 0.500000
v -2.504394 0.304393 0.500000
v -2.500000 0.304393 0.504393
v 0.485000 0.315000 0.500000
v 0.515000 0.300000 0.515000
v 0.500000 0.315000 0.485000
v 0.500000 0.304393 0.504393
v 0.500000 0.306340 0.500000
v 0.504393 0.304393 0.500000
v 0.495607 0.315000 0.495607
v 0.600000 0.015000 0.215000
v 0.585000 0.000000 0.215000
v 0.585000 0.015000 0.200000
v 0.595607 0.004393 0.215000
v 0.593660 0.006340 0.206340
v 0.585000 0.004393 0.204393
v 0.595607 0.015000 0.204393
v 0.600000 0.015000 0.585000
v 0.585000 0.015000 0.600000
v 0.585000 0.000000 0.585000
v 0.595607 0.015000 0.595607
v 0.593660 0.006340 0.593660
v 0.585000 0.004393 0.595607
v 0.595607 0.004393 0.585000
v -2.600000 0.015000 0.585000
v -2.585000 0.000000 0.585000
v -2.585000 0.015000 0.600000
v -2.595607 0.004393 0.585000
v -2.593660 0.006340 0.593660
v -2.585000 0.004393 0.595607
v -2.595607 0.015000 0.595607
v -2.600000 0.015000 0.215000
v -2.585000 0.015000 0.200000
v -2.585000 0.000000 0.215000
v -2.595606 0.015000 0.204393
v -2.593660 0.006340 0.206340
v -2.585000 0.004393 0.204393
v -2.595607 0.004393 0.215000
v 0.600000 2.985000 0.215000
v 0.585000 2.985000 0.200000
v 0.585000 3.000000 0.215000
v 0.595607 2.985000 0.204393
v 0.593660 2.993660 0.206340
v 0.585000 2.995606 0.204393
v 0.595607 2.995606 0.215000
v 0.600000 2.985000 0.585000
v 0.585000 3.000000 0.585000
v 0.585000 2.985000 0.600000
v 0.595607 2.995606 0.585000
v 0.593660 2.993660 0.593660
v 0.585000 2.995606 0.595607
v 0.595607 2.985000 0.595607
v -2.600000 2.985000 0.585000
v -2.585000 2.985000 0.600000
v -2.585000 3.000000 0.585000
v -2.595607 2.985000 0.595607
v -2.593660 2.993660 0.593660
v -2.585000 2.995606 0.595607
v -2.595607 2.995606 0.585000
v -2.600000 2.985000 0.215000
v -2.585000 3.000000 0.215000
v -2.585000 2.985000 0.200000
v -2.595607 2.995606 0.215000
v -2.593660 2.993660 0.206340
v -2.585000 2.995606 0.204393
v -2.595606 2.985000 0.204393
v 0.600000 2.815000 0.215000
v 0.585000 2.800000 0.215000
v 0.585000 2.815000 0.200000
v 0.595607 2.804394 0.215000
v 0.593660 2.806340 0.206340
v 0.585000 2.804394 0.204393
v 0.595607 2.815001 0.204393
v -2.585000 2.815000 0.600000
v -2.600000 2.815000 0.585000
v -2.585000 2.800000 0.585000
v -2.595607 2.815000 0.595607
v -2.593660 2.806340 0.593660
v -2.595607 2.804393 0.585000
v -2.585000 2.804393 0.595607
v -2.585000 0.285000 0.200000
v -2.600000 0.285000 0.215000
v -2.585000 0.300000 0.215000
v -2.595606 0.285000 0.204393
v -2.593660 0.293660 0.206340
v -2.595607 0.295607 0.215000
v -2.585000 0.295607 0.204393
v 0.585000 2.815000 0.600000
v 0.585000 2.800000 0.585000
v 0.600000 2.815000 0.585000
v 0.585000 2.804394 0.595607
v 0.593660 2.806340 0.593660
v 0.595607 2.804394 0.585000
v 0.595607 2.815001 0.595607
v -2.585000 2.815000 0.200000
v -2.585000 2.800000 0.215000
v -2.600000 2.815000 0.215000
v -2.585000 2.804394 0.204393
v -2.593660 2.806340 0.206340
v -2.595607 2.804394 0.215000
v -2.595607 2.815001 0.204393
v 0.585000 0.285000 0.200000
v 0.585000 0.300000 0.215000
v 0.600000 0.285000 0.215000
v 0.585000 0.295607 0.204393
v 0.593660 0.293660 0.206340
v 0.595607 0.295607 0.215000
v 0.595607 0.285000 0.204393
v -2.585000 0.285000 0.600000
v -2.585000 0.300000 0.585000
v -2.600000 0.285000 0.585000
v -2.585000 0.295607 0.595607
v -2.593660 0.293660 0.593660
v -2.595607 0.295607 0.585000
v -2.595607 0.285000 0.595607
v 0.585000 0.285000 0.600000
v 0.600000 0.285000 0.585000
v 0.585000 0.300000 0.585000
v 0.595607 0.285000 0.595607
v 0.593660 0.293660 0.593660
v 0.595607 0.295607 0.585000
v 0.585000 0.295607 0.595607
vn -0.0000 1.0000 -0.0000
vn 0.1794 -0.1794 0.9673
vn 0.1794 0.1794 0.9673
vn -0.1794 0.1794 0.9673
vn -0.1794 -0.1794 0.9673
vn -0.0507 0.9974 -0.0507
vn 0.0507 0.9974 -0.0507
vn 0.1794 0.9673 -0.1794
vn -0.1794 0.9673 -0.1794
vn 0.0507 -0.9974 0.0507
vn 0.0507 -0.9974 -0.0507
vn 0.1794 -0.9673 -0.1794
vn 0.1794 -0.9673 0.1794
vn -0.0507 -0.9974 -0.0507
vn -0.1794 -0.9673 -0.1794
vn 0.1105 0.1751 0.9783
vn 0.1105 -0.1751 0.9783
vn -0.1105 -0.1751 0.9783
vn -0.1105 0.1751 0.9783
vn -0.0507 0.9974 0.0507
vn -0.1794 0.9673 0.1794
vn -0.0507 -0.9974 0.0507
vn -0.1794 -0.9673 0.1794
vn -0.9673 -0.1794 -0.1794
vn -0.9673 -0.1794 0.1794
vn -0.9673 0.1794 0.1794
vn -0.9673 0.1794 -0.1794
vn 0.1794 -0.1794 -0.9673
vn -0.1794 -0.1794 -0.9673
vn -0.1794 0.1794 -0.9673
vn 0.1794 0.1794 -0.9673
vn -0.0000 -1.0000 -0.0000
vn 0.1794 0.9673 0.1794
vn 0.9673 -0.1794 0.1794
vn 0.9673 -0.1794 -0.1794
vn 0.9673 0.1794 -0.1794
vn 0.9673 0.1794 0.1794
vn 0.9783 0.1751 -0.1105
vn 0.9783 -0.1751 -0.1105
vn 0.9783 -0.1751 0.1105
vn 0.9783 0.1751 0.1105
vn 0.0507 0.9974 0.0507
vn -0.9783 0.1751 0.1105
vn -0.9783 -0.1751 0.1105
vn -0.9783 -0.1751 -0.1105
vn -0.9783 0.1751 -0.1105
vn 0.6225 -0.6778 -0.3913
vn 0.5138 -0.6870 -0.5138
vn 0.3914 -0.6778 -0.6225
vn 0.3004 -0.9489 -0.0965
vn 0.2024 -0.9581 -0.2025
vn 0.0964 -0.9489 -0.3004
vn -0.3913 -0.6778 0.6225
vn -0.5138 -0.6870 0.5138
vn -0.3005 -0.9489 0.0965
vn -0.2025 -0.9581 0.2025
vn -0.0965 -0.9489 0.3005
vn -0.6225 -0.6778 0.3913
vn -0.0965 -0.9489 -0.3004
vn -0.2025 -0.9581 -0.2025
vn -0.3004 -0.9489 -0.0965
vn -0.3913 -0.6778 -0.6225
vn -0.5138 -0.6870 -0.5138
vn -0.6225 -0.6778 -0.3913
vn 0.3914 -0.6778 0.6225
vn 0.5138 -0.6870 0.5138
vn 0.6225 -0.6778 0.3913
vn 0.0965 -0.9489 0.3004
vn 0.2025 -0.9581 0.2025
vn 0.3005 -0.9489 0.0965
vn -0.3913 0.6778 -0.6225
vn -0.5138 0.6870 -0.5138
vn -0.3004 0.9489 -0.0965
vn -0.2025 0.9581 -0.2025
vn -0.0965 0.9489 -0.3004
vn -0.6225 0.6778 -0.3913
vn 0.3913 0.6778 -0.6225
vn 0.5138 0.6870 -0.5138
vn 0.6225 0.6778 -0.3913
vn 0.0965 0.9489 -0.3004
vn 0.2025 0.9581 -0.2025
vn 0.3004 0.9489 -0.0965
vn -0.3913 0.6778 0.6225
vn -0.5138 0.6870 0.5138
vn -0.6225 0.6778 0.3913
vn -0.0965 0.9489 0.3004
vn -0.2025 0.9581 0.2025
vn -0.3004 0.9489 0.0965
vn 0.3913 0.6778 0.6225
vn 0.5138 0.6870 0.5138
vn 0.3004 0.9489 0.0965
vn 0.2025 0.9581 0.2025
vn 0.0965 0.9489 0.3004
vn 0.6225 0.6778 0.3913
vn 0.9194 -0.3600 -0.1585
vn 0.8881 -0.3251 -0.3251
vn 0.9194 -0.1585 -0.3600
vn 0.1585 -0.9194 -0.3600
vn 0.3251 -0.8881 -0.3251
vn 0.3600 -0.9194 -0.1585
vn 0.3600 -0.1585 -0.9194
vn 0.3251 -0.3251 -0.8881
vn 0.1585 -0.3600 -0.9194
vn 0.9194 -0.1585 0.3600
vn 0.8881 -0.3251 0.3251
vn 0.9194 -0.3600 0.1585
vn 0.1585 -0.3600 0.9194
vn 0.3251 -0.3251 0.8881
vn 0.3600 -0.1585 0.9194
vn 0.3600 -0.9194 0.1585
vn 0.3251 -0.8881 0.3251
vn 0.1585 -0.9194 0.3600
vn -0.9194 -0.3600 0.1585
vn -0.8881 -0.3251 0.3251
vn -0.9194 -0.1585 0.3600
vn -0.1585 -0.9194 0.3600
vn -0.3251 -0.8881 0.3251
vn -0.3600 -0.9194 0.1585
vn -0.3600 -0.1585 0.9194
vn -0.3251 -0.3251 0.8881
vn -0.1585 -0.3600 0.9194
vn -0.9194 -0.1585 -0.3600
vn -0.8881 -0.3250 -0.3251
vn -0.9194 -0.3600 -0.1585
vn -0.1585 -0.3600 -0.9194
vn -0.3251 -0.3251 -0.8881
vn -0.3600 -0.1585 -0.9194
vn -0.3600 -0.9194 -0.1585
vn -0.3251 -0.8881 -0.3251
vn -0.1585 -0.9194 -0.3600
vn 0.9194 0.1585 -0.3600
vn 0.8881 0.3251 -0.3251
vn 0.9194 0.3600 -0.1585
vn 0.1585 0.3600 -0.9194
vn 0.3251 0.3251 -0.8881
vn 0.3600 0.1585 -0.9194
vn 0.3600 0.9194 -0.1585
vn 0.3251 0.8881 -0.3251
vn 0.1585 0.9194 -0.3600
vn 0.9194 0.3600 0.1585
vn 0.8881 0.3250 0.3251
vn 0.9194 0.1585 0.3600
vn 0.1585 0.9194 0.3600
vn 0.3251 0.8881 0.3251
vn 0.3600 0.9194 0.1585
vn 0.3600 0.1585 0.9194
vn 0.3251 0.3251 0.8881
vn 0.1585 0.3600 0.9194
vn -0.9194 0.1585 0.3600
vn -0.8881 0.3251 0.3251
vn -0.9194 0.3600 0.1585
vn -0.1585 0.3600 0.9194
vn -0.3251 0.3251 0.8881
vn -0.3600 0.1585 0.9194
vn -0.3600 0.9194 0.1585
vn -0.3251 0.8881 0.3251
vn -0.1585 0.9194 0.3600
vn -0.9194 0.3600 -0.1585
vn -0.8881 0.3250 -0.3251
vn -0.9194 0.1585 -0.3600
vn -0.1585 0.9194 -0.3600
vn -0.3251 0.8881 -0.3251
vn -0.3600 0.9194 -0.1585
vn -0.3600 0.1585 -0.9194
vn -0.3251 0.3251 -0.8881
vn -0.1585 0.3600 -0.9194
vn -0.3250 -0.3251 0.8881
vn -0.8881 -0.3251 0.3250
vn -0.3250 -0.8881 0.3250
vn -0.9194 -0.3599 -0.1585
vn 0.8881 0.3251 0.3251
vn 0.1105 0.1751 -0.9783
vn 0.1105 -0.1751 -0.9783
vn 0.3827 -0.0000 -0.9239
vn 0.9239 -0.0000 -0.3827
vn -0.3827 -0.0000 0.9239
vn -0.9239 -0.0000 0.3827
vn 0.9239 -0.0000 0.3827
vn 0.3827 -0.0000 0.9239
vn -0.9239 -0.3827 -0.0000
vn -0.0000 -0.3827 -0.9239
vn -0.1105 -0.1751 -0.9783
vn 0.9239 -0.3827 -0.0000
vn -0.0000 -0.3827 0.9239
vn -0.1105 0.1751 -0.9783
vn -0.3827 -0.0000 -0.9239
vn -0.9239 -0.0000 -0.3827
vn -0.9239 0.3827 -0.0000
vn 0.9239 0.3827 -0.0000
vn -0.0000 0.3827 -0.9239
vn -0.0000 0.3827 0.9239
vt 0.528079 0.022104
vt 0.528079 0.431729
vt 0.500771 0.431729
vt 0.500771 0.022104
vt 0.393088 0.556665
vt 0.429954 0.556665
vt 0.429954 0.989502
vt 0.393088 0.989502
vt 0.475262 0.433778
vt 0.475262 0.020056
vt 0.484820 0.010498
vt 0.484820 0.443335
vt 0.048186 0.407312
vt 0.048186 0.445912
vt 0.034734 0.445912
vt 0.034734 0.407312
vt 0.048186 0.844773
vt 0.034734 0.844773
vt 0.388752 0.405318
vt 0.053107 0.405318
vt 0.053107 0.010445
vt 0.388752 0.010445
vt 0.443857 0.433778
vt 0.434299 0.443336
vt 0.048186 0.008450
vt 0.034734 0.008450
vt 0.393088 0.061019
vt 0.393088 0.010498
vt 0.429954 0.010498
vt 0.429954 0.061019
vt 0.393088 0.497952
vt 0.393088 0.065115
vt 0.429954 0.065115
vt 0.429954 0.497952
vt 0.029813 0.842904
vt 0.006712 0.842904
vt 0.006712 0.447781
vt 0.029813 0.447781
vt 0.029813 0.405442
vt 0.006712 0.405442
vt 0.006712 0.010320
vt 0.029813 0.010320
vt 0.029813 0.846221
vt 0.029813 0.881925
vt 0.006712 0.881925
vt 0.006712 0.846221
vt 0.473214 0.459287
vt 0.473214 0.868912
vt 0.445905 0.868912
vt 0.445905 0.459287
vt 0.484820 0.447681
vt 0.484820 0.880518
vt 0.489165 0.010498
vt 0.539685 0.010498
vt 0.539685 0.443335
vt 0.489165 0.443335
vt 0.434299 0.880518
vt 0.393088 0.552569
vt 0.393088 0.502048
vt 0.429954 0.502048
vt 0.429954 0.552569
vt 0.388752 0.443017
vt 0.053107 0.443017
vt 0.053107 0.410207
vt 0.388752 0.410207
vt 0.443857 0.020056
vt 0.434299 0.010498
vt 0.434299 0.447681
vt 0.388752 0.880478
vt 0.053107 0.880478
vt 0.053107 0.847668
vt 0.388752 0.847668
vt 0.029813 0.408759
vt 0.029813 0.444464
vt 0.006712 0.444464
vt 0.006712 0.408759
vt 0.048186 0.883373
vt 0.034734 0.883373
vt 0.053107 0.445912
vt 0.051356 0.445912
vt 0.051069 0.445912
vt 0.053107 0.447906
vt 0.051069 0.008450
vt 0.053107 0.008450
vt 0.051069 0.883373
vt 0.053107 0.883373
vt 0.051931 0.883373
vt 0.051069 0.844773
vt 0.051356 0.844773
vt 0.053107 0.842779
vt 0.053107 0.844773
vt 0.053107 0.407312
vt 0.051356 0.407312
vt 0.051069 0.407312
vt 0.388752 0.842779
vt 0.390790 0.844773
vt 0.388752 0.844773
vt 0.473214 0.431729
vt 0.389929 0.844773
vt 0.388752 0.447906
vt 0.388752 0.445912
vt 0.389929 0.445912
vt 0.390790 0.445912
vt 0.473214 0.022105
vt 0.473214 0.022104
vt 0.388752 0.008450
vt 0.389929 0.008450
vt 0.390790 0.008450
vt 0.390790 0.883373
vt 0.388752 0.883373
vt 0.445905 0.431730
vt 0.390790 0.407312
vt 0.388752 0.407312
vt 0.445905 0.022104
vt 0.389929 0.407312
vt 0.391040 0.502048
vt 0.391040 0.500866
vt 0.393088 0.500000
vt 0.432251 0.447681
vt 0.432251 0.446498
vt 0.434299 0.445633
vt 0.391905 0.500000
vt 0.391040 0.497952
vt 0.393088 0.554617
vt 0.391905 0.554617
vt 0.391040 0.552569
vt 0.391040 0.556665
vt 0.391040 0.555482
vt 0.484820 0.445633
vt 0.486002 0.445633
vt 0.486868 0.447681
vt 0.391040 0.010498
vt 0.391040 0.009316
vt 0.393088 0.008450
vt 0.486868 0.880518
vt 0.486868 0.881700
vt 0.484820 0.882566
vt 0.393088 0.991550
vt 0.391905 0.991550
vt 0.391040 0.989502
vt 0.393088 0.063067
vt 0.391905 0.063067
vt 0.391040 0.061019
vt 0.391040 0.065115
vt 0.391040 0.063933
vt 0.434299 0.882566
vt 0.433117 0.882566
vt 0.432251 0.880518
vt 0.006712 0.445912
vt 0.005535 0.445912
vt 0.004674 0.444464
vt 0.004674 0.447781
vt 0.004674 0.446702
vt 0.489165 0.445383
vt 0.487983 0.445383
vt 0.487117 0.443335
vt 0.004674 0.408760
vt 0.004674 0.407924
vt 0.006712 0.407312
vt 0.541734 0.443335
vt 0.541734 0.444518
vt 0.539685 0.445383
vt 0.005535 0.407312
vt 0.004674 0.405442
vt 0.006712 0.883373
vt 0.005535 0.883373
vt 0.004674 0.881925
vt 0.004674 0.010320
vt 0.004674 0.009240
vt 0.006712 0.008450
vt 0.539685 0.008450
vt 0.540868 0.008450
vt 0.541734 0.010498
vt 0.004674 0.846221
vt 0.004674 0.845385
vt 0.006712 0.844773
vt 0.487117 0.010498
vt 0.487117 0.009316
vt 0.489165 0.008450
vt 0.005535 0.844773
vt 0.004674 0.842904
vt 0.031851 0.444464
vt 0.031564 0.445971
vt 0.029813 0.445912
vt 0.031851 0.447781
vt 0.034734 0.444009
vt 0.029813 0.008450
vt 0.030990 0.008450
vt 0.031851 0.010320
vt 0.031851 0.881925
vt 0.031851 0.882761
vt 0.029813 0.883373
vt 0.031851 0.010320
vt 0.031851 0.009240
vt 0.034734 0.006548
vt 0.429954 0.063067
vt 0.431136 0.063067
vt 0.432002 0.065115
vt 0.432002 0.061019
vt 0.432002 0.062201
vt 0.486868 0.443335
vt 0.486868 0.444518
vt 0.484820 0.445384
vt 0.031851 0.405442
vt 0.031564 0.407253
vt 0.029813 0.407312
vt 0.031851 0.408760
vt 0.034734 0.405608
vt 0.031851 0.842904
vt 0.031564 0.844714
vt 0.029813 0.844773
vt 0.031851 0.846221
vt 0.034734 0.843070
vt 0.432002 0.497952
vt 0.432002 0.499134
vt 0.429954 0.500000
vt 0.484820 0.008450
vt 0.486002 0.008450
vt 0.486868 0.010498
vt 0.431136 0.500000
vt 0.432002 0.502048
vt 0.432002 0.989502
vt 0.432002 0.990684
vt 0.429954 0.991550
vt 0.434299 0.445384
vt 0.433117 0.445384
vt 0.432251 0.443336
vt 0.429954 0.008450
vt 0.431136 0.008450
vt 0.432002 0.010498
vt 0.429954 0.554617
vt 0.431136 0.554617
vt 0.432002 0.556665
vt 0.432002 0.552569
vt 0.432002 0.553751
vt 0.432251 0.010498
vt 0.432251 0.009316
vt 0.434299 0.008450
s 1
usemtl TOMB_BASE
f 6/1/1 5/2/1 7/3/1 8/4/1
s 2
f 73/5/2 170/6/3 163/7/4 81/8/5
s 5
f 58/19/16 30/20/17 16/21/18 51/22/19
s 6
f 86/27/24 79/28/25 165/29/26 136/30/27
s 7
f 67/31/28 87/32/29 135/33/30 156/34/31
s 8
f 149/35/29 116/36/30 94/37/31 123/38/28
s 9
f 142/39/2 102/40/3 108/41/4 128/42/5
s 10
f 151/43/24 129/44/25 107/45/26 114/46/27
s 11
f 1/47/32 2/48/32 4/49/32 3/50/32
f 2/48/32 1/47/32 74/51/13 80/52/23
s 1
f 6/1/1 8/4/1 115/53/9 109/54/21
f 5/2/1 6/1/1 109/54/21 101/55/33
f 7/3/1 5/2/1 101/55/33 95/56/8
s 11
f 4/49/32 2/48/32 80/52/23 88/57/15
s 1
f 8/4/1 7/3/1 95/56/8 115/53/9
s 12
f 72/58/34 65/59/35 158/60/36 171/61/37
s 13
f 45/62/38 9/63/39 31/64/40 60/65/41
s 11
f 1/47/32 3/50/32 66/68/12 74/51/13
s 14
f 52/69/43 18/70/44 25/71/45 39/72/46
s 15
f 144/73/34 121/74/35 93/75/36 100/76/37
s 11
f 3/50/32 4/49/32 88/57/15 66/68/12
s 16
f 9/63/47 12/79/48 13/80/48 15/81/47
f 10/82/49 14/81/49 13/80/48 12/79/48
s 17
f 16/21/53 19/83/53 20/83/54 22/84/54
f 18/70/58 22/86/54 20/87/54 21/85/58
s 18
f 24/90/62 28/91/63 27/89/63 26/88/62
f 25/71/64 29/88/64 27/89/63 28/91/63
s 19
f 30/20/65 33/92/66 34/93/66 36/94/65
f 31/64/67 35/94/67 34/93/66 33/92/66
s 20
f 37/95/71 40/96/71 41/96/72 43/97/72
f 39/72/76 43/97/72 41/99/72 42/96/76
s 21
f 44/100/77 47/101/78 48/102/78 50/103/77
f 45/62/79 49/103/79 48/103/78 47/101/78
s 22
f 51/22/83 54/106/84 55/107/84 57/108/83
f 52/69/85 56/109/85 55/109/84 54/110/84
s 23
f 58/19/89 61/112/89 62/112/90 64/113/90
f 60/65/94 64/113/90 62/115/90 63/112/94
s 12
f 65/59/35 68/116/95 69/117/96 71/118/97
s 11
f 66/68/12 70/119/98 69/120/99 68/121/100
s 7
f 67/31/28 71/118/101 69/122/102 70/123/103
s 12
f 72/58/34 75/124/104 76/125/105 78/126/106
s 2
f 73/5/2 77/127/107 76/128/108 75/124/109
s 11
f 74/51/13 78/129/110 76/130/111 77/131/112
s 6
f 79/28/25 82/132/113 83/133/114 85/134/115
s 11
f 80/52/23 84/135/116 83/136/117 82/137/118
s 2
f 81/8/5 85/138/119 83/139/120 84/140/121
s 6
f 86/27/24 89/141/122 90/142/123 92/143/124
s 7
f 87/32/29 91/144/125 90/145/126 89/141/127
s 11
f 88/57/15 92/146/128 90/147/129 91/148/130
s 15
f 93/75/36 96/149/131 97/150/132 99/151/133
s 8
f 94/37/31 98/152/134 97/153/135 96/149/136
s 1
f 95/56/8 99/154/137 97/155/138 98/156/139
s 15
f 100/76/37 103/157/140 104/158/141 106/159/142
s 1
f 101/55/33 105/160/143 104/161/144 103/162/145
s 9
f 102/40/3 106/159/146 104/163/147 105/164/148
s 10
f 107/45/26 110/165/149 111/166/150 113/167/151
s 9
f 108/41/4 112/168/152 111/169/153 110/170/154
s 1
f 109/54/21 113/171/155 111/172/156 112/173/157
s 10
f 114/46/27 117/174/158 118/175/159 120/176/160
s 1
f 115/53/9 119/177/161 118/178/162 117/179/163
s 8
f 116/36/30 120/176/164 118/180/165 119/181/166
s 15
f 121/74/35 124/182/95 125/183/96 127/184/97
s 8
f 123/38/28 127/184/101 125/183/102 126/185/103
s 9
f 128/42/5 131/187/119 132/188/167 134/189/121
s 10
f 129/44/25 133/190/113 132/191/168 131/192/115
s 7
f 135/33/30 138/196/164 139/197/165 141/198/166
s 6
f 136/30/27 140/199/158 139/200/159 138/196/160
s 9
f 142/39/2 145/204/107 146/205/108 148/206/109
s 15
f 144/73/34 148/206/104 146/205/105 147/207/106
s 8
f 149/35/29 152/209/125 153/210/126 155/211/127
s 10
f 151/43/24 155/211/122 153/210/123 154/212/170
s 7
f 156/34/31 159/214/134 160/215/135 162/216/136
s 12
f 158/60/36 162/216/131 160/220/132 161/221/133
s 2
f 163/7/4 166/222/152 167/223/153 169/224/154
s 6
f 165/29/26 169/228/149 167/229/150 168/230/151
s 2
f 170/6/3 173/231/146 174/232/147 176/233/148
s 12
f 171/61/37 175/234/140 174/235/171 173/231/142
s 24
f 44/100/172 10/82/173 12/79/174 47/101/174
s 13
f 47/101/175 12/79/175 9/63/39 45/62/38
s 5
f 51/22/19 16/21/18 22/84/176 54/106/176
s 14
f 54/110/177 22/86/177 18/70/44 52/69/43
s 13
f 60/65/41 31/64/40 33/92/178 64/113/178
s 5
f 64/113/179 33/92/179 30/20/17 58/19/16
s 14
f 21/85/180 29/88/180 25/71/45 18/70/44
s 24
f 26/88/181 14/81/181 10/82/173 24/90/182
s 13
f 15/81/183 35/94/183 31/64/40 9/63/39
s 5
f 36/94/184 19/83/184 16/21/18 30/20/17
s 24
f 24/90/182 37/95/185 43/97/186 28/91/186
s 14
f 28/91/187 43/97/187 39/72/46 25/71/45
f 52/69/43 39/72/46 42/96/188 56/109/188
s 13
f 45/62/38 60/65/41 63/112/189 49/103/189
s 24
f 37/95/185 44/100/172 50/103/190 40/96/190
s 5
f 58/19/16 51/22/19 57/108/191 61/112/191
s 12
f 65/59/35 72/58/34 78/126/106 68/116/95
s 11
f 68/121/100 78/129/110 74/51/13 66/68/12
s 6
f 79/28/25 86/27/24 92/143/124 82/132/113
s 11
f 82/137/118 92/146/128 88/57/15 80/52/23
s 2
f 73/5/2 81/8/5 84/140/121 77/127/107
s 11
f 77/131/112 84/135/116 80/52/23 74/51/13
f 66/68/12 88/57/15 91/148/130 70/119/98
s 7
f 70/123/103 91/144/125 87/32/29 67/31/28
s 1
f 95/56/8 101/55/33 103/162/145 99/154/137
s 15
f 99/151/133 103/157/140 100/76/37 93/75/36
s 1
f 109/54/21 115/53/9 117/179/163 113/171/155
s 10
f 113/167/151 117/174/158 114/46/27 107/45/26
s 1
f 101/55/33 109/54/21 112/173/157 105/160/143
s 9
f 105/164/148 112/168/152 108/41/4 102/40/3
s 8
f 94/37/31 116/36/30 119/181/166 98/152/134
s 1
f 98/156/139 119/177/161 115/53/9 95/56/8
s 8
f 123/38/28 94/37/31 96/149/136 127/184/101
s 15
f 127/184/97 96/149/131 93/75/36 121/74/35
s 9
f 128/42/5 108/41/4 110/170/154 131/187/119
s 10
f 131/192/115 110/165/149 107/45/26 129/44/25
s 7
f 135/33/30 87/32/29 89/141/127 138/196/164
s 6
f 138/196/160 89/141/122 86/27/24 136/30/27
s 15
f 144/73/34 100/76/37 106/159/142 148/206/104
s 9
f 148/206/109 106/159/146 102/40/3 142/39/2
s 8
f 116/36/30 149/35/29 155/211/127 120/176/164
s 10
f 120/176/160 155/211/122 151/43/24 114/46/27
f 129/44/25 151/43/24 154/212/170 133/190/113
s 8
f 149/35/29 123/38/28 126/185/103 152/209/125
s 15
f 121/74/35 144/73/34 147/207/106 124/182/95
s 9
f 142/39/2 128/42/5 134/189/121 145/204/107
s 7
f 67/31/28 156/34/31 162/216/136 71/118/101
s 12
f 71/118/97 162/216/131 158/60/36 65/59/35
s 2
f 81/8/5 163/7/4 169/224/154 85/138/119
s 6
f 85/134/115 169/228/149 165/29/26 79/28/25
s 12
f 72/58/34 171/61/37 173/231/142 75/124/104
s 2
f 75/124/109 173/231/146 170/6/3 73/5/2
s 6
f 168/230/151 140/199/158 136/30/27 165/29/26
s 12
f 161/221/133 175/234/140 171/61/37 158/60/36
s 7
f 141/198/166 159/214/134 156/34/31 135/33/30
s 2
f 176/233/148 166/222/152 163/7/4 170/6/3
s 24
f 44/100/172 37/95/185 24/90/182 10/82/173
s 3
usemtl TOMB_BASE-DARK
f 38/9/6 46/10/7 157/11/8 137/12/9
s 4
f 32/13/10 11/14/11 122/15/12 143/16/13
f 11/14/11 23/17/14 150/18/15 122/15/12
s 3
f 53/23/20 38/9/6 137/12/9 164/24/21
s 4
f 17/25/22 32/13/10 143/16/13 130/26/23
s 3
f 59/66/42 53/23/20 164/24/21 172/67/33
f 46/10/7 59/66/42 172/67/33 157/11/8
s 4
f 23/17/14 17/77/22 130/78/23 150/18/15
f 11/14/11 15/81/50 13/80/51 14/81/52
f 17/77/22 21/85/55 20/85/56 19/85/57
f 23/17/14 26/88/59 27/89/60 29/88/61
f 32/13/10 36/94/68 34/93/69 35/94/70
s 3
f 38/9/6 42/98/73 41/98/74 40/98/75
f 46/10/7 50/104/80 48/105/81 49/105/82
f 53/23/20 57/111/86 55/111/87 56/111/88
f 59/66/42 63/114/91 62/114/92 61/114/93
s 4
f 122/15/12 126/185/98 125/183/99 124/186/100
f 130/26/23 134/193/116 132/194/169 133/195/118
s 3
f 137/12/9 141/201/161 139/202/162 140/203/163
s 4
f 143/16/13 147/207/110 146/205/111 145/208/112
f 150/18/15 154/212/128 153/210/129 152/213/130
s 3
f 157/11/8 161/217/137 160/218/138 159/219/139
f 164/24/21 168/225/155 167/226/156 166/227/157
f 172/67/33 176/236/143 174/237/144 175/238/145
s 4
f 17/77/22 23/17/14 29/88/61 21/85/55
f 23/17/14 11/14/11 14/81/52 26/88/59
f 11/14/11 32/13/10 35/94/70 15/81/50
f 32/13/10 17/25/22 19/83/57 36/94/68
s 3
f 56/111/88 42/98/73 38/9/6 53/23/20
f 49/105/82 63/114/91 59/66/42 46/10/7
f 40/98/75 50/104/80 46/10/7 38/9/6
f 61/114/93 57/111/86 53/23/20 59/66/42
s 4
f 133/190/118 154/212/128 150/18/15 130/78/23
f 152/209/130 126/185/98 122/15/12 150/18/15
f 124/182/100 147/207/110 143/16/13 122/15/12
f 145/204/112 134/189/116 130/26/23 143/16/13
s 3
f 164/24/21 137/12/9 140/203/163 168/225/155
f 157/11/8 172/67/33 175/238/145 161/217/137
f 137/12/9 157/11/8 159/219/139 141/201/161
f 172/67/33 164/24/21 166/227/157 176/236/143
