# Blender 4.4.3
# www.blender.org
mtllib TOMB_DECOR_MUSICSHEET_004.mtl
o TOMB_DECOR_MUSICSHEET_004
v 0.178406 0.024846 0.246592
v -0.177425 0.135783 0.246592
v 0.178406 0.024846 -0.246592
v -0.177425 0.135783 -0.246592
v -0.189031 0.081031 -0.184944
v -0.191107 0.043788 -0.123296
v -0.190159 0.023895 -0.061648
v -0.189655 0.020324 0.000000
v -0.190159 0.023895 0.061648
v -0.191107 0.043788 0.123296
v -0.189031 0.081031 0.184944
v 0.177218 0.011860 0.184944
v 0.179314 0.002431 0.123296
v 0.181698 -0.001501 0.061648
v 0.182445 -0.001212 0.000000
v 0.181698 -0.001501 -0.061648
v 0.179314 0.002431 -0.123296
v 0.177218 0.011860 -0.184944
v -0.184623 0.032755 0.288524
v -0.460466 0.173588 0.081162
v 0.100525 0.000662 -0.112589
v -0.175319 0.141495 -0.319951
v -0.226243 0.092069 -0.276399
v -0.267576 0.059233 -0.227357
v -0.304594 0.043386 -0.176606
v -0.340215 0.043804 -0.126163
v -0.375881 0.051409 -0.076328
v -0.410150 0.075279 -0.026800
v -0.440104 0.116139 0.024435
v -0.151338 0.015935 0.237733
v -0.115014 0.002370 0.188842
v -0.077866 -0.005756 0.140102
v -0.041588 -0.009545 0.090396
v -0.006579 -0.013779 0.039824
v 0.027559 -0.013677 -0.011714
v 0.062523 -0.008134 -0.063102
vn 0.2113 0.8472 -0.4874
vn 0.2113 0.8472 0.4874
vn 0.1390 0.9262 0.3506
vn 0.0880 0.9785 0.1867
vn 0.0629 0.9977 0.0259
vn 0.0629 0.9977 -0.0259
vn 0.0880 0.9785 -0.1867
vn 0.1390 0.9262 -0.3506
vn 0.5439 0.7924 -0.2760
vn -0.0197 0.8559 0.5168
vn 0.0094 0.9317 0.3632
vn 0.0686 0.9774 0.2001
vn 0.1433 0.9882 0.0547
vn 0.1733 0.9848 0.0125
vn 0.2845 0.9531 -0.1036
vn 0.4148 0.8860 -0.2071
vt 0.176189 0.755917
vt 0.368033 0.755917
vt 0.368033 0.787648
vt 0.176189 0.787648
vt 0.176189 0.533802
vt 0.368033 0.533802
vt 0.368033 0.565533
vt 0.176189 0.565533
vt 0.368033 0.597264
vt 0.176189 0.597264
vt 0.368033 0.628994
vt 0.176189 0.628994
vt 0.368033 0.660725
vt 0.176189 0.660725
vt 0.368033 0.692456
vt 0.176189 0.692456
vt 0.368033 0.724187
vt 0.176189 0.724187
vt 0.005291 0.965878
vt 0.197134 0.965878
vt 0.197134 0.997609
vt 0.005291 0.997609
vt 0.005291 0.743763
vt 0.197134 0.743763
vt 0.197134 0.775494
vt 0.005291 0.775494
vt 0.197134 0.807225
vt 0.005291 0.807225
vt 0.197134 0.838955
vt 0.005291 0.838955
vt 0.197134 0.870686
vt 0.005291 0.870686
vt 0.197134 0.902417
vt 0.005291 0.902417
vt 0.197134 0.934147
vt 0.005291 0.934147
s 0
usemtl TOMB_PLANT
f 12/1/1 11/2/1 2/3/1 1/4/1
f 3/5/2 4/6/2 5/7/2 18/8/2
f 18/8/3 5/7/3 6/9/3 17/10/3
f 17/10/4 6/9/4 7/11/4 16/12/4
f 16/12/5 7/11/5 8/13/5 15/14/5
f 15/14/6 8/13/6 9/15/6 14/16/6
f 14/16/7 9/15/7 10/17/7 13/18/7
f 13/18/8 10/17/8 11/2/8 12/1/8
f 30/19/9 29/20/9 20/21/9 19/22/9
f 21/23/10 22/24/10 23/25/10 36/26/10
f 36/26/11 23/25/11 24/27/11 35/28/11
f 35/28/12 24/27/12 25/29/12 34/30/12
f 34/30/13 25/29/13 26/31/13 33/32/13
f 33/32/14 26/31/14 27/33/14 32/34/14
f 32/34/15 27/33/15 28/35/15 31/36/15
f 31/36/16 28/35/16 29/20/16 30/19/16
