# Blender 4.4.3
# www.blender.org
mtllib TOMB_WALL_1_1.mtl
o TOMB_WALL_1_1.001
v 0.500000 0.000000 0.500000
v -0.500000 0.000000 0.500000
v 0.500000 0.000000 0.300000
v -0.500000 0.000000 0.300000
v 0.500000 1.000000 0.500000
v -0.500000 1.000000 0.500000
v 0.500000 1.000000 0.300000
v -0.500000 1.000000 0.300000
v 0.500000 0.785000 0.315000
v 0.485000 0.785000 0.300000
v 0.515000 0.800000 0.285000
v 0.495607 0.785000 0.304393
v 0.500000 0.793661 0.300000
v 0.500000 0.795607 0.295607
v 0.504393 0.795607 0.300000
v -0.485000 0.785000 0.500000
v -0.515000 0.800000 0.515000
v -0.500000 0.785000 0.485000
v -0.500000 0.795607 0.504393
v -0.500000 0.793661 0.500000
v -0.504393 0.795607 0.500000
v -0.495607 0.785000 0.495607
v -0.515000 0.800000 0.285000
v -0.485000 0.785000 0.300000
v -0.500000 0.785000 0.315000
v -0.500000 0.795607 0.295607
v -0.500000 0.793661 0.300000
v -0.495607 0.785000 0.304393
v -0.504393 0.795607 0.300000
v 0.485000 0.785000 0.500000
v 0.500000 0.785000 0.485000
v 0.515000 0.800000 0.515000
v 0.495607 0.785000 0.495607
v 0.500000 0.793661 0.500000
v 0.504393 0.795607 0.500000
v 0.500000 0.795607 0.504393
v -0.485000 0.315000 0.300000
v -0.515000 0.300000 0.285000
v -0.500000 0.315000 0.315000
v -0.500000 0.304393 0.295607
v -0.500000 0.306340 0.300000
v -0.504393 0.304393 0.300000
v -0.495607 0.315000 0.304393
v 0.485000 0.315000 0.300000
v 0.500000 0.315000 0.315000
v 0.515000 0.300000 0.285000
v 0.495607 0.315000 0.304393
v 0.500000 0.306340 0.300000
v 0.504393 0.304393 0.300000
v 0.500000 0.304393 0.295607
v -0.485000 0.315000 0.500000
v -0.500000 0.315000 0.485000
v -0.515000 0.300000 0.515000
v -0.495607 0.315000 0.495607
v -0.500000 0.306340 0.500000
v -0.504393 0.304393 0.500000
v -0.500000 0.304393 0.504393
v 0.485000 0.315000 0.500000
v 0.515000 0.300000 0.515000
v 0.500000 0.315000 0.485000
v 0.500000 0.304393 0.504393
v 0.500000 0.306340 0.500000
v 0.504393 0.304393 0.500000
v 0.495607 0.315000 0.495607
v 0.600000 0.015000 0.215000
v 0.585000 0.000000 0.215000
v 0.585000 0.015000 0.200000
v 0.595607 0.004393 0.215000
v 0.593660 0.006340 0.206340
v 0.585000 0.004393 0.204393
v 0.595607 0.015000 0.204393
v 0.600000 0.015000 0.585000
v 0.585000 0.015000 0.600000
v 0.585000 0.000000 0.585000
v 0.595607 0.015000 0.595607
v 0.593660 0.006340 0.593660
v 0.585000 0.004393 0.595607
v 0.595607 0.004393 0.585000
v -0.600000 0.015000 0.585000
v -0.585000 0.000000 0.585000
v -0.585000 0.015000 0.600000
v -0.595607 0.004393 0.585000
v -0.593660 0.006340 0.593660
v -0.585000 0.004393 0.595607
v -0.595607 0.015000 0.595607
v -0.600000 0.015000 0.215000
v -0.585000 0.015000 0.200000
v -0.585000 0.000000 0.215000
v -0.595607 0.015000 0.204393
v -0.593660 0.006340 0.206340
v -0.585000 0.004393 0.204393
v -0.595607 0.004393 0.215000
v 0.600000 0.985000 0.215000
v 0.585000 0.985000 0.200000
v 0.585000 1.000000 0.215000
v 0.595607 0.985000 0.204393
v 0.593660 0.993660 0.206340
v 0.585000 0.995607 0.204393
v 0.595607 0.995607 0.215000
v 0.600000 0.985000 0.585000
v 0.585000 1.000000 0.585000
v 0.585000 0.985000 0.600000
v 0.595607 0.995607 0.585000
v 0.593660 0.993660 0.593660
v 0.585000 0.995607 0.595607
v 0.595607 0.985000 0.595607
v -0.600000 0.985000 0.585000
v -0.585000 0.985000 0.600000
v -0.585000 1.000000 0.585000
v -0.595607 0.985000 0.595607
v -0.593660 0.993660 0.593660
v -0.585000 0.995607 0.595607
v -0.595607 0.995607 0.585000
v -0.600000 0.985000 0.215000
v -0.585000 1.000000 0.215000
v -0.585000 0.985000 0.200000
v -0.595607 0.995607 0.215000
v -0.593660 0.993660 0.206340
v -0.585000 0.995607 0.204393
v -0.595607 0.985000 0.204393
v 0.600000 0.815000 0.215000
v 0.585000 0.800000 0.215000
v 0.585000 0.815000 0.200000
v 0.595607 0.804394 0.215000
v 0.593660 0.806340 0.206340
v 0.585000 0.804394 0.204393
v 0.595607 0.815000 0.204393
v -0.585000 0.815000 0.600000
v -0.600000 0.815000 0.585000
v -0.585000 0.800000 0.585000
v -0.595607 0.815000 0.595607
v -0.593660 0.806340 0.593660
v -0.595607 0.804394 0.585000
v -0.585000 0.804394 0.595607
v -0.585000 0.285000 0.200000
v -0.600000 0.285000 0.215000
v -0.585000 0.300000 0.215000
v -0.595607 0.285000 0.204393
v -0.593660 0.293660 0.206340
v -0.595607 0.295607 0.215000
v -0.585000 0.295607 0.204393
v 0.585000 0.815000 0.600000
v 0.585000 0.800000 0.585000
v 0.600000 0.815000 0.585000
v 0.585000 0.804394 0.595607
v 0.593660 0.806340 0.593660
v 0.595607 0.804394 0.585000
v 0.595607 0.815000 0.595607
v -0.585000 0.815000 0.200000
v -0.585000 0.800000 0.215000
v -0.600000 0.815000 0.215000
v -0.585000 0.804394 0.204393
v -0.593660 0.806340 0.206340
v -0.595607 0.804394 0.215000
v -0.595607 0.815000 0.204393
v 0.585000 0.285000 0.200000
v 0.585000 0.300000 0.215000
v 0.600000 0.285000 0.215000
v 0.585000 0.295607 0.204393
v 0.593660 0.293660 0.206340
v 0.595607 0.295607 0.215000
v 0.595607 0.285000 0.204393
v -0.585000 0.285000 0.600000
v -0.585000 0.300000 0.585000
v -0.600000 0.285000 0.585000
v -0.585000 0.295607 0.595607
v -0.593660 0.293660 0.593660
v -0.595607 0.295607 0.585000
v -0.595607 0.285000 0.595607
v 0.585000 0.285000 0.600000
v 0.600000 0.285000 0.585000
v 0.585000 0.300000 0.585000
v 0.595607 0.285000 0.595607
v 0.593660 0.293660 0.593660
v 0.595607 0.295607 0.585000
v 0.585000 0.295607 0.595607
vn -0.0000 1.0000 -0.0000
vn 0.1794 -0.1794 0.9673
vn 0.1794 0.1794 0.9673
vn -0.1794 0.1794 0.9673
vn -0.1794 -0.1794 0.9673
vn -0.0507 0.9974 -0.0507
vn 0.0507 0.9974 -0.0507
vn 0.1794 0.9673 -0.1794
vn -0.1794 0.9673 -0.1794
vn 0.0507 -0.9974 0.0507
vn 0.0507 -0.9974 -0.0507
vn 0.1794 -0.9673 -0.1794
vn 0.1794 -0.9673 0.1794
vn -0.0507 -0.9974 -0.0507
vn -0.1794 -0.9673 -0.1794
vn 0.1105 0.1751 0.9783
vn 0.1105 -0.1751 0.9783
vn -0.1105 -0.1751 0.9783
vn -0.1105 0.1751 0.9783
vn -0.0507 0.9974 0.0507
vn -0.1794 0.9673 0.1794
vn -0.0507 -0.9974 0.0507
vn -0.1794 -0.9673 0.1794
vn -0.9673 -0.1794 -0.1794
vn -0.9673 -0.1794 0.1794
vn -0.9673 0.1794 0.1794
vn -0.9673 0.1794 -0.1794
vn 0.1794 -0.1794 -0.9673
vn -0.1794 -0.1794 -0.9673
vn -0.1794 0.1794 -0.9673
vn 0.1794 0.1794 -0.9673
vn -0.0000 -1.0000 -0.0000
vn 0.1794 0.9673 0.1794
vn 0.9673 -0.1794 0.1794
vn 0.9673 -0.1794 -0.1794
vn 0.9673 0.1794 -0.1794
vn 0.9673 0.1794 0.1794
vn 0.9783 0.1751 -0.1105
vn 0.9783 -0.1751 -0.1105
vn 0.9783 -0.1751 0.1105
vn 0.9783 0.1751 0.1105
vn 0.0507 0.9974 0.0507
vn -0.9783 0.1751 0.1105
vn -0.9783 -0.1751 0.1105
vn -0.9783 -0.1751 -0.1105
vn -0.9783 0.1751 -0.1105
vn 0.6225 -0.6778 -0.3913
vn 0.5138 -0.6870 -0.5138
vn 0.3913 -0.6778 -0.6225
vn 0.3004 -0.9489 -0.0965
vn 0.2025 -0.9581 -0.2025
vn 0.0965 -0.9489 -0.3004
vn -0.3913 -0.6778 0.6225
vn -0.5138 -0.6870 0.5138
vn -0.3004 -0.9489 0.0965
vn -0.2025 -0.9581 0.2025
vn -0.0965 -0.9489 0.3004
vn -0.6225 -0.6778 0.3913
vn -0.0965 -0.9489 -0.3004
vn -0.2025 -0.9581 -0.2025
vn -0.3004 -0.9489 -0.0965
vn -0.3913 -0.6778 -0.6225
vn -0.5138 -0.6870 -0.5138
vn -0.6225 -0.6778 -0.3913
vn 0.3913 -0.6778 0.6225
vn 0.5138 -0.6870 0.5138
vn 0.6225 -0.6778 0.3913
vn 0.0965 -0.9489 0.3004
vn 0.2025 -0.9581 0.2025
vn 0.3004 -0.9489 0.0965
vn -0.3913 0.6778 -0.6225
vn -0.5138 0.6870 -0.5138
vn -0.3004 0.9489 -0.0965
vn -0.2025 0.9581 -0.2025
vn -0.0965 0.9489 -0.3004
vn -0.6225 0.6778 -0.3913
vn 0.3913 0.6778 -0.6225
vn 0.5138 0.6870 -0.5138
vn 0.6225 0.6778 -0.3913
vn 0.0965 0.9489 -0.3004
vn 0.2025 0.9581 -0.2025
vn 0.3004 0.9489 -0.0965
vn -0.3913 0.6778 0.6225
vn -0.5138 0.6870 0.5138
vn -0.6225 0.6778 0.3913
vn -0.0965 0.9489 0.3004
vn -0.2025 0.9581 0.2025
vn -0.3004 0.9489 0.0965
vn 0.3913 0.6778 0.6225
vn 0.5138 0.6870 0.5138
vn 0.3004 0.9489 0.0965
vn 0.2025 0.9581 0.2025
vn 0.0965 0.9489 0.3004
vn 0.6225 0.6778 0.3913
vn 0.9194 -0.3600 -0.1585
vn 0.8881 -0.3251 -0.3251
vn 0.9194 -0.1585 -0.3600
vn 0.1585 -0.9194 -0.3600
vn 0.3251 -0.8881 -0.3251
vn 0.3600 -0.9194 -0.1585
vn 0.3600 -0.1585 -0.9194
vn 0.3251 -0.3251 -0.8881
vn 0.1585 -0.3600 -0.9194
vn 0.9194 -0.1585 0.3600
vn 0.8881 -0.3251 0.3251
vn 0.9194 -0.3600 0.1585
vn 0.1585 -0.3600 0.9194
vn 0.3251 -0.3251 0.8881
vn 0.3600 -0.1585 0.9194
vn 0.3600 -0.9194 0.1585
vn 0.3251 -0.8881 0.3251
vn 0.1585 -0.9194 0.3600
vn -0.9194 -0.3600 0.1585
vn -0.8881 -0.3251 0.3251
vn -0.9194 -0.1585 0.3600
vn -0.1585 -0.9194 0.3600
vn -0.3251 -0.8881 0.3251
vn -0.3600 -0.9194 0.1585
vn -0.3600 -0.1585 0.9194
vn -0.3251 -0.3251 0.8881
vn -0.1585 -0.3600 0.9194
vn -0.9194 -0.1585 -0.3600
vn -0.8881 -0.3251 -0.3251
vn -0.9194 -0.3600 -0.1585
vn -0.1585 -0.3600 -0.9194
vn -0.3251 -0.3251 -0.8881
vn -0.3600 -0.1585 -0.9194
vn -0.3600 -0.9194 -0.1585
vn -0.3251 -0.8881 -0.3251
vn -0.1585 -0.9194 -0.3600
vn 0.9194 0.1585 -0.3600
vn 0.8881 0.3251 -0.3251
vn 0.9194 0.3600 -0.1585
vn 0.1585 0.3600 -0.9194
vn 0.3251 0.3251 -0.8881
vn 0.3600 0.1585 -0.9194
vn 0.3600 0.9194 -0.1585
vn 0.3251 0.8881 -0.3251
vn 0.1585 0.9194 -0.3600
vn 0.9194 0.3600 0.1585
vn 0.8881 0.3251 0.3251
vn 0.9194 0.1585 0.3600
vn 0.1585 0.9194 0.3600
vn 0.3251 0.8881 0.3251
vn 0.3600 0.9194 0.1585
vn 0.3600 0.1585 0.9194
vn 0.3251 0.3251 0.8881
vn 0.1585 0.3600 0.9194
vn -0.9194 0.1585 0.3600
vn -0.8881 0.3251 0.3251
vn -0.9194 0.3600 0.1585
vn -0.1585 0.3600 0.9194
vn -0.3251 0.3251 0.8881
vn -0.3600 0.1585 0.9194
vn -0.3600 0.9194 0.1585
vn -0.3251 0.8881 0.3251
vn -0.1585 0.9194 0.3600
vn -0.9194 0.3600 -0.1585
vn -0.8881 0.3251 -0.3251
vn -0.9194 0.1585 -0.3600
vn -0.1585 0.9194 -0.3600
vn -0.3251 0.8881 -0.3251
vn -0.3600 0.9194 -0.1585
vn -0.3600 0.1585 -0.9194
vn -0.3251 0.3251 -0.8881
vn -0.1585 0.3600 -0.9194
vn 0.1105 0.1751 -0.9783
vn 0.1105 -0.1751 -0.9783
vn 0.3827 -0.0000 -0.9239
vn 0.9239 -0.0000 -0.3827
vn -0.3827 -0.0000 0.9239
vn -0.9239 -0.0000 0.3827
vn 0.9239 -0.0000 0.3827
vn 0.3827 -0.0000 0.9239
vn -0.9239 -0.3827 -0.0000
vn -0.0000 -0.3827 -0.9239
vn -0.1105 -0.1751 -0.9783
vn 0.9239 -0.3827 -0.0000
vn -0.0000 -0.3827 0.9239
vn -0.1105 0.1751 -0.9783
vn -0.3827 -0.0000 -0.9239
vn -0.9239 -0.0000 -0.3827
vn -0.9239 0.3827 -0.0000
vn 0.9239 0.3827 -0.0000
vn -0.0000 0.3827 -0.9239
vn -0.0000 0.3827 0.9239
vt 0.970140 0.386396
vt 0.970140 0.683213
vt 0.910777 0.683213
vt 0.910777 0.386396
vt 0.816567 0.351906
vt 0.736426 0.351906
vt 0.736426 0.004630
vt 0.816567 0.004630
vt 0.031774 0.103984
vt 0.031774 0.484604
vt 0.005754 0.484604
vt 0.005754 0.103984
vt 0.253196 0.588409
vt 0.253196 0.484604
vt 0.647191 0.484604
vt 0.647191 0.588409
vt 0.253196 0.103984
vt 0.647191 0.103984
vt 0.041292 0.594119
vt 0.164826 0.594119
vt 0.164826 0.963320
vt 0.041292 0.963320
vt 0.031774 0.000178
vt 0.005754 0.000178
vt 0.253196 0.969030
vt 0.647191 0.969030
vt 0.816567 0.835717
vt 0.816567 0.945539
vt 0.736426 0.945539
vt 0.736426 0.835717
vt 0.816567 0.479537
vt 0.816567 0.826812
vt 0.736426 0.826812
vt 0.736426 0.479537
vt 0.232195 0.123357
vt 0.282654 0.123357
vt 0.282653 0.470633
vt 0.232195 0.470633
vt 0.232195 0.598265
vt 0.282654 0.598265
vt 0.282654 0.945541
vt 0.232196 0.945542
vt 0.232195 0.114453
vt 0.232194 0.004630
vt 0.282653 0.004630
vt 0.282654 0.114453
vt 0.970140 0.029860
vt 0.970140 0.326676
vt 0.910777 0.326676
vt 0.910777 0.029860
vt 0.995370 0.004630
vt 0.995369 0.351906
vt 0.885547 0.361167
vt 0.995369 0.361167
vt 0.995369 0.708442
vt 0.885547 0.708442
vt 0.885547 0.351906
vt 0.816567 0.360810
vt 0.816567 0.470632
vt 0.736426 0.470632
vt 0.736426 0.360810
vt 0.041292 0.492389
vt 0.164826 0.492389
vt 0.164826 0.580624
vt 0.041292 0.580624
vt 0.031774 0.588409
vt 0.031774 0.969030
vt 0.005754 0.969030
vt 0.005754 0.588409
vt 0.885547 0.004630
vt 0.041292 0.007964
vt 0.164826 0.007964
vt 0.164826 0.096198
vt 0.041292 0.096198
vt 0.232195 0.589360
vt 0.232195 0.479538
vt 0.282653 0.479537
vt 0.282654 0.589360
vt 0.253196 0.000178
vt 0.647191 0.000178
vt 0.164826 0.484604
vt 0.168213 0.484604
vt 0.168769 0.484604
vt 0.164826 0.478895
vt 0.168769 0.969030
vt 0.164826 0.969030
vt 0.168769 0.000178
vt 0.164826 0.000178
vt 0.167102 0.000178
vt 0.168769 0.103984
vt 0.168213 0.103984
vt 0.164826 0.109693
vt 0.164826 0.103984
vt 0.164826 0.588409
vt 0.168213 0.588409
vt 0.168769 0.588409
vt 0.041292 0.109693
vt 0.037349 0.103984
vt 0.037905 0.103984
vt 0.041292 0.103984
vt 0.041292 0.478895
vt 0.041292 0.484604
vt 0.037905 0.484604
vt 0.037349 0.484604
vt 0.041292 0.969030
vt 0.039016 0.969030
vt 0.037349 0.969030
vt 0.037349 0.000178
vt 0.041292 0.000178
vt 0.037349 0.588409
vt 0.037905 0.588409
vt 0.041292 0.588409
vt 0.821019 0.470632
vt 0.821019 0.473203
vt 0.816567 0.475085
vt 0.881095 0.004630
vt 0.881095 0.002060
vt 0.885547 0.000178
vt 0.819137 0.475085
vt 0.821019 0.479537
vt 0.816567 0.356358
vt 0.819137 0.356358
vt 0.821019 0.360810
vt 0.821019 0.351906
vt 0.821019 0.354476
vt 0.995370 0.000178
vt 0.997940 0.000178
vt 0.999822 0.004630
vt 0.821019 0.945539
vt 0.821019 0.948110
vt 0.816567 0.949991
vt 0.999822 0.351906
vt 0.999822 0.354476
vt 0.995369 0.356358
vt 0.816567 0.000178
vt 0.819137 0.000178
vt 0.821019 0.004630
vt 0.816567 0.831265
vt 0.819137 0.831265
vt 0.821019 0.835717
vt 0.821019 0.826812
vt 0.821019 0.829383
vt 0.885547 0.356358
vt 0.882977 0.356358
vt 0.881095 0.351906
vt 0.282653 0.475085
vt 0.285224 0.475085
vt 0.287106 0.479537
vt 0.287106 0.470633
vt 0.287106 0.473203
vt 0.885547 0.712894
vt 0.882977 0.712894
vt 0.881095 0.708442
vt 0.287106 0.589360
vt 0.287106 0.591931
vt 0.282654 0.593813
vt 0.999822 0.708442
vt 0.999822 0.711013
vt 0.995369 0.712894
vt 0.285224 0.593813
vt 0.287106 0.598265
vt 0.282653 0.000178
vt 0.285224 0.000178
vt 0.287106 0.004630
vt 0.287107 0.945541
vt 0.287107 0.948112
vt 0.282654 0.949993
vt 0.995369 0.356714
vt 0.997940 0.356714
vt 0.999822 0.361167
vt 0.287106 0.114453
vt 0.287106 0.117023
vt 0.282654 0.118905
vt 0.881095 0.361167
vt 0.881095 0.358596
vt 0.885547 0.356714
vt 0.285224 0.118905
vt 0.287106 0.123357
vt 0.227742 0.479538
vt 0.227742 0.476967
vt 0.232195 0.475085
vt 0.731618 0.479846
vt 0.731618 0.482593
vt 0.647191 0.489595
vt 0.229624 0.475085
vt 0.227742 0.470633
vt 0.232196 0.949994
vt 0.229625 0.949994
vt 0.227744 0.945542
vt 0.227742 0.004630
vt 0.227742 0.002060
vt 0.232194 0.000178
vt 0.731618 0.964272
vt 0.731618 0.967019
vt 0.647191 0.974020
vt 0.736426 0.831265
vt 0.733856 0.831265
vt 0.731974 0.826812
vt 0.731974 0.835717
vt 0.731974 0.833146
vt 0.000178 0.108741
vt 0.000178 0.105995
vt 0.005754 0.098993
vt 0.227743 0.598265
vt 0.227743 0.595695
vt 0.232195 0.593813
vt 0.731618 0.584517
vt 0.731618 0.586764
vt 0.647191 0.592991
vt 0.229624 0.593813
vt 0.227743 0.589360
vt 0.227743 0.123357
vt 0.227743 0.120787
vt 0.232195 0.118905
vt 0.731618 0.100091
vt 0.731618 0.102338
vt 0.647191 0.108565
vt 0.229624 0.118905
vt 0.227743 0.114453
vt 0.731974 0.479537
vt 0.731974 0.476966
vt 0.736426 0.475085
vt 0.000178 0.488497
vt 0.000178 0.486249
vt 0.005754 0.480022
vt 0.733856 0.475085
vt 0.731974 0.470632
vt 0.731974 0.004630
vt 0.731974 0.002060
vt 0.736426 0.000178
vt 0.000178 0.004071
vt 0.000178 0.001823
vt 0.005754 -0.004403
vt 0.736426 0.949991
vt 0.733856 0.949991
vt 0.731974 0.945539
vt 0.736426 0.356358
vt 0.733856 0.356358
vt 0.731974 0.351906
vt 0.731974 0.360810
vt 0.731974 0.358240
vt 0.000178 0.593167
vt 0.000178 0.590420
vt 0.005754 0.583419
vt 0.885547 0.000178
vt 0.731618 0.004071
vt 0.731618 0.108741
vt 0.731618 0.488497
vt 0.731618 0.593167
vt 0.000178 0.100091
vt 0.000178 0.584517
vt 0.000178 0.479846
vt 0.000178 0.964272
s 1
usemtl TOMB_BASE
f 6/1/1 5/2/1 7/3/1 8/4/1
s 2
f 73/5/2 170/6/3 163/7/4 81/8/5
s 5
f 58/19/16 30/20/17 16/21/18 51/22/19
s 6
f 86/27/24 79/28/25 165/29/26 136/30/27
s 7
f 67/31/28 87/32/29 135/33/30 156/34/31
s 8
f 149/35/29 116/36/30 94/37/31 123/38/28
s 9
f 142/39/2 102/40/3 108/41/4 128/42/5
s 10
f 151/43/24 129/44/25 107/45/26 114/46/27
s 11
f 1/47/32 2/48/32 4/49/32 3/50/32
f 2/48/32 1/47/32 74/51/13 80/52/23
s 1
f 6/1/1 8/4/1 115/53/9 109/54/21
f 5/2/1 6/1/1 109/54/21 101/55/33
f 7/3/1 5/2/1 101/55/33 95/56/8
s 11
f 4/49/32 2/48/32 80/52/23 88/57/15
s 1
f 8/4/1 7/3/1 95/56/8 115/53/9
s 12
f 72/58/34 65/59/35 158/60/36 171/61/37
s 13
f 45/62/38 9/63/39 31/64/40 60/65/41
s 11
f 1/47/32 3/50/32 66/70/12 74/51/13
s 14
f 52/71/43 18/72/44 25/73/45 39/74/46
s 15
f 144/75/34 121/76/35 93/77/36 100/78/37
s 11
f 3/50/32 4/49/32 88/57/15 66/70/12
s 16
f 9/63/47 12/81/48 13/82/48 15/83/47
f 10/84/49 14/83/49 13/82/48 12/81/48
s 17
f 16/21/53 19/85/53 20/85/54 22/86/54
f 18/72/58 22/88/54 20/89/54 21/87/58
s 18
f 24/92/62 28/93/63 27/91/63 26/90/62
f 25/73/64 29/90/64 27/91/63 28/93/63
s 19
f 30/20/65 33/94/66 34/95/66 36/96/65
f 31/64/67 35/96/67 34/95/66 33/94/66
s 20
f 37/97/71 40/98/71 41/99/72 43/100/72
f 39/74/76 43/100/72 41/99/72 42/98/76
s 21
f 44/101/77 47/102/78 48/103/78 50/104/77
f 45/62/79 49/104/79 48/103/78 47/102/78
s 22
f 51/22/83 54/105/84 55/106/84 57/107/83
f 52/71/85 56/108/85 55/108/84 54/109/84
s 23
f 58/19/89 61/110/89 62/111/90 64/112/90
f 60/65/94 64/112/90 62/111/90 63/110/94
s 12
f 65/59/35 68/113/95 69/114/96 71/115/97
s 11
f 66/70/12 70/116/98 69/117/99 68/118/100
s 7
f 67/31/28 71/115/101 69/119/102 70/120/103
s 12
f 72/58/34 75/121/104 76/122/105 78/123/106
s 2
f 73/5/2 77/124/107 76/125/108 75/121/109
s 11
f 74/51/13 78/126/110 76/127/111 77/128/112
s 6
f 79/28/25 82/129/113 83/130/114 85/131/115
s 11
f 80/52/23 84/132/116 83/133/117 82/134/118
s 2
f 81/8/5 85/135/119 83/136/120 84/137/121
s 6
f 86/27/24 89/138/122 90/139/123 92/140/124
s 7
f 87/32/29 91/141/125 90/142/126 89/138/127
s 11
f 88/57/15 92/143/128 90/144/129 91/145/130
s 15
f 93/77/36 96/146/131 97/147/132 99/148/133
s 8
f 94/37/31 98/149/134 97/150/135 96/146/136
s 1
f 95/56/8 99/151/137 97/152/138 98/153/139
s 15
f 100/78/37 103/154/140 104/155/141 106/156/142
s 1
f 101/55/33 105/157/143 104/158/144 103/159/145
s 9
f 102/40/3 106/156/146 104/160/147 105/161/148
s 10
f 107/45/26 110/162/149 111/163/150 113/164/151
s 9
f 108/41/4 112/165/152 111/166/153 110/167/154
s 1
f 109/54/21 113/168/155 111/169/156 112/170/157
s 10
f 114/46/27 117/171/158 118/172/159 120/173/160
s 1
f 115/53/9 119/174/161 118/175/162 117/176/163
s 8
f 116/36/30 120/173/164 118/177/165 119/178/166
s 15
f 121/76/35 124/179/95 125/180/96 127/181/97
s 8
f 123/38/28 127/181/101 125/185/102 126/186/103
s 9
f 128/42/5 131/187/119 132/188/120 134/189/121
s 10
f 129/44/25 133/190/113 132/191/114 131/192/115
s 7
f 135/33/30 138/196/164 139/197/165 141/198/166
s 6
f 136/30/27 140/199/158 139/200/159 138/196/160
s 9
f 142/39/2 145/204/107 146/205/108 148/206/109
s 15
f 144/75/34 148/206/104 146/210/105 147/211/106
s 8
f 149/35/29 152/212/125 153/213/126 155/214/127
s 10
f 151/43/24 155/214/122 153/218/123 154/219/124
s 7
f 156/34/31 159/220/134 160/221/135 162/222/136
s 12
f 158/60/36 162/222/131 160/226/132 161/227/133
s 2
f 163/7/4 166/228/152 167/229/153 169/230/154
s 6
f 165/29/26 169/234/149 167/235/150 168/236/151
s 2
f 170/6/3 173/237/146 174/238/147 176/239/148
s 12
f 171/61/37 175/240/140 174/241/141 173/237/142
s 24
f 44/101/167 10/84/168 12/81/169 47/102/169
s 13
f 47/102/170 12/81/170 9/63/39 45/62/38
s 5
f 51/22/19 16/21/18 22/86/171 54/105/171
s 14
f 54/109/172 22/88/172 18/72/44 52/71/43
s 13
f 60/65/41 31/64/40 33/94/173 64/112/173
s 5
f 64/112/174 33/94/174 30/20/17 58/19/16
s 14
f 21/87/175 29/90/175 25/73/45 18/72/44
s 24
f 26/90/176 14/83/176 10/84/168 24/92/177
s 13
f 15/83/178 35/96/178 31/64/40 9/63/39
s 5
f 36/96/179 19/85/179 16/21/18 30/20/17
s 24
f 24/92/177 37/97/180 43/100/181 28/93/181
s 14
f 28/93/182 43/100/182 39/74/46 25/73/45
f 52/71/43 39/74/46 42/98/183 56/108/183
s 13
f 45/62/38 60/65/41 63/110/184 49/104/184
s 24
f 37/97/180 44/101/167 50/104/185 40/98/185
s 5
f 58/19/16 51/22/19 57/107/186 61/110/186
s 12
f 65/59/35 72/58/34 78/123/106 68/113/95
s 11
f 68/245/100 78/126/110 74/51/13 66/70/12
s 6
f 79/28/25 86/27/24 92/140/124 82/129/113
s 11
f 82/134/118 92/143/128 88/57/15 80/52/23
s 2
f 73/5/2 81/8/5 84/137/121 77/124/107
s 11
f 77/128/112 84/132/116 80/52/23 74/51/13
f 66/70/12 88/57/15 91/145/130 70/116/98
s 7
f 70/120/103 91/141/125 87/32/29 67/31/28
s 1
f 95/56/8 101/55/33 103/159/145 99/151/137
s 15
f 99/148/133 103/154/140 100/78/37 93/77/36
s 1
f 109/54/21 115/53/9 117/176/163 113/168/155
s 10
f 113/164/151 117/171/158 114/46/27 107/45/26
s 1
f 101/55/33 109/54/21 112/170/157 105/157/143
s 9
f 105/161/148 112/165/152 108/41/4 102/40/3
s 8
f 94/37/31 116/36/30 119/178/166 98/149/134
s 1
f 98/153/139 119/174/161 115/53/9 95/56/8
s 8
f 123/38/28 94/37/31 96/146/136 127/181/101
s 15
f 127/181/97 96/146/131 93/77/36 121/76/35
s 9
f 128/42/5 108/41/4 110/167/154 131/187/119
s 10
f 131/192/115 110/162/149 107/45/26 129/44/25
s 7
f 135/33/30 87/32/29 89/138/127 138/196/164
s 6
f 138/196/160 89/138/122 86/27/24 136/30/27
s 15
f 144/75/34 100/78/37 106/156/142 148/206/104
s 9
f 148/206/109 106/156/146 102/40/3 142/39/2
s 8
f 116/36/30 149/35/29 155/214/127 120/173/164
s 10
f 120/173/160 155/214/122 151/43/24 114/46/27
f 129/44/25 151/43/24 154/219/124 133/190/113
s 8
f 149/35/29 123/38/28 126/186/103 152/212/125
s 15
f 121/76/35 144/75/34 147/211/106 124/179/95
s 9
f 142/39/2 128/42/5 134/189/121 145/204/107
s 7
f 67/31/28 156/34/31 162/222/136 71/115/101
s 12
f 71/115/97 162/222/131 158/60/36 65/59/35
s 2
f 81/8/5 163/7/4 169/230/154 85/135/119
s 6
f 85/131/115 169/234/149 165/29/26 79/28/25
s 12
f 72/58/34 171/61/37 173/237/142 75/121/104
s 2
f 75/121/109 173/237/146 170/6/3 73/5/2
s 6
f 168/236/151 140/199/158 136/30/27 165/29/26
s 12
f 161/227/133 175/240/140 171/61/37 158/60/36
s 7
f 141/198/166 159/220/134 156/34/31 135/33/30
s 2
f 176/239/148 166/228/152 163/7/4 170/6/3
s 24
f 44/101/167 37/97/180 24/92/177 10/84/168
s 3
usemtl TOMB_BASE-DARK
f 38/9/6 46/10/7 157/11/8 137/12/9
s 4
f 32/13/10 11/14/11 122/15/12 143/16/13
f 11/14/11 23/17/14 150/18/15 122/15/12
s 3
f 53/23/20 38/9/6 137/12/9 164/24/21
s 4
f 17/25/22 32/13/10 143/16/13 130/26/23
s 3
f 59/66/42 53/67/20 164/68/21 172/69/33
f 46/10/7 59/66/42 172/69/33 157/11/8
s 4
f 23/17/14 17/79/22 130/80/23 150/18/15
f 11/14/11 15/83/50 13/82/51 14/83/52
f 17/79/22 21/87/55 20/87/56 19/87/57
f 23/17/14 26/90/59 27/91/60 29/90/61
f 32/13/10 36/96/68 34/95/69 35/96/70
s 3
f 38/9/6 42/98/73 41/99/74 40/98/75
f 46/10/7 50/104/80 48/103/81 49/104/82
f 53/67/20 57/107/86 55/107/87 56/107/88
f 59/66/42 63/110/91 62/111/92 61/110/93
s 4
f 122/15/12 126/182/98 125/183/99 124/184/100
f 130/26/23 134/193/116 132/194/117 133/195/118
s 3
f 137/12/9 141/201/161 139/202/162 140/203/163
s 4
f 143/16/13 147/207/110 146/208/111 145/209/112
f 150/18/15 154/215/128 153/216/129 152/217/130
s 3
f 157/11/8 161/223/137 160/224/138 159/225/139
f 164/24/21 168/231/155 167/232/156 166/233/157
f 172/69/33 176/242/143 174/243/144 175/244/145
s 4
f 17/79/22 23/17/14 29/90/61 21/87/55
f 23/17/14 11/14/11 14/83/52 26/90/59
f 11/14/11 32/13/10 35/96/70 15/83/50
f 32/13/10 17/25/22 19/85/57 36/96/68
s 3
f 56/108/88 42/98/73 38/9/6 53/23/20
f 49/104/82 63/110/91 59/66/42 46/10/7
f 40/98/75 50/104/80 46/10/7 38/9/6
f 61/110/93 57/107/86 53/67/20 59/66/42
s 4
f 133/246/118 154/215/128 150/18/15 130/80/23
f 152/247/130 126/182/98 122/15/12 150/18/15
f 124/248/100 147/207/110 143/16/13 122/15/12
f 145/249/112 134/193/116 130/26/23 143/16/13
s 3
f 164/24/21 137/12/9 140/250/163 168/231/155
f 157/11/8 172/69/33 175/251/145 161/223/137
f 137/12/9 157/11/8 159/252/139 141/201/161
f 172/69/33 164/68/21 166/253/157 176/242/143
