# Blender 4.4.3
# www.blender.org
mtllib FOREST_DECOR_MUSICSHEET_003.mtl
o FOREST_DECOR_MUSICSHEET_003
v -0.115013 0.024990 0.283204
v -0.304706 0.116763 -0.024232
v 0.304706 0.024990 0.024232
v 0.115013 0.116763 -0.283204
v 0.057999 0.061469 -0.258206
v 0.005489 0.024169 -0.225907
v -0.045920 0.004355 -0.191825
v -0.098021 0.000816 -0.158863
v -0.150850 0.004355 -0.127082
v -0.204370 0.024169 -0.096421
v -0.256790 0.061469 -0.063977
v -0.062807 0.011960 0.250414
v -0.008978 0.002657 0.220252
v 0.044847 -0.001142 0.190086
v 0.097695 -0.000815 0.158335
v 0.149777 -0.001142 0.125343
v 0.200881 0.002657 0.090766
v 0.251982 0.011960 0.056185
v 0.190829 0.006780 -0.238782
v 0.285221 0.098553 0.109916
v -0.285221 0.006780 -0.109916
v -0.190829 0.098553 0.238782
v -0.129059 0.043259 0.231037
v -0.069530 0.005959 0.215010
v -0.010549 -0.013855 0.196962
v 0.048776 -0.017394 0.180185
v 0.108463 -0.013855 0.164746
v 0.168495 0.005959 0.150577
v 0.227979 0.043259 0.134388
v 0.131452 -0.006250 -0.222199
v 0.071267 -0.015553 -0.208597
v 0.011084 -0.019352 -0.194990
v -0.048614 -0.019025 -0.179586
v -0.107929 -0.019352 -0.162773
v -0.166758 -0.015553 -0.144164
v -0.225586 -0.006250 -0.125549
v 0.180624 -0.043497 0.246592
v -0.180624 0.048276 0.246592
v 0.180624 -0.043497 -0.246592
v -0.180624 0.048276 -0.246592
v -0.189288 -0.007018 -0.184944
v -0.189373 -0.044318 -0.123296
v -0.187363 -0.064132 -0.061648
v -0.186670 -0.067671 -0.000000
v -0.187363 -0.064132 0.061648
v -0.189373 -0.044318 0.123296
v -0.189288 -0.007018 0.184944
v 0.180132 -0.056527 0.184944
v 0.182729 -0.065830 0.123296
v 0.185320 -0.069629 0.061648
v 0.186050 -0.069302 -0.000000
v 0.185320 -0.069629 -0.061648
v 0.182729 -0.065830 -0.123296
v 0.180132 -0.056527 -0.184944
v 0.242873 -0.025748 0.184585
v -0.105798 0.055306 0.288417
v 0.101575 -0.028294 -0.287917
v -0.247097 0.052760 -0.184086
v -0.236084 -0.002447 -0.122735
v -0.217391 -0.039415 -0.063780
v -0.197214 -0.058842 -0.005363
v -0.178782 -0.062040 0.053489
v -0.161889 -0.058205 0.112763
v -0.146742 -0.038142 0.172471
v -0.130110 -0.000537 0.231641
v 0.225128 -0.039105 0.125618
v 0.210230 -0.048646 0.065778
v 0.195161 -0.052685 0.005959
v 0.178188 -0.052654 -0.053311
v 0.159837 -0.053321 -0.112166
v 0.139580 -0.049919 -0.170473
v 0.119154 -0.041014 -0.228759
vn 0.5018 0.8573 -0.1149
vn -0.3277 0.8573 0.3970
vn -0.2515 0.9323 0.2601
vn -0.1402 0.9818 0.1283
vn -0.0170 0.9996 0.0217
vn 0.0271 0.9996 -0.0055
vn 0.1776 0.9818 -0.0677
vn 0.3452 0.9323 -0.1081
vn -0.5138 0.8573 -0.0327
vn 0.4271 0.8573 -0.2874
vn 0.3151 0.9323 -0.1778
vn 0.1709 0.9818 -0.0831
vn 0.0225 0.9996 -0.0160
vn -0.0275 0.9996 -0.0025
vn -0.1895 0.9818 0.0144
vn -0.3617 0.9323 0.0054
vn 0.1658 0.8573 -0.4874
vn 0.1658 0.8573 0.4874
vn 0.0893 0.9323 0.3506
vn 0.0356 0.9818 0.1867
vn 0.0096 0.9996 0.0259
vn 0.0096 0.9996 -0.0259
vn 0.0356 0.9818 -0.1867
vn 0.0893 0.9323 -0.3506
vn -0.0064 0.8593 -0.5114
vn 0.2728 0.8643 0.4225
vn 0.1582 0.9363 0.3136
vn 0.0583 0.9833 0.1721
vn -0.0132 0.9996 0.0256
vn -0.0281 0.9993 -0.0241
vn -0.0486 0.9814 -0.1856
vn -0.0427 0.9327 -0.3582
vt 0.005291 0.716297
vt 0.197134 0.716297
vt 0.197134 0.748027
vt 0.005291 0.748027
vt 0.005291 0.494182
vt 0.197134 0.494182
vt 0.197134 0.525912
vt 0.005291 0.525912
vt 0.197134 0.557643
vt 0.005291 0.557643
vt 0.197134 0.589374
vt 0.005291 0.589374
vt 0.197134 0.621104
vt 0.005291 0.621105
vt 0.197134 0.652835
vt 0.005291 0.652835
vt 0.197134 0.684566
vt 0.005291 0.684566
vt 0.005291 0.965878
vt 0.197134 0.965878
vt 0.197134 0.997609
vt 0.005291 0.997609
vt 0.005291 0.743763
vt 0.197134 0.743763
vt 0.197134 0.775494
vt 0.005291 0.775494
vt 0.197134 0.807225
vt 0.005291 0.807225
vt 0.197134 0.838955
vt 0.005291 0.838955
vt 0.197134 0.870686
vt 0.005291 0.870686
vt 0.197134 0.902417
vt 0.005291 0.902417
vt 0.197134 0.934147
vt 0.005291 0.934147
vt 0.306072 0.618640
vt 0.497916 0.618640
vt 0.497916 0.650371
vt 0.306072 0.650371
vt 0.306072 0.396525
vt 0.497916 0.396525
vt 0.497916 0.428256
vt 0.306072 0.428256
vt 0.497916 0.459987
vt 0.306072 0.459987
vt 0.497916 0.491717
vt 0.306072 0.491718
vt 0.497916 0.523448
vt 0.306072 0.523448
vt 0.497916 0.555179
vt 0.306072 0.555179
vt 0.497916 0.586910
vt 0.306072 0.586910
vt 0.176189 0.755917
vt 0.368033 0.755917
vt 0.368033 0.787648
vt 0.176189 0.787648
vt 0.176189 0.533802
vt 0.368033 0.533802
vt 0.368033 0.565533
vt 0.176189 0.565533
vt 0.368033 0.597264
vt 0.176189 0.597264
vt 0.368033 0.628994
vt 0.176189 0.628994
vt 0.368033 0.660725
vt 0.176189 0.660725
vt 0.368033 0.692456
vt 0.176189 0.692456
vt 0.368033 0.724187
vt 0.176189 0.724187
s 0
usemtl FOREST_GRASS
f 12/1/1 11/2/1 2/3/1 1/4/1
f 3/5/2 4/6/2 5/7/2 18/8/2
f 18/8/3 5/7/3 6/9/3 17/10/3
f 17/10/4 6/9/4 7/11/4 16/12/4
f 16/12/5 7/11/5 8/13/5 15/14/5
f 15/14/6 8/13/6 9/15/6 14/16/6
f 14/16/7 9/15/7 10/17/7 13/18/7
f 13/18/8 10/17/8 11/2/8 12/1/8
f 30/19/9 29/20/9 20/21/9 19/22/9
f 21/23/10 22/24/10 23/25/10 36/26/10
f 36/26/11 23/25/11 24/27/11 35/28/11
f 35/28/12 24/27/12 25/29/12 34/30/12
f 34/30/13 25/29/13 26/31/13 33/32/13
f 33/32/14 26/31/14 27/33/14 32/34/14
f 32/34/15 27/33/15 28/35/15 31/36/15
f 31/36/16 28/35/16 29/20/16 30/19/16
f 48/37/17 47/38/17 38/39/17 37/40/17
f 39/41/18 40/42/18 41/43/18 54/44/18
f 54/44/19 41/43/19 42/45/19 53/46/19
f 53/46/20 42/45/20 43/47/20 52/48/20
f 52/48/21 43/47/21 44/49/21 51/50/21
f 51/50/22 44/49/22 45/51/22 50/52/22
f 50/52/23 45/51/23 46/53/23 49/54/23
f 49/54/24 46/53/24 47/38/24 48/37/24
f 66/55/25 65/56/25 56/57/25 55/58/25
f 57/59/26 58/60/26 59/61/26 72/62/26
f 72/62/27 59/61/27 60/63/27 71/64/27
f 71/64/28 60/63/28 61/65/28 70/66/28
f 70/66/29 61/65/29 62/67/29 69/68/29
f 69/68/30 62/67/30 63/69/30 68/70/30
f 68/70/31 63/69/31 64/71/31 67/72/31
f 67/72/32 64/71/32 65/56/32 66/55/32
