# Blender 4.4.3
# www.blender.org
mtllib FOREST_DECOR_GRASS_002.mtl
o FOREST_DECOR_GRASS_002
v 0.414682 0.000000 -0.000000
v 0.414682 1.010297 -0.000000
v -0.414682 0.000000 -0.000000
v -0.414682 0.919371 -0.000000
v -0.000000 0.000000 -0.000000
v -0.000000 1.161842 -0.000000
vn -0.0000 -0.0000 -1.0000
vt 0.509132 0.162100
vt 0.963300 0.162100
vt 0.963300 0.324201
vt 0.603915 0.324201
vt 0.568372 0.000000
vt 0.963300 0.000000
s 0
usemtl FOREST_GRASS01
f 6/1/1 5/2/1 3/3/1 4/4/1
f 2/5/1 1/6/1 5/2/1 6/1/1
